STARTFONT 2.1
COMMENT
COMMENT Converted from OpenType font "montserrat_regular.ttf" by "otf2bdf 3.0".
COMMENT
FONT -FreeType-Montserrat Thin-Medium-R-Normal--25-180-100-100-P-127-ISO10646-1
SIZE 18 100 100
FONTBOUNDINGBOX 42 32 -4 -6
STARTPROPERTIES 19
FOUNDRY "FreeType"
FAMILY_NAME "Montserrat Thin"
WEIGHT_NAME "Medium"
SLANT "R"
SETWIDTH_NAME "Normal"
ADD_STYLE_NAME ""
PIXEL_SIZE 25
POINT_SIZE 180
RESOLUTION_X 100
RESOLUTION_Y 100
SPACING "P"
AVERAGE_WIDTH 127
CHARSET_REGISTRY "ISO10646"
CHARSET_ENCODING "1"
FONT_ASCENT 24
FONT_DESCENT 6
COPYRIGHT "Copyright 2011 The Montserrat Project Authors (https://github.com/JulietaUla/Montserrat)"
_OTF_FONTFILE "montserrat_regular.ttf"
_OTF_PSNAME "Montserrat-Thin"
ENDPROPERTIES
CHARS 969
STARTCHAR 0000
ENCODING 0
SWIDTH 0 0
DWIDTH 0 0
BBX 0 0 0 0
BITMAP
ENDCHAR
STARTCHAR 000D
ENCODING 13
SWIDTH 240 0
DWIDTH 6 0
BBX 0 0 0 0
BITMAP
ENDCHAR
STARTCHAR 0020
ENCODING 32
SWIDTH 240 0
DWIDTH 6 0
BBX 0 0 0 0
BITMAP
ENDCHAR
STARTCHAR 0021
ENCODING 33
SWIDTH 240 0
DWIDTH 6 0
BBX 2 17 2 1
BITMAP
80
80
80
80
80
80
80
80
80
80
80
00
00
00
00
00
C0
ENDCHAR
STARTCHAR 0022
ENCODING 34
SWIDTH 320 0
DWIDTH 8 0
BBX 4 7 2 11
BITMAP
80
90
90
90
90
90
80
ENDCHAR
STARTCHAR 0023
ENCODING 35
SWIDTH 680 0
DWIDTH 17 0
BBX 14 18 1 0
BITMAP
0400
0810
0810
0810
0810
0820
3FFC
0820
0820
0820
1020
1020
FFFC
1020
1040
1040
1040
1040
ENDCHAR
STARTCHAR 0024
ENCODING 36
SWIDTH 600 0
DWIDTH 15 0
BBX 13 24 1 -3
BITMAP
0200
0200
0200
0200
1EE0
6200
4200
C200
8200
4200
2200
1A00
0780
0260
0210
0210
0208
0208
0210
4220
3EC0
0300
0200
0200
ENDCHAR
STARTCHAR 0025
ENCODING 37
SWIDTH 800 0
DWIDTH 20 0
BBX 18 18 1 0
BITMAP
180000
640200
820400
810800
810800
811000
812000
824000
424000
1C8F00
011080
012080
022040
042040
042040
082080
101080
100F00
ENDCHAR
STARTCHAR 0026
ENCODING 38
SWIDTH 600 0
DWIDTH 15 0
BBX 14 18 1 0
BITMAP
0200
1D80
2040
2040
2040
1080
1100
0A00
0400
1A00
2100
4080
8048
8028
8010
8030
4028
3FC4
ENDCHAR
STARTCHAR 0027
ENCODING 39
SWIDTH 160 0
DWIDTH 4 0
BBX 1 7 2 11
BITMAP
80
80
80
80
80
80
80
ENDCHAR
STARTCHAR 0028
ENCODING 40
SWIDTH 280 0
DWIDTH 7 0
BBX 3 22 3 -4
BITMAP
20
40
40
40
80
80
80
80
80
80
80
80
80
80
80
80
80
80
80
40
40
20
ENDCHAR
STARTCHAR 0029
ENCODING 41
SWIDTH 280 0
DWIDTH 7 0
BBX 4 23 1 -5
BITMAP
80
80
40
40
20
20
20
20
20
10
10
10
10
10
10
10
20
20
20
20
40
40
40
ENDCHAR
STARTCHAR 002A
ENCODING 42
SWIDTH 320 0
DWIDTH 8 0
BBX 7 9 1 10
BITMAP
10
10
10
D6
38
38
D6
10
10
ENDCHAR
STARTCHAR 002B
ENCODING 43
SWIDTH 560 0
DWIDTH 14 0
BBX 10 9 2 5
BITMAP
0800
0800
0800
0800
FFC0
0800
0800
0800
0800
ENDCHAR
STARTCHAR 002C
ENCODING 44
SWIDTH 160 0
DWIDTH 4 0
BBX 1 4 2 -4
BITMAP
80
80
80
80
ENDCHAR
STARTCHAR 002D
ENCODING 45
SWIDTH 360 0
DWIDTH 9 0
BBX 6 1 2 6
BITMAP
FC
ENDCHAR
STARTCHAR 002E
ENCODING 46
SWIDTH 160 0
DWIDTH 4 0
BBX 1 1 2 0
BITMAP
80
ENDCHAR
STARTCHAR 002F
ENCODING 47
SWIDTH 280 0
DWIDTH 7 0
BBX 9 24 -1 -3
BITMAP
0080
0080
0100
0100
0100
0200
0200
0200
0400
0400
0400
0800
0800
0800
1000
1000
2000
2000
2000
4000
4000
4000
8000
8000
ENDCHAR
STARTCHAR 0030
ENCODING 48
SWIDTH 640 0
DWIDTH 16 0
BBX 14 18 1 0
BITMAP
0100
0CE0
3010
4010
4008
8008
8004
8004
8004
8004
8004
8004
8008
4008
4008
2010
1020
0FC0
ENDCHAR
STARTCHAR 0031
ENCODING 49
SWIDTH 320 0
DWIDTH 8 0
BBX 5 17 0 0
BITMAP
F8
08
08
08
08
08
08
08
08
08
08
08
08
08
08
08
08
ENDCHAR
STARTCHAR 0032
ENCODING 50
SWIDTH 520 0
DWIDTH 13 0
BBX 11 18 1 0
BITMAP
0600
7180
8040
0020
0020
0020
0020
0040
0040
0080
0100
0200
0400
0800
1000
2000
4000
FFE0
ENDCHAR
STARTCHAR 0033
ENCODING 51
SWIDTH 520 0
DWIDTH 13 0
BBX 11 18 1 0
BITMAP
FFE0
0040
0080
0080
0100
0200
0400
0400
0E00
0180
0040
0020
0020
0020
0020
0020
8040
7F80
ENDCHAR
STARTCHAR 0034
ENCODING 52
SWIDTH 640 0
DWIDTH 16 0
BBX 15 18 1 0
BITMAP
0020
0040
0080
0100
0200
0400
0400
0800
1020
2020
4020
4020
FFFE
0020
0020
0020
0020
0020
ENDCHAR
STARTCHAR 0035
ENCODING 53
SWIDTH 520 0
DWIDTH 13 0
BBX 12 18 1 0
BITMAP
3FE0
4000
4000
4000
4000
4000
4000
4000
7F00
00C0
0020
0020
0010
0010
0020
0020
C040
3F80
ENDCHAR
STARTCHAR 0036
ENCODING 54
SWIDTH 560 0
DWIDTH 14 0
BBX 13 18 1 0
BITMAP
0180
0E70
3000
4000
4000
8000
8000
8000
8FC0
B030
A010
4008
4008
4008
4008
2010
1020
0FC0
ENDCHAR
STARTCHAR 0037
ENCODING 55
SWIDTH 560 0
DWIDTH 14 0
BBX 12 18 1 0
BITMAP
FFF0
8010
8020
8020
0040
0040
0080
0080
0080
0100
0100
0200
0200
0400
0400
0800
0800
1000
ENDCHAR
STARTCHAR 0038
ENCODING 56
SWIDTH 600 0
DWIDTH 15 0
BBX 13 18 1 0
BITMAP
0300
1CE0
6010
4010
4008
4008
4010
2010
1CE0
1320
6010
8008
8008
8008
8008
8008
2010
1FE0
ENDCHAR
STARTCHAR 0039
ENCODING 57
SWIDTH 560 0
DWIDTH 14 0
BBX 12 18 1 0
BITMAP
0400
3980
4040
8020
8010
8010
8030
8030
8050
60D0
1F10
0010
0010
0010
0020
0020
0040
3F80
ENDCHAR
STARTCHAR 003A
ENCODING 58
SWIDTH 160 0
DWIDTH 4 0
BBX 1 13 2 0
BITMAP
80
00
00
00
00
00
00
00
00
00
00
00
80
ENDCHAR
STARTCHAR 003B
ENCODING 59
SWIDTH 160 0
DWIDTH 4 0
BBX 1 16 2 -4
BITMAP
80
00
00
00
00
00
00
00
00
00
00
00
80
80
80
80
ENDCHAR
STARTCHAR 003C
ENCODING 60
SWIDTH 560 0
DWIDTH 14 0
BBX 10 9 2 4
BITMAP
00C0
0300
1C00
6000
8000
6000
1C00
0300
00C0
ENDCHAR
STARTCHAR 003D
ENCODING 61
SWIDTH 560 0
DWIDTH 14 0
BBX 10 6 2 6
BITMAP
FFC0
0000
0000
0000
0000
7F80
ENDCHAR
STARTCHAR 003E
ENCODING 62
SWIDTH 560 0
DWIDTH 14 0
BBX 10 9 2 4
BITMAP
C000
3000
0E00
0180
0040
0180
0E00
3000
C000
ENDCHAR
STARTCHAR 003F
ENCODING 63
SWIDTH 520 0
DWIDTH 13 0
BBX 12 18 0 0
BITMAP
0600
39C0
C020
0020
0010
0010
0020
0020
0040
0080
0100
0200
0200
0000
0000
0000
0000
0200
ENDCHAR
STARTCHAR 0040
ENCODING 64
SWIDTH 1000 0
DWIDTH 25 0
BBX 23 23 1 -5
BITMAP
001800
01E780
060060
180010
200008
207C04
418344
4200C2
8200C2
840042
840042
840042
840042
840042
8200C2
4200C2
410144
40E638
201800
100000
080000
060080
01FF00
ENDCHAR
STARTCHAR 0041
ENCODING 65
SWIDTH 680 0
DWIDTH 17 0
BBX 17 18 0 0
BITMAP
008000
018000
014000
014000
022000
022000
041000
041000
080800
080800
100800
100400
1FFC00
200200
400200
400100
400100
800080
ENDCHAR
STARTCHAR 0042
ENCODING 66
SWIDTH 720 0
DWIDTH 18 0
BBX 14 18 3 0
BITMAP
FF00
80E0
8010
8008
8008
8008
8008
8010
8020
BFF0
8008
8004
8004
8004
8004
8004
8008
FFF0
ENDCHAR
STARTCHAR 0043
ENCODING 67
SWIDTH 680 0
DWIDTH 17 0
BBX 15 18 1 0
BITMAP
0040
071C
1802
2000
4000
4000
8000
8000
8000
8000
8000
8000
4000
4000
2000
1000
0802
07FC
ENDCHAR
STARTCHAR 0044
ENCODING 68
SWIDTH 800 0
DWIDTH 20 0
BBX 16 18 3 0
BITMAP
FE00
81F0
8008
8004
8002
8002
8001
8001
8001
8001
8001
8001
8001
8002
8002
8004
8018
FFE0
ENDCHAR
STARTCHAR 0045
ENCODING 69
SWIDTH 640 0
DWIDTH 16 0
BBX 12 18 3 0
BITMAP
FFF0
8000
8000
8000
8000
8000
8000
8000
8000
BF80
8000
8000
8000
8000
8000
8000
8000
FFE0
ENDCHAR
STARTCHAR 0046
ENCODING 70
SWIDTH 600 0
DWIDTH 15 0
BBX 12 18 3 0
BITMAP
FFF0
8000
8000
8000
8000
8000
8000
8000
8000
FFC0
8000
8000
8000
8000
8000
8000
8000
8000
ENDCHAR
STARTCHAR 0047
ENCODING 71
SWIDTH 760 0
DWIDTH 19 0
BBX 16 18 1 0
BITMAP
0040
071C
1802
2000
4000
4000
8000
8000
8000
8001
8001
8001
4001
4001
2001
1001
0802
07FC
ENDCHAR
STARTCHAR 0048
ENCODING 72
SWIDTH 800 0
DWIDTH 20 0
BBX 14 18 3 0
BITMAP
8000
8004
8004
8004
8004
8004
8004
8004
8004
BFFC
8004
8004
8004
8004
8004
8004
8004
8004
ENDCHAR
STARTCHAR 0049
ENCODING 73
SWIDTH 280 0
DWIDTH 7 0
BBX 1 18 3 0
BITMAP
80
80
80
80
80
80
80
80
80
80
80
80
80
80
80
80
80
80
ENDCHAR
STARTCHAR 004A
ENCODING 74
SWIDTH 440 0
DWIDTH 11 0
BBX 9 18 0 0
BITMAP
3F80
0080
0080
0080
0080
0080
0080
0080
0080
0080
0080
0080
0080
0080
0080
8100
4100
3E00
ENDCHAR
STARTCHAR 004B
ENCODING 75
SWIDTH 680 0
DWIDTH 17 0
BBX 13 18 3 0
BITMAP
8000
8018
8020
8040
8080
8080
8100
8200
8400
8C00
9200
A100
C080
8040
8020
8010
8008
8008
ENDCHAR
STARTCHAR 004C
ENCODING 76
SWIDTH 560 0
DWIDTH 14 0
BBX 10 18 3 0
BITMAP
8000
8000
8000
8000
8000
8000
8000
8000
8000
8000
8000
8000
8000
8000
8000
8000
8000
FFC0
ENDCHAR
STARTCHAR 004D
ENCODING 77
SWIDTH 920 0
DWIDTH 23 0
BBX 18 18 3 0
BITMAP
800040
800040
C000C0
C00140
A00240
900240
900440
880440
880840
840840
841040
822040
812040
814040
80C040
800040
800040
800040
ENDCHAR
STARTCHAR 004E
ENCODING 78
SWIDTH 800 0
DWIDTH 20 0
BBX 14 18 3 0
BITMAP
8000
C004
C004
A004
9004
8804
8804
8404
8204
8104
8184
8084
8044
8024
8014
8014
800C
8004
ENDCHAR
STARTCHAR 004F
ENCODING 79
SWIDTH 800 0
DWIDTH 20 0
BBX 18 18 1 0
BITMAP
004000
071C00
180200
200100
400080
400040
800040
800040
800040
800040
800040
800040
400040
400080
200080
100100
080200
07FC00
ENDCHAR
STARTCHAR 0050
ENCODING 80
SWIDTH 680 0
DWIDTH 17 0
BBX 13 18 3 0
BITMAP
FC00
83E0
8010
8010
8008
8008
8008
8008
8008
8010
8020
81C0
FE00
8000
8000
8000
8000
8000
ENDCHAR
STARTCHAR 0051
ENCODING 81
SWIDTH 800 0
DWIDTH 20 0
BBX 19 21 1 -3
BITMAP
004000
071C00
180200
200100
400080
400040
800040
800040
800040
800040
800040
800040
400040
400080
200080
100100
080200
073C00
00E000
001020
000FC0
ENDCHAR
STARTCHAR 0052
ENCODING 82
SWIDTH 680 0
DWIDTH 17 0
BBX 13 18 3 0
BITMAP
FC00
83E0
8010
8010
8008
8008
8008
8008
8008
8010
8020
81C0
FE80
8040
8020
8010
8010
8008
ENDCHAR
STARTCHAR 0053
ENCODING 83
SWIDTH 600 0
DWIDTH 15 0
BBX 13 18 1 0
BITMAP
0200
1CE0
6000
4000
C000
8000
4000
2000
1800
0780
0060
0010
0010
0008
0008
0010
4020
3FC0
ENDCHAR
STARTCHAR 0054
ENCODING 84
SWIDTH 520 0
DWIDTH 13 0
BBX 14 18 0 0
BITMAP
FFFC
0200
0200
0200
0200
0200
0200
0200
0200
0200
0200
0200
0200
0200
0200
0200
0200
0200
ENDCHAR
STARTCHAR 0055
ENCODING 85
SWIDTH 760 0
DWIDTH 19 0
BBX 14 18 3 0
BITMAP
8004
8004
8004
8004
8004
8004
8004
8004
8004
8004
8004
8004
8004
8008
8008
4010
2010
1FE0
ENDCHAR
STARTCHAR 0056
ENCODING 86
SWIDTH 640 0
DWIDTH 16 0
BBX 17 18 0 0
BITMAP
800080
800100
400100
400200
200200
200400
100400
100800
100800
081000
081000
041000
042000
022000
024000
014000
018000
008000
ENDCHAR
STARTCHAR 0057
ENCODING 87
SWIDTH 1080 0
DWIDTH 27 0
BBX 25 18 1 0
BITMAP
80080080
80180080
80180100
40140100
40240100
40220200
20220200
20420400
20410400
10410400
10810800
10808800
08808800
09009000
09005000
05005000
06006000
02002000
ENDCHAR
STARTCHAR 0058
ENCODING 88
SWIDTH 600 0
DWIDTH 15 0
BBX 14 18 1 0
BITMAP
8000
C008
4010
2020
1040
1040
0880
0500
0200
0300
0500
0880
1040
1020
2020
4010
8008
8004
ENDCHAR
STARTCHAR 0059
ENCODING 89
SWIDTH 600 0
DWIDTH 15 0
BBX 15 18 0 0
BITMAP
8002
8004
4004
2008
2008
1010
0820
0820
0440
0480
0280
0100
0100
0100
0100
0100
0100
0100
ENDCHAR
STARTCHAR 005A
ENCODING 90
SWIDTH 600 0
DWIDTH 15 0
BBX 14 18 1 0
BITMAP
FFFC
0008
0008
0010
0020
0040
0080
0080
0100
0200
0400
0400
0800
1000
2000
2000
4000
FFF8
ENDCHAR
STARTCHAR 005B
ENCODING 91
SWIDTH 280 0
DWIDTH 7 0
BBX 4 24 3 -5
BITMAP
F0
80
80
80
80
80
80
80
80
80
80
80
80
80
80
80
80
80
80
80
80
80
80
F0
ENDCHAR
STARTCHAR 005C
ENCODING 92
SWIDTH 280 0
DWIDTH 7 0
BBX 9 24 -1 -3
BITMAP
8000
8000
4000
4000
4000
2000
2000
2000
1000
1000
1000
0800
0800
0C00
0400
0400
0200
0200
0200
0100
0100
0100
0080
0080
ENDCHAR
STARTCHAR 005D
ENCODING 93
SWIDTH 280 0
DWIDTH 7 0
BBX 3 24 1 -5
BITMAP
E0
20
20
20
20
20
20
20
20
20
20
20
20
20
20
20
20
20
20
20
20
20
20
E0
ENDCHAR
STARTCHAR 005E
ENCODING 94
SWIDTH 560 0
DWIDTH 14 0
BBX 9 10 2 4
BITMAP
0800
0C00
1400
1200
2200
2100
2100
4100
4080
8080
ENDCHAR
STARTCHAR 005F
ENCODING 95
SWIDTH 480 0
DWIDTH 12 0
BBX 11 1 1 -1
BITMAP
FFE0
ENDCHAR
STARTCHAR 0060
ENCODING 96
SWIDTH 600 0
DWIDTH 15 0
BBX 3 3 5 15
BITMAP
80
40
20
ENDCHAR
STARTCHAR 0061
ENCODING 97
SWIDTH 560 0
DWIDTH 14 0
BBX 10 13 2 0
BITMAP
3E00
C180
0080
0040
0040
0040
7F40
8040
8040
8040
80C0
8140
7E40
ENDCHAR
STARTCHAR 0062
ENCODING 98
SWIDTH 640 0
DWIDTH 16 0
BBX 12 18 3 1
BITMAP
8000
8000
8000
8000
8000
8F80
B040
C020
8010
8010
8010
8010
8010
8010
8010
C020
A040
9F80
ENDCHAR
STARTCHAR 0063
ENCODING 99
SWIDTH 520 0
DWIDTH 13 0
BBX 11 13 1 0
BITMAP
0F80
3060
4000
4000
8000
8000
8000
8000
8000
4000
4000
2020
1FC0
ENDCHAR
STARTCHAR 0064
ENCODING 100
SWIDTH 640 0
DWIDTH 16 0
BBX 13 19 1 0
BITMAP
0008
0008
0008
0008
0008
0008
0F88
3068
4018
4008
8008
8008
8008
8008
8008
4008
4018
2028
1FC8
ENDCHAR
STARTCHAR 0065
ENCODING 101
SWIDTH 560 0
DWIDTH 14 0
BBX 12 13 1 0
BITMAP
0F80
3040
4020
8010
8010
8010
FFF0
8000
8000
4000
4000
2020
1FC0
ENDCHAR
STARTCHAR 0066
ENCODING 102
SWIDTH 280 0
DWIDTH 7 0
BBX 8 19 1 0
BITMAP
0C
33
20
20
20
20
FE
20
20
20
20
20
20
20
20
20
20
20
20
ENDCHAR
STARTCHAR 0067
ENCODING 103
SWIDTH 640 0
DWIDTH 16 0
BBX 13 18 1 -5
BITMAP
0F80
3068
4018
8018
8008
8008
8008
8008
8008
4018
2038
1048
0E88
0008
0008
0010
2010
1FE0
ENDCHAR
STARTCHAR 0068
ENCODING 104
SWIDTH 640 0
DWIDTH 16 0
BBX 11 18 3 1
BITMAP
8000
8000
8000
8000
8000
9F00
E0C0
8040
8020
8020
8020
8020
8020
8020
8020
8020
8020
8020
ENDCHAR
STARTCHAR 0069
ENCODING 105
SWIDTH 240 0
DWIDTH 6 0
BBX 2 18 2 0
BITMAP
40
00
00
00
00
00
80
80
80
80
80
80
80
80
80
80
80
80
ENDCHAR
STARTCHAR 006A
ENCODING 106
SWIDTH 240 0
DWIDTH 6 0
BBX 6 23 -2 -5
BITMAP
04
00
00
00
00
04
04
04
04
04
04
04
04
04
04
04
04
04
04
04
08
08
F0
ENDCHAR
STARTCHAR 006B
ENCODING 107
SWIDTH 560 0
DWIDTH 14 0
BBX 10 18 3 1
BITMAP
8000
8000
8000
8000
8000
8040
8080
8100
8600
8800
8800
B400
C400
8200
8100
8080
8040
8040
ENDCHAR
STARTCHAR 006C
ENCODING 108
SWIDTH 240 0
DWIDTH 6 0
BBX 1 18 3 1
BITMAP
80
80
80
80
80
80
80
80
80
80
80
80
80
80
80
80
80
80
ENDCHAR
STARTCHAR 006D
ENCODING 109
SWIDTH 1040 0
DWIDTH 26 0
BBX 21 13 3 0
BITMAP
1F07C0
E08830
805010
806008
802008
802008
802008
802008
802008
802008
802008
802008
802008
ENDCHAR
STARTCHAR 006E
ENCODING 110
SWIDTH 640 0
DWIDTH 16 0
BBX 11 13 3 0
BITMAP
1F00
E0C0
8040
8020
8020
8020
8020
8020
8020
8020
8020
8020
8020
ENDCHAR
STARTCHAR 006F
ENCODING 111
SWIDTH 600 0
DWIDTH 15 0
BBX 13 13 1 0
BITMAP
0F80
3060
4010
4010
8008
8008
8008
8008
8008
4010
4010
2020
1FC0
ENDCHAR
STARTCHAR 0070
ENCODING 112
SWIDTH 640 0
DWIDTH 16 0
BBX 12 17 3 -5
BITMAP
0F80
B040
C020
8010
8010
8010
8010
8010
8010
8010
C020
A040
9980
8600
8000
8000
8000
ENDCHAR
STARTCHAR 0071
ENCODING 113
SWIDTH 640 0
DWIDTH 16 0
BBX 13 18 1 -5
BITMAP
0F88
3068
4018
4008
8008
8008
8008
8008
8008
4008
4018
2028
1DC8
0208
0008
0008
0008
0008
ENDCHAR
STARTCHAR 0072
ENCODING 114
SWIDTH 360 0
DWIDTH 9 0
BBX 5 13 3 0
BITMAP
18
E0
80
80
80
80
80
80
80
80
80
80
80
ENDCHAR
STARTCHAR 0073
ENCODING 115
SWIDTH 440 0
DWIDTH 11 0
BBX 10 13 1 0
BITMAP
3F00
4080
8000
8000
8000
4000
3C00
0380
0080
0040
0040
8080
7F00
ENDCHAR
STARTCHAR 0074
ENCODING 116
SWIDTH 360 0
DWIDTH 9 0
BBX 7 16 1 0
BITMAP
20
20
20
FE
20
20
20
20
20
20
20
20
20
20
20
1E
ENDCHAR
STARTCHAR 0075
ENCODING 117
SWIDTH 640 0
DWIDTH 16 0
BBX 11 13 3 0
BITMAP
0020
8020
8020
8020
8020
8020
8020
8020
8020
8020
8060
40A0
3F20
ENDCHAR
STARTCHAR 0076
ENCODING 118
SWIDTH 480 0
DWIDTH 12 0
BBX 12 13 0 0
BITMAP
8000
8010
4020
4020
2020
2040
1040
1080
0880
0900
0900
0600
0200
ENDCHAR
STARTCHAR 0077
ENCODING 119
SWIDTH 800 0
DWIDTH 20 0
BBX 21 13 0 0
BITMAP
802008
806010
405010
409020
409020
208820
210840
110440
120480
120480
0A0280
0C0300
040100
ENDCHAR
STARTCHAR 0078
ENCODING 120
SWIDTH 480 0
DWIDTH 12 0
BBX 10 13 1 0
BITMAP
8040
4080
2100
2100
1200
0C00
0400
0C00
1200
2100
4080
4040
8040
ENDCHAR
STARTCHAR 0079
ENCODING 121
SWIDTH 480 0
DWIDTH 12 0
BBX 13 18 -1 -5
BITMAP
4000
4008
2010
2010
1010
1020
0820
0840
0440
0480
0480
0300
0100
0200
0200
0400
8400
7800
ENDCHAR
STARTCHAR 007A
ENCODING 122
SWIDTH 480 0
DWIDTH 12 0
BBX 10 13 1 0
BITMAP
FFC0
0080
0100
0100
0200
0400
0800
0800
1000
2000
4000
4000
FF80
ENDCHAR
STARTCHAR 007B
ENCODING 123
SWIDTH 280 0
DWIDTH 7 0
BBX 4 24 3 -5
BITMAP
10
60
80
80
80
80
80
80
80
80
80
80
80
80
80
80
80
80
80
80
80
80
80
70
ENDCHAR
STARTCHAR 007C
ENCODING 124
SWIDTH 280 0
DWIDTH 7 0
BBX 1 24 3 -5
BITMAP
80
80
80
80
80
80
80
80
80
80
80
80
80
80
80
80
80
80
80
80
80
80
80
80
ENDCHAR
STARTCHAR 007D
ENCODING 125
SWIDTH 280 0
DWIDTH 7 0
BBX 4 24 1 -5
BITMAP
80
60
20
20
20
20
20
20
20
20
20
20
10
20
20
20
20
20
20
20
20
20
20
C0
ENDCHAR
STARTCHAR 007E
ENCODING 126
SWIDTH 560 0
DWIDTH 14 0
BBX 10 3 2 7
BITMAP
F800
8440
0380
ENDCHAR
STARTCHAR 00A0
ENCODING 160
SWIDTH 240 0
DWIDTH 6 0
BBX 0 0 0 0
BITMAP
ENDCHAR
STARTCHAR 00A1
ENCODING 161
SWIDTH 240 0
DWIDTH 6 0
BBX 2 16 2 -4
BITMAP
C0
00
00
00
00
00
80
80
80
80
80
80
80
80
80
80
ENDCHAR
STARTCHAR 00A2
ENCODING 162
SWIDTH 520 0
DWIDTH 13 0
BBX 11 19 1 -3
BITMAP
0200
0200
0200
0F80
3260
4200
4200
8200
8200
8200
8200
8200
4200
4200
2220
1EC0
0300
0200
0200
ENDCHAR
STARTCHAR 00A3
ENCODING 163
SWIDTH 600 0
DWIDTH 15 0
BBX 13 18 2 0
BITMAP
0100
0E70
3008
2000
4000
4000
4000
4000
4000
FF80
4000
4000
4000
4000
4000
4000
4000
FFF0
ENDCHAR
STARTCHAR 00A4
ENCODING 164
SWIDTH 680 0
DWIDTH 17 0
BBX 16 16 1 0
BITMAP
8000
43C2
2C34
3008
4004
4004
8002
8002
8002
8002
4004
4004
2008
3814
43E2
8001
ENDCHAR
STARTCHAR 00A5
ENCODING 165
SWIDTH 640 0
DWIDTH 16 0
BBX 17 18 0 0
BITMAP
800080
400100
400200
200400
100800
080800
041000
042000
024000
014000
3FFE00
008000
008000
008000
1FFC00
008000
008000
008000
ENDCHAR
STARTCHAR 00A6
ENCODING 166
SWIDTH 280 0
DWIDTH 7 0
BBX 1 24 3 -5
BITMAP
80
80
80
80
80
80
80
80
80
00
00
00
00
00
00
80
80
80
80
80
80
80
80
80
ENDCHAR
STARTCHAR 00A7
ENCODING 167
SWIDTH 440 0
DWIDTH 11 0
BBX 10 21 1 -3
BITMAP
0C00
31C0
4000
8000
8000
4000
2000
5E00
8180
8080
8040
8040
4080
3900
0700
0080
0080
0080
0080
C100
2A00
ENDCHAR
STARTCHAR 00A8
ENCODING 168
SWIDTH 600 0
DWIDTH 15 0
BBX 5 1 5 16
BITMAP
88
ENDCHAR
STARTCHAR 00A9
ENCODING 169
SWIDTH 800 0
DWIDTH 20 0
BBX 18 18 1 0
BITMAP
00E000
071C00
180200
200100
41F080
460880
840040
880040
880040
880040
880040
880040
440040
420880
21F100
100100
080600
07F000
ENDCHAR
STARTCHAR 00AA
ENCODING 170
SWIDTH 360 0
DWIDTH 9 0
BBX 7 8 1 11
BITMAP
10
E4
02
02
7E
82
82
7E
ENDCHAR
STARTCHAR 00AB
ENCODING 171
SWIDTH 400 0
DWIDTH 10 0
BBX 8 9 1 2
BITMAP
11
22
24
44
88
44
24
22
11
ENDCHAR
STARTCHAR 00AC
ENCODING 172
SWIDTH 560 0
DWIDTH 14 0
BBX 10 5 2 4
BITMAP
FFC0
0040
0040
0040
0040
ENDCHAR
STARTCHAR 00AD
ENCODING 173
SWIDTH 360 0
DWIDTH 9 0
BBX 6 1 2 6
BITMAP
FC
ENDCHAR
STARTCHAR 00AE
ENCODING 174
SWIDTH 800 0
DWIDTH 20 0
BBX 18 18 1 0
BITMAP
00E000
071C00
180200
200100
43F080
420880
820440
820440
820840
820840
83F040
821040
421040
420880
200100
100100
080600
07F000
ENDCHAR
STARTCHAR 00AF
ENCODING 175
SWIDTH 600 0
DWIDTH 15 0
BBX 7 1 4 16
BITMAP
FE
ENDCHAR
STARTCHAR 00B0
ENCODING 176
SWIDTH 400 0
DWIDTH 10 0
BBX 8 8 1 10
BITMAP
18
66
81
81
81
81
42
3C
ENDCHAR
STARTCHAR 00B1
ENCODING 177
SWIDTH 560 0
DWIDTH 14 0
BBX 10 13 2 1
BITMAP
0800
0800
0800
0800
FFC0
0800
0800
0800
0800
0000
0000
0000
7F80
ENDCHAR
STARTCHAR 00B2
ENCODING 178
SWIDTH 400 0
DWIDTH 10 0
BBX 8 11 1 8
BITMAP
18
E6
01
01
02
04
08
10
20
40
FF
ENDCHAR
STARTCHAR 00B3
ENCODING 179
SWIDTH 400 0
DWIDTH 10 0
BBX 8 11 1 8
BITMAP
FF
02
04
08
10
0C
03
01
01
81
7E
ENDCHAR
STARTCHAR 00B4
ENCODING 180
SWIDTH 600 0
DWIDTH 15 0
BBX 3 3 7 15
BITMAP
20
40
80
ENDCHAR
STARTCHAR 00B5
ENCODING 181
SWIDTH 640 0
DWIDTH 16 0
BBX 11 17 3 -5
BITMAP
0020
8020
8020
8020
8020
8020
8020
8020
8020
8020
8060
C0A0
BB20
8400
8000
8000
8000
ENDCHAR
STARTCHAR 00B6
ENCODING 182
SWIDTH 600 0
DWIDTH 15 0
BBX 11 22 1 -3
BITMAP
0FE0
7820
F820
F820
F820
F820
F820
7820
0820
0820
0820
0820
0820
0820
0820
0820
0820
0820
0820
0820
0820
0020
ENDCHAR
STARTCHAR 00B7
ENCODING 183
SWIDTH 200 0
DWIDTH 5 0
BBX 1 1 2 6
BITMAP
80
ENDCHAR
STARTCHAR 00B8
ENCODING 184
SWIDTH 600 0
DWIDTH 15 0
BBX 4 5 5 -5
BITMAP
20
20
10
10
F0
ENDCHAR
STARTCHAR 00B9
ENCODING 185
SWIDTH 400 0
DWIDTH 10 0
BBX 7 11 2 8
BITMAP
F0
10
10
10
10
10
10
10
10
10
FE
ENDCHAR
STARTCHAR 00BA
ENCODING 186
SWIDTH 400 0
DWIDTH 10 0
BBX 8 8 1 11
BITMAP
18
66
81
81
81
81
81
7E
ENDCHAR
STARTCHAR 00BB
ENCODING 187
SWIDTH 400 0
DWIDTH 10 0
BBX 8 9 1 2
BITMAP
88
44
22
12
11
12
22
44
88
ENDCHAR
STARTCHAR 00BC
ENCODING 188
SWIDTH 1000 0
DWIDTH 25 0
BBX 22 18 2 0
BITMAP
F00080
100100
100100
100200
100400
100400
100800
101000
101020
102040
FE4080
004080
008100
010210
020410
0203FC
040010
080000
ENDCHAR
STARTCHAR 00BD
ENCODING 189
SWIDTH 1000 0
DWIDTH 25 0
BBX 21 18 2 0
BITMAP
F00080
100100
100100
100200
100400
100400
100800
101000
1013F8
102008
FE4008
004008
008010
010020
020040
020080
040100
0803F8
ENDCHAR
STARTCHAR 00BE
ENCODING 190
SWIDTH 1000 0
DWIDTH 25 0
BBX 23 18 1 0
BITMAP
FF0040
020080
040080
080100
100200
1C0200
030400
010800
010810
811020
7E2040
002040
004080
008108
010208
0101FE
020008
040000
ENDCHAR
STARTCHAR 00BF
ENCODING 191
SWIDTH 520 0
DWIDTH 13 0
BBX 11 17 2 -4
BITMAP
0400
0000
0000
0000
0000
0400
0800
0800
1000
2000
4000
8000
8000
8000
8000
4060
3F00
ENDCHAR
STARTCHAR 00C0
ENCODING 192
SWIDTH 680 0
DWIDTH 17 0
BBX 17 22 0 0
BITMAP
040000
030000
008000
000000
008000
018000
014000
014000
022000
022000
041000
041000
080800
080800
100800
100400
1FFC00
200200
400200
400100
400100
800080
ENDCHAR
STARTCHAR 00C1
ENCODING 193
SWIDTH 680 0
DWIDTH 17 0
BBX 17 22 0 0
BITMAP
001000
006000
008000
000000
008000
018000
014000
014000
022000
022000
041000
041000
080800
080800
100800
100400
1FFC00
200200
400200
400100
400100
800080
ENDCHAR
STARTCHAR 00C2
ENCODING 194
SWIDTH 680 0
DWIDTH 17 0
BBX 17 22 0 0
BITMAP
008000
014000
022000
001000
008000
018000
014000
014000
022000
022000
041000
041000
080800
080800
100800
100400
1FFC00
200200
400200
400100
400100
800080
ENDCHAR
STARTCHAR 00C3
ENCODING 195
SWIDTH 680 0
DWIDTH 17 0
BBX 17 21 0 0
BITMAP
079000
046000
000000
008000
018000
014000
014000
022000
022000
041000
041000
080800
080800
100800
100400
1FFC00
200200
400200
400100
400100
800080
ENDCHAR
STARTCHAR 00C4
ENCODING 196
SWIDTH 680 0
DWIDTH 17 0
BBX 17 21 0 0
BITMAP
022000
000000
000000
008000
018000
014000
014000
022000
022000
041000
041000
080800
080800
100800
100400
1FFC00
200200
400200
400100
400100
800080
ENDCHAR
STARTCHAR 00C5
ENCODING 197
SWIDTH 680 0
DWIDTH 17 0
BBX 17 24 0 0
BITMAP
01C000
022000
022000
024000
018000
000000
008000
018000
014000
014000
022000
022000
041000
041000
080800
080800
100800
100400
1FFC00
200200
400200
400100
400100
800080
ENDCHAR
STARTCHAR 00C6
ENCODING 198
SWIDTH 1000 0
DWIDTH 25 0
BBX 23 18 0 0
BITMAP
001FFE
003000
003000
005000
009000
009000
011000
021000
021000
0417F8
041000
081000
0FF000
101000
201000
401000
401000
801FFC
ENDCHAR
STARTCHAR 00C7
ENCODING 199
SWIDTH 680 0
DWIDTH 17 0
BBX 15 23 1 -5
BITMAP
0040
071C
1802
2000
4000
4000
8000
8000
8000
8000
8000
8000
4000
4000
2000
1000
0802
073C
00C0
00C0
0020
0020
01E0
ENDCHAR
STARTCHAR 00C8
ENCODING 200
SWIDTH 640 0
DWIDTH 16 0
BBX 12 22 3 0
BITMAP
1000
0800
0400
0000
FFF0
8000
8000
8000
8000
8000
8000
8000
8000
BF80
8000
8000
8000
8000
8000
8000
8000
FFE0
ENDCHAR
STARTCHAR 00C9
ENCODING 201
SWIDTH 640 0
DWIDTH 16 0
BBX 12 22 3 0
BITMAP
0080
0100
0600
0000
FFF0
8000
8000
8000
8000
8000
8000
8000
8000
BF80
8000
8000
8000
8000
8000
8000
8000
FFE0
ENDCHAR
STARTCHAR 00CA
ENCODING 202
SWIDTH 640 0
DWIDTH 16 0
BBX 12 22 3 0
BITMAP
0600
0900
1080
0000
FFF0
8000
8000
8000
8000
8000
8000
8000
8000
BF80
8000
8000
8000
8000
8000
8000
8000
FFE0
ENDCHAR
STARTCHAR 00CB
ENCODING 203
SWIDTH 640 0
DWIDTH 16 0
BBX 12 21 3 0
BITMAP
1980
0000
0000
FFF0
8000
8000
8000
8000
8000
8000
8000
8000
BF80
8000
8000
8000
8000
8000
8000
8000
FFE0
ENDCHAR
STARTCHAR 00CC
ENCODING 204
SWIDTH 280 0
DWIDTH 7 0
BBX 4 22 0 0
BITMAP
80
60
10
00
10
10
10
10
10
10
10
10
10
10
10
10
10
10
10
10
10
10
ENDCHAR
STARTCHAR 00CD
ENCODING 205
SWIDTH 280 0
DWIDTH 7 0
BBX 4 22 3 0
BITMAP
10
60
80
00
80
80
80
80
80
80
80
80
80
80
80
80
80
80
80
80
80
80
ENDCHAR
STARTCHAR 00CE
ENCODING 206
SWIDTH 280 0
DWIDTH 7 0
BBX 6 22 0 0
BITMAP
10
28
C4
00
10
10
10
10
10
10
10
10
10
10
10
10
10
10
10
10
10
10
ENDCHAR
STARTCHAR 00CF
ENCODING 207
SWIDTH 280 0
DWIDTH 7 0
BBX 5 21 1 0
BITMAP
88
00
00
20
20
20
20
20
20
20
20
20
20
20
20
20
20
20
20
20
20
ENDCHAR
STARTCHAR 00D0
ENCODING 208
SWIDTH 800 0
DWIDTH 20 0
BBX 18 18 1 0
BITMAP
3F8000
207C00
200200
200100
200080
200080
200040
200040
200040
FF0040
200040
200040
200040
200080
200080
200100
200600
3FF800
ENDCHAR
STARTCHAR 00D1
ENCODING 209
SWIDTH 800 0
DWIDTH 20 0
BBX 14 21 3 0
BITMAP
0E40
01C0
0000
8000
C004
C004
A004
9004
8804
8804
8404
8204
8104
8184
8084
8044
8024
8014
8014
800C
8004
ENDCHAR
STARTCHAR 00D2
ENCODING 210
SWIDTH 800 0
DWIDTH 20 0
BBX 18 22 1 0
BITMAP
020000
018000
004000
000000
004000
071C00
180200
200100
400080
400040
800040
800040
800040
800040
800040
800040
400040
400080
200080
100100
080200
07FC00
ENDCHAR
STARTCHAR 00D3
ENCODING 211
SWIDTH 800 0
DWIDTH 20 0
BBX 18 22 1 0
BITMAP
000800
003000
004000
000000
004000
071C00
180200
200100
400080
400040
800040
800040
800040
800040
800040
800040
400040
400080
200080
100100
080200
07FC00
ENDCHAR
STARTCHAR 00D4
ENCODING 212
SWIDTH 800 0
DWIDTH 20 0
BBX 18 22 1 0
BITMAP
004000
00A000
031000
000000
004000
071C00
180200
200100
400080
400040
800040
800040
800040
800040
800040
800040
400040
400080
200080
100100
080200
07FC00
ENDCHAR
STARTCHAR 00D5
ENCODING 213
SWIDTH 800 0
DWIDTH 20 0
BBX 18 21 1 0
BITMAP
03C800
023000
000000
004000
071C00
180200
200100
400080
400040
800040
800040
800040
800040
800040
800040
400040
400080
200080
100100
080200
07FC00
ENDCHAR
STARTCHAR 00D6
ENCODING 214
SWIDTH 800 0
DWIDTH 20 0
BBX 18 21 1 0
BITMAP
011000
000000
000000
004000
071C00
180200
200100
400080
400040
800040
800040
800040
800040
800040
800040
400040
400080
200080
100100
080200
07FC00
ENDCHAR
STARTCHAR 00D7
ENCODING 215
SWIDTH 560 0
DWIDTH 14 0
BBX 8 8 3 5
BITMAP
81
42
24
18
18
24
42
81
ENDCHAR
STARTCHAR 00D8
ENCODING 216
SWIDTH 800 0
DWIDTH 20 0
BBX 18 20 1 -2
BITMAP
000080
004100
071E00
180200
200500
400880
401040
801040
802040
804040
804040
808040
810040
420040
420080
240080
180100
080200
173C00
20C000
ENDCHAR
STARTCHAR 00D9
ENCODING 217
SWIDTH 760 0
DWIDTH 19 0
BBX 14 22 3 0
BITMAP
0800
0400
0200
0000
8004
8004
8004
8004
8004
8004
8004
8004
8004
8004
8004
8004
8004
8008
8008
4010
2010
1FE0
ENDCHAR
STARTCHAR 00DA
ENCODING 218
SWIDTH 760 0
DWIDTH 19 0
BBX 14 22 3 0
BITMAP
0040
0080
0300
0000
8004
8004
8004
8004
8004
8004
8004
8004
8004
8004
8004
8004
8004
8008
8008
4010
2010
1FE0
ENDCHAR
STARTCHAR 00DB
ENCODING 219
SWIDTH 760 0
DWIDTH 19 0
BBX 14 22 3 0
BITMAP
0300
0480
0840
0000
8004
8004
8004
8004
8004
8004
8004
8004
8004
8004
8004
8004
8004
8008
8008
4010
2010
1FE0
ENDCHAR
STARTCHAR 00DC
ENCODING 220
SWIDTH 760 0
DWIDTH 19 0
BBX 14 21 3 0
BITMAP
08C0
0000
0000
8004
8004
8004
8004
8004
8004
8004
8004
8004
8004
8004
8004
8004
8008
8008
4010
2010
1FE0
ENDCHAR
STARTCHAR 00DD
ENCODING 221
SWIDTH 600 0
DWIDTH 15 0
BBX 15 22 0 0
BITMAP
0020
00C0
0100
0000
8002
8004
4004
2008
2008
1010
0820
0820
0440
0480
0280
0100
0100
0100
0100
0100
0100
0100
ENDCHAR
STARTCHAR 00DE
ENCODING 222
SWIDTH 680 0
DWIDTH 17 0
BBX 13 18 3 0
BITMAP
8000
8000
8000
BF80
8060
8010
8008
8008
8008
8008
8008
8008
8010
8020
FFC0
8000
8000
8000
ENDCHAR
STARTCHAR 00DF
ENCODING 223
SWIDTH 640 0
DWIDTH 16 0
BBX 12 19 3 0
BITMAP
0E00
3180
8040
8040
8020
8040
8040
8040
8080
8700
80C0
8020
8010
8010
8010
8010
8020
8020
8FC0
ENDCHAR
STARTCHAR 00E0
ENCODING 224
SWIDTH 560 0
DWIDTH 14 0
BBX 10 18 2 0
BITMAP
2000
1000
0C00
0000
0000
3E00
C180
0080
0040
0040
0040
7F40
8040
8040
8040
80C0
8140
7E40
ENDCHAR
STARTCHAR 00E1
ENCODING 225
SWIDTH 560 0
DWIDTH 14 0
BBX 10 18 2 0
BITMAP
0100
0600
0800
0000
0000
3E00
C180
0080
0040
0040
0040
7F40
8040
8040
8040
80C0
8140
7E40
ENDCHAR
STARTCHAR 00E2
ENCODING 226
SWIDTH 560 0
DWIDTH 14 0
BBX 10 18 2 0
BITMAP
0C00
1200
2100
0000
0000
3E00
C180
0080
0040
0040
0040
7F40
8040
8040
8040
80C0
8140
7E40
ENDCHAR
STARTCHAR 00E3
ENCODING 227
SWIDTH 560 0
DWIDTH 14 0
BBX 10 18 2 0
BITMAP
3000
4900
0600
0000
0000
3E00
C180
0080
0040
0040
0040
7F40
8040
8040
8040
80C0
8140
7E40
ENDCHAR
STARTCHAR 00E4
ENCODING 228
SWIDTH 560 0
DWIDTH 14 0
BBX 10 17 2 0
BITMAP
2200
0000
0000
0000
3E00
C180
0080
0040
0040
0040
7F40
8040
8040
8040
80C0
8140
7E40
ENDCHAR
STARTCHAR 00E5
ENCODING 229
SWIDTH 560 0
DWIDTH 14 0
BBX 10 19 2 1
BITMAP
1E00
2200
2200
1400
0800
0000
3E00
C180
0080
0040
0040
0040
7F40
8040
8040
8040
80C0
8140
7E40
ENDCHAR
STARTCHAR 00E6
ENCODING 230
SWIDTH 960 0
DWIDTH 24 0
BBX 21 13 2 0
BITMAP
3F07C0
C09820
00A010
004008
004008
004000
7F5FF8
804000
804000
80C000
80A000
811010
7E0FE0
ENDCHAR
STARTCHAR 00E7
ENCODING 231
SWIDTH 520 0
DWIDTH 13 0
BBX 11 18 1 -5
BITMAP
0F80
3060
4000
4000
8000
8000
8000
8000
8000
4000
4000
2020
1CC0
0300
0200
0100
0100
0F00
ENDCHAR
STARTCHAR 00E8
ENCODING 232
SWIDTH 560 0
DWIDTH 14 0
BBX 12 18 1 0
BITMAP
0800
0400
0200
0000
0000
0F80
3040
4020
8010
8010
8010
FFF0
8000
8000
4000
4000
2020
1FC0
ENDCHAR
STARTCHAR 00E9
ENCODING 233
SWIDTH 560 0
DWIDTH 14 0
BBX 12 18 1 0
BITMAP
0080
0100
0200
0000
0000
0F80
3040
4020
8010
8010
8010
FFF0
8000
8000
4000
4000
2020
1FC0
ENDCHAR
STARTCHAR 00EA
ENCODING 234
SWIDTH 560 0
DWIDTH 14 0
BBX 12 18 1 0
BITMAP
0600
0900
1080
0000
0000
0F80
3040
4020
8010
8010
8010
FFF0
8000
8000
4000
4000
2020
1FC0
ENDCHAR
STARTCHAR 00EB
ENCODING 235
SWIDTH 560 0
DWIDTH 14 0
BBX 12 17 1 0
BITMAP
0880
0000
0000
0000
0F80
3040
4020
8010
8010
8010
FFF0
8000
8000
4000
4000
2020
1FC0
ENDCHAR
STARTCHAR 00EC
ENCODING 236
SWIDTH 240 0
DWIDTH 6 0
BBX 4 18 0 0
BITMAP
80
60
10
00
00
00
20
20
20
20
20
20
20
20
20
20
20
20
ENDCHAR
STARTCHAR 00ED
ENCODING 237
SWIDTH 240 0
DWIDTH 6 0
BBX 4 18 2 0
BITMAP
10
20
C0
00
00
00
80
80
80
80
80
80
80
80
80
80
80
80
ENDCHAR
STARTCHAR 00EE
ENCODING 238
SWIDTH 240 0
DWIDTH 6 0
BBX 5 18 1 0
BITMAP
60
90
08
00
00
00
40
40
40
40
40
40
40
40
40
40
40
40
ENDCHAR
STARTCHAR 00EF
ENCODING 239
SWIDTH 240 0
DWIDTH 6 0
BBX 4 17 1 0
BITMAP
90
00
00
00
00
40
40
40
40
40
40
40
40
40
40
40
40
ENDCHAR
STARTCHAR 00F0
ENCODING 240
SWIDTH 600 0
DWIDTH 15 0
BBX 13 18 1 0
BITMAP
0C10
11E0
0120
0610
3810
0008
0008
0F08
30C8
4028
8018
8008
8008
8010
8010
4020
2020
1FC0
ENDCHAR
STARTCHAR 00F1
ENCODING 241
SWIDTH 640 0
DWIDTH 16 0
BBX 11 18 3 0
BITMAP
1080
2480
0300
0000
0000
1F00
E0C0
8040
8020
8020
8020
8020
8020
8020
8020
8020
8020
8020
ENDCHAR
STARTCHAR 00F2
ENCODING 242
SWIDTH 600 0
DWIDTH 15 0
BBX 13 18 1 0
BITMAP
0800
0400
0200
0000
0000
0F80
3060
4010
4010
8008
8008
8008
8008
8008
4010
4010
2020
1FC0
ENDCHAR
STARTCHAR 00F3
ENCODING 243
SWIDTH 600 0
DWIDTH 15 0
BBX 13 18 1 0
BITMAP
0080
0100
0200
0000
0000
0F80
3060
4010
4010
8008
8008
8008
8008
8008
4010
4010
2020
1FC0
ENDCHAR
STARTCHAR 00F4
ENCODING 244
SWIDTH 600 0
DWIDTH 15 0
BBX 13 18 1 0
BITMAP
0300
0C80
0040
0000
0000
0F80
3060
4010
4010
8008
8008
8008
8008
8008
4010
4010
2020
1FC0
ENDCHAR
STARTCHAR 00F5
ENCODING 245
SWIDTH 600 0
DWIDTH 15 0
BBX 13 18 1 0
BITMAP
0C00
1240
0180
0000
0000
0F80
3060
4010
4010
8008
8008
8008
8008
8008
4010
4010
2020
1FC0
ENDCHAR
STARTCHAR 00F6
ENCODING 246
SWIDTH 600 0
DWIDTH 15 0
BBX 13 17 1 0
BITMAP
0880
0000
0000
0000
0F80
3060
4010
4010
8008
8008
8008
8008
8008
4010
4010
2020
1FC0
ENDCHAR
STARTCHAR 00F7
ENCODING 247
SWIDTH 560 0
DWIDTH 14 0
BBX 10 10 2 4
BITMAP
0C00
0000
0000
0000
0000
FFC0
0000
0000
0000
0C00
ENDCHAR
STARTCHAR 00F8
ENCODING 248
SWIDTH 600 0
DWIDTH 15 0
BBX 13 16 1 -1
BITMAP
0010
0FA0
3060
4050
4090
8108
8108
8208
8408
8408
4810
5010
3020
2DC0
4200
4000
ENDCHAR
STARTCHAR 00F9
ENCODING 249
SWIDTH 640 0
DWIDTH 16 0
BBX 11 18 3 0
BITMAP
2000
1800
0400
0000
0000
0020
8020
8020
8020
8020
8020
8020
8020
8020
8020
8060
40A0
3F20
ENDCHAR
STARTCHAR 00FA
ENCODING 250
SWIDTH 640 0
DWIDTH 16 0
BBX 11 18 3 0
BITMAP
0100
0200
0400
0000
0000
0020
8020
8020
8020
8020
8020
8020
8020
8020
8020
8060
40A0
3F20
ENDCHAR
STARTCHAR 00FB
ENCODING 251
SWIDTH 640 0
DWIDTH 16 0
BBX 11 18 3 0
BITMAP
0C00
1200
2100
0000
0000
0020
8020
8020
8020
8020
8020
8020
8020
8020
8020
8060
40A0
3F20
ENDCHAR
STARTCHAR 00FC
ENCODING 252
SWIDTH 640 0
DWIDTH 16 0
BBX 11 17 3 0
BITMAP
1100
0000
0000
0000
0020
8020
8020
8020
8020
8020
8020
8020
8020
8020
8060
40A0
3F20
ENDCHAR
STARTCHAR 00FD
ENCODING 253
SWIDTH 480 0
DWIDTH 12 0
BBX 13 23 -1 -5
BITMAP
0040
0180
0200
0000
0000
4000
4008
2010
2010
1010
1020
0820
0840
0440
0480
0480
0300
0100
0200
0200
0400
8400
7800
ENDCHAR
STARTCHAR 00FE
ENCODING 254
SWIDTH 640 0
DWIDTH 16 0
BBX 12 22 3 -4
BITMAP
8000
8000
8000
8000
8000
8F80
B040
C020
8010
8010
8010
8010
8010
8010
8010
C020
A040
9980
8600
8000
8000
8000
ENDCHAR
STARTCHAR 00FF
ENCODING 255
SWIDTH 480 0
DWIDTH 12 0
BBX 13 22 -1 -5
BITMAP
0CC0
0000
0000
0000
4000
4008
2010
2010
1010
1020
0820
0840
0440
0480
0480
0300
0100
0200
0200
0400
8400
7800
ENDCHAR
STARTCHAR 0100
ENCODING 256
SWIDTH 680 0
DWIDTH 17 0
BBX 17 21 0 0
BITMAP
07F000
000000
000000
008000
018000
014000
014000
022000
022000
041000
041000
080800
080800
100800
100400
1FFC00
200200
400200
400100
400100
800080
ENDCHAR
STARTCHAR 0101
ENCODING 257
SWIDTH 560 0
DWIDTH 14 0
BBX 10 17 2 0
BITMAP
7F00
0000
0000
0000
3E00
C180
0080
0040
0040
0040
7F40
8040
8040
8040
80C0
8140
7E40
ENDCHAR
STARTCHAR 0102
ENCODING 258
SWIDTH 680 0
DWIDTH 17 0
BBX 17 22 0 0
BITMAP
041000
041000
032000
00C000
008000
018000
014000
014000
022000
022000
041000
041000
080800
080800
100800
100400
1FFC00
200200
400200
400100
400100
800080
ENDCHAR
STARTCHAR 0103
ENCODING 259
SWIDTH 560 0
DWIDTH 14 0
BBX 10 17 2 1
BITMAP
2100
1E00
0000
0000
3E00
C180
0080
0040
0040
0040
7F40
8040
8040
8040
80C0
8140
7E40
ENDCHAR
STARTCHAR 0104
ENCODING 260
SWIDTH 680 0
DWIDTH 17 0
BBX 17 23 0 -5
BITMAP
008000
018000
014000
014000
022000
022000
041000
041000
080800
080800
100800
100400
1FFC00
200200
400200
400100
400100
800080
000100
000200
000400
000400
000780
ENDCHAR
STARTCHAR 0105
ENCODING 261
SWIDTH 560 0
DWIDTH 14 0
BBX 10 18 2 -5
BITMAP
3E00
C180
0080
0040
0040
0040
7F40
8040
8040
8040
80C0
8140
6640
1880
0300
0200
0400
03C0
ENDCHAR
STARTCHAR 0106
ENCODING 262
SWIDTH 680 0
DWIDTH 17 0
BBX 15 22 1 0
BITMAP
0010
0020
0040
0000
0040
071C
1802
2000
4000
4000
8000
8000
8000
8000
8000
8000
4000
4000
2000
1000
0802
07FC
ENDCHAR
STARTCHAR 0107
ENCODING 263
SWIDTH 520 0
DWIDTH 13 0
BBX 11 18 1 0
BITMAP
0080
0100
0200
0000
0000
0F80
3060
4000
4000
8000
8000
8000
8000
8000
4000
4000
2020
1FC0
ENDCHAR
STARTCHAR 0108
ENCODING 264
SWIDTH 680 0
DWIDTH 17 0
BBX 15 22 1 0
BITMAP
0040
01A0
0210
0000
0040
071C
1802
2000
4000
4000
8000
8000
8000
8000
8000
8000
4000
4000
2000
1000
0802
07FC
ENDCHAR
STARTCHAR 0109
ENCODING 265
SWIDTH 520 0
DWIDTH 13 0
BBX 11 18 1 0
BITMAP
0600
0900
1080
0000
0000
0F80
3060
4000
4000
8000
8000
8000
8000
8000
4000
4000
2020
1FC0
ENDCHAR
STARTCHAR 010A
ENCODING 266
SWIDTH 680 0
DWIDTH 17 0
BBX 15 21 1 0
BITMAP
0040
0000
0000
0040
071C
1802
2000
4000
4000
8000
8000
8000
8000
8000
8000
4000
4000
2000
1000
0802
07FC
ENDCHAR
STARTCHAR 010B
ENCODING 267
SWIDTH 520 0
DWIDTH 13 0
BBX 11 17 1 0
BITMAP
0200
0000
0000
0000
0F80
3060
4000
4000
8000
8000
8000
8000
8000
4000
4000
2020
1FC0
ENDCHAR
STARTCHAR 010C
ENCODING 268
SWIDTH 680 0
DWIDTH 17 0
BBX 15 22 1 0
BITMAP
0200
0130
00C0
0000
0040
071C
1802
2000
4000
4000
8000
8000
8000
8000
8000
8000
4000
4000
2000
1000
0802
07FC
ENDCHAR
STARTCHAR 010D
ENCODING 269
SWIDTH 520 0
DWIDTH 13 0
BBX 11 18 1 0
BITMAP
1000
0980
0600
0000
0000
0F80
3060
4000
4000
8000
8000
8000
8000
8000
4000
4000
2020
1FC0
ENDCHAR
STARTCHAR 010E
ENCODING 270
SWIDTH 800 0
DWIDTH 20 0
BBX 16 22 3 0
BITMAP
1040
0880
0700
0000
FE00
81F0
8008
8004
8002
8002
8001
8001
8001
8001
8001
8001
8001
8002
8002
8004
8018
FFE0
ENDCHAR
STARTCHAR 010F
ENCODING 271
SWIDTH 640 0
DWIDTH 16 0
BBX 16 19 1 0
BITMAP
0009
0009
0009
0009
0008
0008
0F88
3068
4018
4008
8008
8008
8008
8008
8008
4008
4018
2028
1FC8
ENDCHAR
STARTCHAR 0110
ENCODING 272
SWIDTH 800 0
DWIDTH 20 0
BBX 18 18 1 0
BITMAP
3F8000
207C00
200200
200100
200080
200080
200040
200040
200040
FF0040
200040
200040
200040
200080
200080
200100
200600
3FF800
ENDCHAR
STARTCHAR 0111
ENCODING 273
SWIDTH 640 0
DWIDTH 16 0
BBX 15 19 1 0
BITMAP
0008
0008
0008
01FE
0008
0008
0F88
3068
4018
4008
8008
8008
8008
8008
8008
4008
4018
2028
1FC8
ENDCHAR
STARTCHAR 0112
ENCODING 274
SWIDTH 640 0
DWIDTH 16 0
BBX 12 21 3 0
BITMAP
1F80
0000
0000
FFF0
8000
8000
8000
8000
8000
8000
8000
8000
BF80
8000
8000
8000
8000
8000
8000
8000
FFE0
ENDCHAR
STARTCHAR 0113
ENCODING 275
SWIDTH 560 0
DWIDTH 14 0
BBX 12 17 1 0
BITMAP
1FC0
0000
0000
0000
0F80
3040
4020
8010
8010
8010
FFF0
8000
8000
4000
4000
2020
1FC0
ENDCHAR
STARTCHAR 0114
ENCODING 276
SWIDTH 640 0
DWIDTH 16 0
BBX 12 21 3 1
BITMAP
1080
0900
0600
FFF0
8000
8000
8000
8000
8000
8000
8000
8000
BF80
8000
8000
8000
8000
8000
8000
8000
FFE0
ENDCHAR
STARTCHAR 0115
ENCODING 277
SWIDTH 560 0
DWIDTH 14 0
BBX 12 18 1 0
BITMAP
1040
1080
0F00
0000
0000
0F80
3040
4020
8010
8010
8010
FFF0
8000
8000
4000
4000
2020
1FC0
ENDCHAR
STARTCHAR 0116
ENCODING 278
SWIDTH 640 0
DWIDTH 16 0
BBX 12 21 3 0
BITMAP
0600
0000
0000
FFF0
8000
8000
8000
8000
8000
8000
8000
8000
BF80
8000
8000
8000
8000
8000
8000
8000
FFE0
ENDCHAR
STARTCHAR 0117
ENCODING 279
SWIDTH 560 0
DWIDTH 14 0
BBX 12 17 1 0
BITMAP
0200
0000
0000
0000
0F80
3040
4020
8010
8010
8010
FFF0
8000
8000
4000
4000
2020
1FC0
ENDCHAR
STARTCHAR 0118
ENCODING 280
SWIDTH 640 0
DWIDTH 16 0
BBX 12 23 3 -5
BITMAP
FFF0
8000
8000
8000
8000
8000
8000
8000
8000
BF80
8000
8000
8000
8000
8000
8000
8000
8000
7FE0
0040
0080
0080
00F0
ENDCHAR
STARTCHAR 0119
ENCODING 281
SWIDTH 560 0
DWIDTH 14 0
BBX 12 18 1 -5
BITMAP
0F80
3040
4020
8010
8010
8010
FFF0
8000
8000
4000
4000
2020
1CC0
0380
0100
0100
0100
01E0
ENDCHAR
STARTCHAR 011A
ENCODING 282
SWIDTH 640 0
DWIDTH 16 0
BBX 12 21 3 1
BITMAP
1980
0600
0000
FFF0
8000
8000
8000
8000
8000
8000
8000
8000
BF80
8000
8000
8000
8000
8000
8000
8000
FFE0
ENDCHAR
STARTCHAR 011B
ENCODING 283
SWIDTH 560 0
DWIDTH 14 0
BBX 12 18 1 0
BITMAP
1000
0980
0600
0000
0000
0F80
3040
4020
8010
8010
8010
FFF0
8000
8000
4000
4000
2020
1FC0
ENDCHAR
STARTCHAR 011C
ENCODING 284
SWIDTH 760 0
DWIDTH 19 0
BBX 16 22 1 0
BITMAP
00C0
0120
0210
0000
0040
071C
1802
2000
4000
4000
8000
8000
8000
8001
8001
8001
4001
4001
2001
1001
0802
07FC
ENDCHAR
STARTCHAR 011D
ENCODING 285
SWIDTH 640 0
DWIDTH 16 0
BBX 13 23 1 -5
BITMAP
0300
0480
0840
0000
0000
0F80
3068
4018
8018
8008
8008
8008
8008
8008
4018
2038
1048
0E88
0008
0008
0010
2010
1FE0
ENDCHAR
STARTCHAR 011E
ENCODING 286
SWIDTH 760 0
DWIDTH 19 0
BBX 16 21 1 1
BITMAP
0210
0120
00C0
0040
071C
1802
2000
4000
4000
8000
8000
8000
8001
8001
8001
4001
4001
2001
1001
0802
07FC
ENDCHAR
STARTCHAR 011F
ENCODING 287
SWIDTH 640 0
DWIDTH 16 0
BBX 13 22 1 -4
BITMAP
0840
0780
0000
0000
0F80
3068
4018
8018
8008
8008
8008
8008
8008
4018
2038
1048
0E88
0008
0008
0010
2010
1FE0
ENDCHAR
STARTCHAR 0120
ENCODING 288
SWIDTH 760 0
DWIDTH 19 0
BBX 16 21 1 0
BITMAP
00C0
0000
0000
0040
071C
1802
2000
4000
4000
8000
8000
8000
8001
8001
8001
4001
4001
2001
1001
0802
07FC
ENDCHAR
STARTCHAR 0121
ENCODING 289
SWIDTH 640 0
DWIDTH 16 0
BBX 13 22 1 -5
BITMAP
0200
0000
0000
0000
0F80
3068
4018
8018
8008
8008
8008
8008
8008
4018
2038
1048
0E88
0008
0008
0010
2010
1FE0
ENDCHAR
STARTCHAR 0122
ENCODING 290
SWIDTH 760 0
DWIDTH 19 0
BBX 16 24 1 -6
BITMAP
0040
071C
1802
2000
4000
4000
8000
8000
8000
8001
8001
8001
4001
4001
2001
1001
0802
071C
00E0
0000
0000
00C0
0040
0080
ENDCHAR
STARTCHAR 0123
ENCODING 291
SWIDTH 640 0
DWIDTH 16 0
BBX 13 23 1 -4
BITMAP
0200
0200
0200
0000
0000
0F80
3068
4018
8018
8008
8008
8008
8008
8008
4018
2038
1048
0E88
0008
0008
0010
2010
1FE0
ENDCHAR
STARTCHAR 0124
ENCODING 292
SWIDTH 800 0
DWIDTH 20 0
BBX 14 22 3 0
BITMAP
0100
0680
0840
0000
8000
8004
8004
8004
8004
8004
8004
8004
8004
BFFC
8004
8004
8004
8004
8004
8004
8004
8004
ENDCHAR
STARTCHAR 0125
ENCODING 293
SWIDTH 640 0
DWIDTH 16 0
BBX 14 23 0 0
BITMAP
3000
4800
8400
0000
0000
2000
2000
2000
2000
2000
23E0
2C18
3008
1004
1004
2004
2004
2004
2004
2004
2004
2004
2004
ENDCHAR
STARTCHAR 0126
ENCODING 294
SWIDTH 800 0
DWIDTH 20 0
BBX 20 18 0 0
BITMAP
100000
100080
100080
100080
FFFFF0
100080
100080
100080
100080
17FF80
100080
100080
100080
100080
100080
100080
100080
100080
ENDCHAR
STARTCHAR 0127
ENCODING 295
SWIDTH 640 0
DWIDTH 16 0
BBX 13 18 1 1
BITMAP
4000
4000
FE00
4000
4000
47C0
5830
6010
2008
2008
4008
4008
4008
4008
4008
4008
4008
4008
ENDCHAR
STARTCHAR 0128
ENCODING 296
SWIDTH 280 0
DWIDTH 7 0
BBX 7 21 0 0
BITMAP
F2
8C
00
10
10
10
10
10
10
10
10
10
10
10
10
10
10
10
10
10
10
ENDCHAR
STARTCHAR 0129
ENCODING 297
SWIDTH 240 0
DWIDTH 6 0
BBX 6 18 0 0
BITMAP
44
B4
08
00
00
00
20
20
20
20
20
20
20
20
20
20
20
20
ENDCHAR
STARTCHAR 012A
ENCODING 298
SWIDTH 280 0
DWIDTH 7 0
BBX 5 21 1 0
BITMAP
F8
00
00
20
20
20
20
20
20
20
20
20
20
20
20
20
20
20
20
20
20
ENDCHAR
STARTCHAR 012B
ENCODING 299
SWIDTH 240 0
DWIDTH 6 0
BBX 6 17 0 0
BITMAP
FC
00
00
00
00
20
20
20
20
20
20
20
20
20
20
20
20
ENDCHAR
STARTCHAR 012C
ENCODING 300
SWIDTH 280 0
DWIDTH 7 0
BBX 7 22 0 0
BITMAP
82
82
44
38
10
10
10
10
10
10
10
10
10
10
10
10
10
10
10
10
10
10
ENDCHAR
STARTCHAR 012D
ENCODING 301
SWIDTH 240 0
DWIDTH 6 0
BBX 6 18 0 0
BITMAP
84
88
78
00
00
00
20
20
20
20
20
20
20
20
20
20
20
20
ENDCHAR
STARTCHAR 012E
ENCODING 302
SWIDTH 280 0
DWIDTH 7 0
BBX 3 23 2 -5
BITMAP
40
40
40
40
40
40
40
40
40
40
40
40
40
40
40
40
40
40
80
80
80
80
E0
ENDCHAR
STARTCHAR 012F
ENCODING 303
SWIDTH 240 0
DWIDTH 6 0
BBX 3 23 1 -5
BITMAP
20
00
00
00
00
00
40
40
40
40
40
40
40
40
40
40
40
40
40
80
80
80
C0
ENDCHAR
STARTCHAR 0130
ENCODING 304
SWIDTH 280 0
DWIDTH 7 0
BBX 1 21 3 0
BITMAP
80
00
00
80
80
80
80
80
80
80
80
80
80
80
80
80
80
80
80
80
80
ENDCHAR
STARTCHAR 0131
ENCODING 305
SWIDTH 240 0
DWIDTH 6 0
BBX 1 12 3 1
BITMAP
80
80
80
80
80
80
80
80
80
80
80
80
ENDCHAR
STARTCHAR 0132
ENCODING 306
SWIDTH 680 0
DWIDTH 17 0
BBX 12 18 3 0
BITMAP
8010
8010
8010
8010
8010
8010
8010
8010
8010
8010
8010
0010
0010
0020
0020
0040
8040
7F80
ENDCHAR
STARTCHAR 0133
ENCODING 307
SWIDTH 480 0
DWIDTH 12 0
BBX 8 23 2 -5
BITMAP
41
01
00
00
00
01
81
81
81
81
81
81
81
81
81
81
81
81
01
01
01
02
1C
ENDCHAR
STARTCHAR 0134
ENCODING 308
SWIDTH 440 0
DWIDTH 11 0
BBX 9 22 0 0
BITMAP
0400
1A00
2100
0000
3F80
0080
0080
0080
0080
0080
0080
0080
0080
0080
0080
0080
0080
0080
0080
8100
4100
3E00
ENDCHAR
STARTCHAR 0135
ENCODING 309
SWIDTH 240 0
DWIDTH 6 0
BBX 8 23 -2 -5
BITMAP
0C
12
01
00
00
04
04
04
04
04
04
04
04
04
04
04
04
04
04
04
08
08
F0
ENDCHAR
STARTCHAR 0136
ENCODING 310
SWIDTH 680 0
DWIDTH 17 0
BBX 13 24 3 -6
BITMAP
8000
8018
8020
8040
8080
8080
8100
8200
8400
8C00
9200
A100
C080
8040
8020
8010
8008
8008
0000
0000
0000
0200
0200
0400
ENDCHAR
STARTCHAR 0137
ENCODING 311
SWIDTH 560 0
DWIDTH 14 0
BBX 10 24 3 -5
BITMAP
8000
8000
8000
8000
8000
8040
8080
8100
8600
8800
8800
B400
C400
8200
8100
8080
8040
8040
0000
0000
0000
0800
0800
0800
ENDCHAR
STARTCHAR 0138
ENCODING 312
SWIDTH 520 0
DWIDTH 13 0
BBX 10 13 3 0
BITMAP
0040
8080
8100
8600
8800
8800
B400
C400
8200
8100
8080
8040
8040
ENDCHAR
STARTCHAR 0139
ENCODING 313
SWIDTH 560 0
DWIDTH 14 0
BBX 10 22 3 0
BITMAP
1000
6000
8000
0000
8000
8000
8000
8000
8000
8000
8000
8000
8000
8000
8000
8000
8000
8000
8000
8000
8000
FFC0
ENDCHAR
STARTCHAR 013A
ENCODING 314
SWIDTH 240 0
DWIDTH 6 0
BBX 4 24 2 0
BITMAP
10
20
40
00
00
00
80
80
80
80
80
80
80
80
80
80
80
80
80
80
80
80
80
80
ENDCHAR
STARTCHAR 013B
ENCODING 315
SWIDTH 560 0
DWIDTH 14 0
BBX 10 24 3 -6
BITMAP
8000
8000
8000
8000
8000
8000
8000
8000
8000
8000
8000
8000
8000
8000
8000
8000
8000
8000
7FC0
0000
0000
0600
0200
0400
ENDCHAR
STARTCHAR 013C
ENCODING 316
SWIDTH 240 0
DWIDTH 6 0
BBX 2 24 2 -5
BITMAP
80
80
80
80
80
80
80
80
80
80
80
80
80
80
80
80
80
80
00
00
00
40
40
80
ENDCHAR
STARTCHAR 013D
ENCODING 317
SWIDTH 560 0
DWIDTH 14 0
BBX 10 18 3 0
BITMAP
8080
8080
8080
8080
8080
8000
8000
8000
8000
8000
8000
8000
8000
8000
8000
8000
8000
FFC0
ENDCHAR
STARTCHAR 013E
ENCODING 318
SWIDTH 240 0
DWIDTH 6 0
BBX 3 19 3 0
BITMAP
20
A0
A0
80
80
80
80
80
80
80
80
80
80
80
80
80
80
80
80
ENDCHAR
STARTCHAR 013F
ENCODING 319
SWIDTH 560 0
DWIDTH 14 0
BBX 10 18 3 0
BITMAP
8000
8000
8000
8000
8000
8000
8000
8000
8100
8100
8000
8000
8000
8000
8000
8000
8000
FFC0
ENDCHAR
STARTCHAR 0140
ENCODING 320
SWIDTH 240 0
DWIDTH 6 0
BBX 4 18 3 1
BITMAP
80
80
80
80
80
80
80
80
80
90
80
80
80
80
80
80
80
80
ENDCHAR
STARTCHAR 0141
ENCODING 321
SWIDTH 560 0
DWIDTH 14 0
BBX 12 18 1 0
BITMAP
2000
2000
2000
2000
2000
2000
2000
2C00
3000
6000
A000
2000
2000
2000
2000
2000
2000
3FF0
ENDCHAR
STARTCHAR 0142
ENCODING 322
SWIDTH 240 0
DWIDTH 6 0
BBX 5 18 1 1
BITMAP
40
40
40
40
40
40
40
48
50
60
C0
40
40
40
40
40
40
40
ENDCHAR
STARTCHAR 0143
ENCODING 323
SWIDTH 800 0
DWIDTH 20 0
BBX 14 22 3 0
BITMAP
0040
0080
0100
0000
8000
C004
C004
A004
9004
8804
8804
8404
8204
8104
8184
8084
8044
8024
8014
8014
800C
8004
ENDCHAR
STARTCHAR 0144
ENCODING 324
SWIDTH 640 0
DWIDTH 16 0
BBX 11 18 3 0
BITMAP
0100
0200
0400
0000
0000
1F00
E0C0
8040
8020
8020
8020
8020
8020
8020
8020
8020
8020
8020
ENDCHAR
STARTCHAR 0145
ENCODING 325
SWIDTH 800 0
DWIDTH 20 0
BBX 14 24 3 -6
BITMAP
8000
C004
C004
A004
9004
8804
8804
8404
8204
8104
8184
8084
8044
8024
8014
8014
800C
8004
0000
0000
0000
0100
0100
0200
ENDCHAR
STARTCHAR 0146
ENCODING 326
SWIDTH 640 0
DWIDTH 16 0
BBX 11 19 3 -6
BITMAP
1F00
E0C0
8040
8020
8020
8020
8020
8020
8020
8020
8020
8020
8020
0000
0000
0000
0400
0400
0400
ENDCHAR
STARTCHAR 0147
ENCODING 327
SWIDTH 800 0
DWIDTH 20 0
BBX 14 22 3 0
BITMAP
0800
04C0
0300
0000
8000
C004
C004
A004
9004
8804
8804
8404
8204
8104
8184
8084
8044
8024
8014
8014
800C
8004
ENDCHAR
STARTCHAR 0148
ENCODING 328
SWIDTH 640 0
DWIDTH 16 0
BBX 11 18 3 0
BITMAP
2000
1300
0C00
0000
0000
1F00
E0C0
8040
8020
8020
8020
8020
8020
8020
8020
8020
8020
8020
ENDCHAR
STARTCHAR 0149
ENCODING 329
SWIDTH 680 0
DWIDTH 17 0
BBX 13 19 2 0
BITMAP
8000
8000
8000
8000
0000
0000
07C0
5830
6010
2008
4008
4008
4008
4008
4008
4008
4008
4008
4008
ENDCHAR
STARTCHAR 014A
ENCODING 330
SWIDTH 800 0
DWIDTH 20 0
BBX 14 23 3 -5
BITMAP
8000
C004
C004
A004
9004
8804
8804
8404
8204
8104
8184
8084
8044
8024
8014
8014
800C
8004
0004
0004
0404
0208
01F0
ENDCHAR
STARTCHAR 014B
ENCODING 331
SWIDTH 640 0
DWIDTH 16 0
BBX 11 18 3 -5
BITMAP
1F00
E0C0
8040
8020
8020
8020
8020
8020
8020
8020
8020
8020
8020
0020
0020
0020
0020
03C0
ENDCHAR
STARTCHAR 014C
ENCODING 332
SWIDTH 800 0
DWIDTH 20 0
BBX 18 21 1 0
BITMAP
03F800
000000
000000
004000
071C00
180200
200100
400080
400040
800040
800040
800040
800040
800040
800040
400040
400080
200080
100100
080200
07FC00
ENDCHAR
STARTCHAR 014D
ENCODING 333
SWIDTH 600 0
DWIDTH 15 0
BBX 13 17 1 0
BITMAP
1FC0
0000
0000
0000
0F80
3060
4010
4010
8008
8008
8008
8008
8008
4010
4010
2020
1FC0
ENDCHAR
STARTCHAR 014E
ENCODING 334
SWIDTH 800 0
DWIDTH 20 0
BBX 18 22 1 0
BITMAP
020800
021800
011000
00E000
004000
071C00
180200
200100
400080
400040
800040
800040
800040
800040
800040
800040
400040
400080
200080
100100
080200
07FC00
ENDCHAR
STARTCHAR 014F
ENCODING 335
SWIDTH 600 0
DWIDTH 15 0
BBX 13 18 1 0
BITMAP
1040
1040
0F80
0000
0000
0F80
3060
4010
4010
8008
8008
8008
8008
8008
4010
4010
2020
1FC0
ENDCHAR
STARTCHAR 0150
ENCODING 336
SWIDTH 800 0
DWIDTH 20 0
BBX 18 22 1 0
BITMAP
002400
004800
009000
000000
004000
071C00
180200
200100
400080
400040
800040
800040
800040
800040
800040
800040
400040
400080
200080
100100
080200
07FC00
ENDCHAR
STARTCHAR 0151
ENCODING 337
SWIDTH 600 0
DWIDTH 15 0
BBX 13 18 1 0
BITMAP
0120
0240
0480
0000
0000
0F80
3060
4010
4010
8008
8008
8008
8008
8008
4010
4010
2020
1FC0
ENDCHAR
STARTCHAR 0152
ENCODING 338
SWIDTH 1080 0
DWIDTH 27 0
BBX 25 18 1 0
BITMAP
003FFF80
07C40000
18040000
20040000
40040000
40040000
80040000
80040000
80040000
8005FE00
80040000
80040000
40040000
40040000
20040000
10040000
08040000
07FFFF00
ENDCHAR
STARTCHAR 0153
ENCODING 339
SWIDTH 1040 0
DWIDTH 26 0
BBX 24 13 1 0
BITMAP
0F80F8
306304
401402
401401
800801
800801
800FFF
800800
800800
401400
401400
202202
1FC1FC
ENDCHAR
STARTCHAR 0154
ENCODING 340
SWIDTH 680 0
DWIDTH 17 0
BBX 13 22 3 0
BITMAP
0080
0100
0200
0000
FC00
83E0
8010
8010
8008
8008
8008
8008
8008
8010
8020
81C0
FE80
8040
8020
8010
8010
8008
ENDCHAR
STARTCHAR 0155
ENCODING 341
SWIDTH 360 0
DWIDTH 9 0
BBX 5 18 3 0
BITMAP
08
10
20
00
00
18
E0
80
80
80
80
80
80
80
80
80
80
80
ENDCHAR
STARTCHAR 0156
ENCODING 342
SWIDTH 680 0
DWIDTH 17 0
BBX 13 24 3 -6
BITMAP
FC00
83E0
8010
8010
8008
8008
8008
8008
8008
8010
8020
81C0
FE80
8040
8020
8010
8010
8008
0000
0000
0000
0200
0200
0400
ENDCHAR
STARTCHAR 0157
ENCODING 343
SWIDTH 360 0
DWIDTH 9 0
BBX 6 19 2 -6
BITMAP
0C
B0
C0
40
40
80
80
80
80
80
80
80
80
00
00
00
40
40
80
ENDCHAR
STARTCHAR 0158
ENCODING 344
SWIDTH 680 0
DWIDTH 17 0
BBX 13 22 3 0
BITMAP
1000
0980
0600
0000
FC00
83E0
8010
8010
8008
8008
8008
8008
8008
8010
8020
81C0
FE80
8040
8020
8010
8010
8008
ENDCHAR
STARTCHAR 0159
ENCODING 345
SWIDTH 360 0
DWIDTH 9 0
BBX 7 18 2 0
BITMAP
02
64
18
00
00
0C
B0
C0
40
40
80
80
80
80
80
80
80
80
ENDCHAR
STARTCHAR 015A
ENCODING 346
SWIDTH 600 0
DWIDTH 15 0
BBX 13 22 1 0
BITMAP
0040
0080
0300
0000
0200
1CE0
6000
4000
C000
8000
4000
2000
1800
0780
0060
0010
0010
0008
0008
0010
4020
3FC0
ENDCHAR
STARTCHAR 015B
ENCODING 347
SWIDTH 440 0
DWIDTH 11 0
BBX 10 18 1 0
BITMAP
0100
0600
0800
0000
0000
3F00
4080
8000
8000
8000
4000
3C00
0380
0080
0040
0040
8080
7F00
ENDCHAR
STARTCHAR 015C
ENCODING 348
SWIDTH 600 0
DWIDTH 15 0
BBX 13 22 1 0
BITMAP
0300
0480
0840
0000
0200
1CE0
6000
4000
C000
8000
4000
2000
1800
0780
0060
0010
0010
0008
0008
0010
4020
3FC0
ENDCHAR
STARTCHAR 015D
ENCODING 349
SWIDTH 440 0
DWIDTH 11 0
BBX 10 18 1 0
BITMAP
0C00
1200
2100
0000
0000
3F00
4080
8000
8000
8000
4000
3C00
0380
0080
0040
0040
8080
7F00
ENDCHAR
STARTCHAR 015E
ENCODING 350
SWIDTH 600 0
DWIDTH 15 0
BBX 13 23 1 -5
BITMAP
0200
1CE0
6000
4000
C000
8000
4000
2000
1800
0780
0060
0010
0010
0008
0008
0010
4020
3CC0
0300
0200
0180
0080
0700
ENDCHAR
STARTCHAR 015F
ENCODING 351
SWIDTH 440 0
DWIDTH 11 0
BBX 10 18 1 -5
BITMAP
3F00
4080
8000
8000
8000
4000
3C00
0380
0080
0040
0040
8080
7300
0C00
0800
0400
0200
1C00
ENDCHAR
STARTCHAR 0160
ENCODING 352
SWIDTH 600 0
DWIDTH 15 0
BBX 13 21 1 1
BITMAP
0CC0
0300
0000
0200
1CE0
6000
4000
C000
8000
4000
2000
1800
0780
0060
0010
0010
0008
0008
0010
4020
3FC0
ENDCHAR
STARTCHAR 0161
ENCODING 353
SWIDTH 440 0
DWIDTH 11 0
BBX 10 18 1 0
BITMAP
2100
1200
0C00
0000
0000
3F00
4080
8000
8000
8000
4000
3C00
0380
0080
0040
0040
8080
7F00
ENDCHAR
STARTCHAR 0162
ENCODING 354
SWIDTH 520 0
DWIDTH 13 0
BBX 14 23 0 -5
BITMAP
FFFC
0200
0200
0200
0200
0200
0200
0200
0200
0200
0200
0200
0200
0200
0200
0200
0200
0200
0200
0200
0180
0080
0700
ENDCHAR
STARTCHAR 0163
ENCODING 355
SWIDTH 360 0
DWIDTH 9 0
BBX 7 21 1 -5
BITMAP
20
20
20
FE
20
20
20
20
20
20
20
20
20
20
20
1A
04
08
06
02
1E
ENDCHAR
STARTCHAR 0164
ENCODING 356
SWIDTH 520 0
DWIDTH 13 0
BBX 14 22 0 0
BITMAP
0040
0880
0700
0000
FFFC
0200
0200
0200
0200
0200
0200
0200
0200
0200
0200
0200
0200
0200
0200
0200
0200
0200
ENDCHAR
STARTCHAR 0165
ENCODING 357
SWIDTH 360 0
DWIDTH 9 0
BBX 7 19 1 0
BITMAP
04
04
04
24
20
20
FE
20
20
20
20
20
20
20
20
20
20
20
1E
ENDCHAR
STARTCHAR 0166
ENCODING 358
SWIDTH 520 0
DWIDTH 13 0
BBX 14 18 0 0
BITMAP
FFFC
0200
0200
0200
0200
0200
0200
0200
0200
1FC0
0200
0200
0200
0200
0200
0200
0200
0200
ENDCHAR
STARTCHAR 0167
ENCODING 359
SWIDTH 360 0
DWIDTH 9 0
BBX 7 16 1 0
BITMAP
20
20
20
FE
20
20
20
20
FE
20
20
20
20
20
20
1E
ENDCHAR
STARTCHAR 0168
ENCODING 360
SWIDTH 760 0
DWIDTH 19 0
BBX 14 21 3 0
BITMAP
1E40
0180
0000
8004
8004
8004
8004
8004
8004
8004
8004
8004
8004
8004
8004
8004
8008
8008
4010
2010
1FE0
ENDCHAR
STARTCHAR 0169
ENCODING 361
SWIDTH 640 0
DWIDTH 16 0
BBX 11 18 3 0
BITMAP
1080
2D00
0000
0000
0000
0020
8020
8020
8020
8020
8020
8020
8020
8020
8020
8060
40A0
3F20
ENDCHAR
STARTCHAR 016A
ENCODING 362
SWIDTH 760 0
DWIDTH 19 0
BBX 14 21 3 0
BITMAP
0FC0
0000
0000
8004
8004
8004
8004
8004
8004
8004
8004
8004
8004
8004
8004
8004
8008
8008
4010
2010
1FE0
ENDCHAR
STARTCHAR 016B
ENCODING 363
SWIDTH 640 0
DWIDTH 16 0
BBX 11 17 3 0
BITMAP
3F80
0000
0000
0000
0020
8020
8020
8020
8020
8020
8020
8020
8020
8020
8060
40A0
3F20
ENDCHAR
STARTCHAR 016C
ENCODING 364
SWIDTH 760 0
DWIDTH 19 0
BBX 14 21 3 1
BITMAP
1040
0C80
0300
8004
8004
8004
8004
8004
8004
8004
8004
8004
8004
8004
8004
8004
8008
8008
4010
2010
1FE0
ENDCHAR
STARTCHAR 016D
ENCODING 365
SWIDTH 640 0
DWIDTH 16 0
BBX 11 17 3 1
BITMAP
2100
1E00
0000
0000
0020
8020
8020
8020
8020
8020
8020
8020
8020
8020
8060
40A0
3F20
ENDCHAR
STARTCHAR 016E
ENCODING 366
SWIDTH 760 0
DWIDTH 19 0
BBX 14 24 3 0
BITMAP
0700
0880
0880
0480
0300
0000
8004
8004
8004
8004
8004
8004
8004
8004
8004
8004
8004
8004
8004
8008
8008
4010
2010
1FE0
ENDCHAR
STARTCHAR 016F
ENCODING 367
SWIDTH 640 0
DWIDTH 16 0
BBX 11 19 3 1
BITMAP
1E00
2200
1200
0A00
0400
0000
0020
8020
8020
8020
8020
8020
8020
8020
8020
8020
8060
40A0
3F20
ENDCHAR
STARTCHAR 0170
ENCODING 368
SWIDTH 760 0
DWIDTH 19 0
BBX 14 22 3 0
BITMAP
0110
0220
0440
0000
8004
8004
8004
8004
8004
8004
8004
8004
8004
8004
8004
8004
8004
8008
8008
4010
2010
1FE0
ENDCHAR
STARTCHAR 0171
ENCODING 369
SWIDTH 640 0
DWIDTH 16 0
BBX 11 18 3 0
BITMAP
0440
0880
1100
0000
0000
0020
8020
8020
8020
8020
8020
8020
8020
8020
8020
8060
40A0
3F20
ENDCHAR
STARTCHAR 0172
ENCODING 370
SWIDTH 760 0
DWIDTH 19 0
BBX 14 23 3 -5
BITMAP
8004
8004
8004
8004
8004
8004
8004
8004
8004
8004
8004
8004
8004
8008
8008
4010
2010
1DE0
0300
0600
0400
0800
0780
ENDCHAR
STARTCHAR 0173
ENCODING 371
SWIDTH 640 0
DWIDTH 16 0
BBX 11 18 3 -5
BITMAP
0020
8020
8020
8020
8020
8020
8020
8020
8020
8020
8060
40A0
3320
0C40
0180
0100
0100
01E0
ENDCHAR
STARTCHAR 0174
ENCODING 372
SWIDTH 1080 0
DWIDTH 27 0
BBX 25 22 1 0
BITMAP
00080000
00140000
00620000
00000000
80080080
80180080
80180100
40140100
40240100
40220200
20220200
20420400
20410400
10410400
10810800
10808800
08808800
09009000
09005000
05005000
06006000
02002000
ENDCHAR
STARTCHAR 0175
ENCODING 373
SWIDTH 800 0
DWIDTH 20 0
BBX 21 18 0 0
BITMAP
002000
00D000
010C00
000000
000000
802008
806010
405010
409020
409020
208820
210840
110440
120480
120480
0A0280
0C0300
040100
ENDCHAR
STARTCHAR 0176
ENCODING 374
SWIDTH 600 0
DWIDTH 15 0
BBX 15 22 0 0
BITMAP
0100
0280
0440
0020
8002
8004
4004
2008
2008
1010
0820
0820
0440
0480
0280
0100
0100
0100
0100
0100
0100
0100
ENDCHAR
STARTCHAR 0177
ENCODING 375
SWIDTH 480 0
DWIDTH 12 0
BBX 13 23 -1 -5
BITMAP
0300
0480
0840
0000
0000
4000
4008
2010
2010
1010
1020
0820
0840
0440
0480
0480
0300
0100
0200
0200
0400
8400
7800
ENDCHAR
STARTCHAR 0178
ENCODING 376
SWIDTH 600 0
DWIDTH 15 0
BBX 15 21 0 0
BITMAP
0440
0000
0000
8002
8004
4004
2008
2008
1010
0820
0820
0440
0480
0280
0100
0100
0100
0100
0100
0100
0100
ENDCHAR
STARTCHAR 0179
ENCODING 377
SWIDTH 600 0
DWIDTH 15 0
BBX 14 22 1 0
BITMAP
0040
0080
0100
0000
FFFC
0008
0008
0010
0020
0040
0080
0080
0100
0200
0400
0400
0800
1000
2000
2000
4000
FFF8
ENDCHAR
STARTCHAR 017A
ENCODING 378
SWIDTH 480 0
DWIDTH 12 0
BBX 10 18 1 0
BITMAP
0100
0200
0C00
0000
0000
FFC0
0080
0100
0100
0200
0400
0800
0800
1000
2000
4000
4000
FF80
ENDCHAR
STARTCHAR 017B
ENCODING 379
SWIDTH 600 0
DWIDTH 15 0
BBX 14 21 1 0
BITMAP
0300
0000
0000
FFFC
0008
0008
0010
0020
0040
0080
0080
0100
0200
0400
0400
0800
1000
2000
2000
4000
FFF8
ENDCHAR
STARTCHAR 017C
ENCODING 380
SWIDTH 480 0
DWIDTH 12 0
BBX 10 17 1 0
BITMAP
0400
0000
0000
0000
FFC0
0080
0100
0100
0200
0400
0800
0800
1000
2000
4000
4000
FF80
ENDCHAR
STARTCHAR 017D
ENCODING 381
SWIDTH 600 0
DWIDTH 15 0
BBX 14 22 1 0
BITMAP
0800
04C0
0300
0000
FFFC
0008
0008
0010
0020
0040
0080
0080
0100
0200
0400
0400
0800
1000
2000
2000
4000
FFF8
ENDCHAR
STARTCHAR 017E
ENCODING 382
SWIDTH 480 0
DWIDTH 12 0
BBX 10 18 1 0
BITMAP
2100
1200
0C00
0000
0000
FFC0
0080
0100
0100
0200
0400
0800
0800
1000
2000
4000
4000
FF80
ENDCHAR
STARTCHAR 017F
ENCODING 383
SWIDTH 240 0
DWIDTH 6 0
BBX 8 19 1 0
BITMAP
0C
13
20
20
20
20
E0
20
20
20
20
20
20
20
20
20
20
20
20
ENDCHAR
STARTCHAR 018F
ENCODING 399
SWIDTH 800 0
DWIDTH 20 0
BBX 18 18 1 0
BITMAP
00C000
0F3800
100600
000100
000080
000080
000040
000040
000040
FFFFC0
800040
800040
400080
400080
200100
100200
080400
07F800
ENDCHAR
STARTCHAR 0192
ENCODING 402
SWIDTH 400 0
DWIDTH 10 0
BBX 12 24 -1 -5
BITMAP
0060
0190
0200
0200
0200
0200
0FE0
0400
0400
0400
0400
0400
0400
0400
0400
0800
0800
0800
0800
0800
0800
0800
1000
E000
ENDCHAR
STARTCHAR 01A0
ENCODING 416
SWIDTH 800 0
DWIDTH 20 0
BBX 18 21 1 0
BITMAP
000040
000040
000040
006080
071F00
180200
200100
400080
400040
800040
800040
800040
800040
800040
800040
400040
400080
200080
100100
080200
07FC00
ENDCHAR
STARTCHAR 01A1
ENCODING 417
SWIDTH 600 0
DWIDTH 15 0
BBX 13 16 1 1
BITMAP
0008
0008
0010
0FC0
3020
4010
4010
8008
8008
8008
8008
8008
4010
4010
2020
1FC0
ENDCHAR
STARTCHAR 01AF
ENCODING 431
SWIDTH 760 0
DWIDTH 19 0
BBX 16 21 3 0
BITMAP
0001
0001
0001
8006
8004
8004
8004
8004
8004
8004
8004
8004
8004
8004
8004
8004
8008
8008
4010
2010
1FE0
ENDCHAR
STARTCHAR 01B0
ENCODING 432
SWIDTH 640 0
DWIDTH 16 0
BBX 13 16 3 1
BITMAP
0008
0008
0010
0020
8020
8020
8020
8020
8020
8020
8020
8020
8020
8060
40A0
3F20
ENDCHAR
STARTCHAR 01B7
ENCODING 439
SWIDTH 560 0
DWIDTH 14 0
BBX 12 18 1 0
BITMAP
FFF0
0020
0040
0040
0080
0100
0200
0400
0700
00C0
0020
0010
0010
0010
0010
0010
C020
3FC0
ENDCHAR
STARTCHAR 01C4
ENCODING 452
SWIDTH 1440 0
DWIDTH 36 0
BBX 32 22 3 0
BITMAP
00000208
00000110
000000E0
00000000
FE001FFF
81F00001
80080002
80040004
80020008
80020010
80010010
80010020
80010040
80010080
80010080
80010100
80010200
80020400
80020400
80040800
80181000
FFE03FFE
ENDCHAR
STARTCHAR 01C5
ENCODING 453
SWIDTH 1280 0
DWIDTH 32 0
BBX 29 18 3 0
BITMAP
FE000420
81F00240
80080180
80040000
80020000
80021FF8
80010010
80010020
80010040
80010040
80010080
80010100
80010200
80020200
80020400
80040800
80181000
FFE01FF0
ENDCHAR
STARTCHAR 01C6
ENCODING 454
SWIDTH 1160 0
DWIDTH 29 0
BBX 27 19 1 0
BITMAP
00080000
00081080
00080900
00080600
00080000
00080000
0F887FE0
30680040
40180080
40080100
80080100
80080200
80080400
80080800
80080800
40081000
40182000
20284000
1FC87FC0
ENDCHAR
STARTCHAR 01C7
ENCODING 455
SWIDTH 1040 0
DWIDTH 26 0
BBX 20 18 3 0
BITMAP
8007F0
800010
800010
800010
800010
800010
800010
800010
800010
800010
800010
800010
800010
800010
800010
800010
800820
FFC7C0
ENDCHAR
STARTCHAR 01C8
ENCODING 456
SWIDTH 800 0
DWIDTH 20 0
BBX 15 23 3 -5
BITMAP
8002
8000
8000
8000
8000
8002
8002
8002
8002
8002
8002
8002
8002
8002
8002
8002
8002
8002
7FC2
0002
0002
0002
003C
ENDCHAR
STARTCHAR 01C9
ENCODING 457
SWIDTH 480 0
DWIDTH 12 0
BBX 7 23 3 -4
BITMAP
82
82
80
80
80
82
82
82
82
82
82
82
82
82
82
82
82
82
02
02
02
04
38
ENDCHAR
STARTCHAR 01CA
ENCODING 458
SWIDTH 1280 0
DWIDTH 32 0
BBX 26 18 3 0
BITMAP
80001FC0
C0040040
C0040040
A0040040
90040040
88040040
88040040
84040040
82040040
81040040
81840040
80840040
80440040
80240040
80140040
80140040
800C2080
80041F00
ENDCHAR
STARTCHAR 01CB
ENCODING 459
SWIDTH 1040 0
DWIDTH 26 0
BBX 21 23 3 -5
BITMAP
800008
C00400
C00400
A00400
900400
880408
880408
840408
820408
810408
818408
808408
804408
802408
801408
801408
800C08
800408
000008
000008
000008
000018
0000F0
ENDCHAR
STARTCHAR 01CC
ENCODING 460
SWIDTH 920 0
DWIDTH 23 0
BBX 17 23 3 -5
BITMAP
000080
000000
000000
000000
000000
1F0000
E0C080
804080
802080
802080
802080
802080
802080
802080
802080
802080
802080
802080
000080
000080
000080
000080
000F00
ENDCHAR
STARTCHAR 01CD
ENCODING 461
SWIDTH 680 0
DWIDTH 17 0
BBX 17 22 0 0
BITMAP
041000
022000
014000
008000
008000
018000
014000
014000
022000
022000
041000
041000
080800
080800
100800
100400
1FFC00
200200
400200
400100
400100
800080
ENDCHAR
STARTCHAR 01CE
ENCODING 462
SWIDTH 560 0
DWIDTH 14 0
BBX 10 18 2 0
BITMAP
2100
1200
0C00
0000
0000
3E00
C180
0080
0040
0040
0040
7F40
8040
8040
8040
80C0
8140
7E40
ENDCHAR
STARTCHAR 01D3
ENCODING 467
SWIDTH 760 0
DWIDTH 19 0
BBX 14 22 3 0
BITMAP
0040
0C80
0300
0000
8004
8004
8004
8004
8004
8004
8004
8004
8004
8004
8004
8004
8004
8008
8008
4010
2010
1FE0
ENDCHAR
STARTCHAR 01D4
ENCODING 468
SWIDTH 640 0
DWIDTH 16 0
BBX 11 18 3 0
BITMAP
2100
1200
0C00
0000
0000
0020
8020
8020
8020
8020
8020
8020
8020
8020
8020
8060
40A0
3F20
ENDCHAR
STARTCHAR 01E4
ENCODING 484
SWIDTH 800 0
DWIDTH 20 0
BBX 18 18 1 0
BITMAP
004000
071C00
180200
200000
400000
400000
800000
800000
800000
800100
800100
800100
403FC0
400100
200100
100100
080200
07FC00
ENDCHAR
STARTCHAR 01E5
ENCODING 485
SWIDTH 640 0
DWIDTH 16 0
BBX 15 18 1 -5
BITMAP
0F80
3068
4018
8018
8008
8008
8008
8008
8008
4018
2038
1048
0E88
0008
03FE
0010
2010
1FE0
ENDCHAR
STARTCHAR 01E6
ENCODING 486
SWIDTH 760 0
DWIDTH 19 0
BBX 16 21 1 1
BITMAP
0330
00C0
0000
0040
071C
1802
2000
4000
4000
8000
8000
8000
8001
8001
8001
4001
4001
2001
1001
0802
07FC
ENDCHAR
STARTCHAR 01E7
ENCODING 487
SWIDTH 640 0
DWIDTH 16 0
BBX 13 23 1 -5
BITMAP
0840
0480
0300
0000
0000
0F80
3068
4018
8018
8008
8008
8008
8008
8008
4018
2038
1048
0E88
0008
0008
0010
2010
1FE0
ENDCHAR
STARTCHAR 01E8
ENCODING 488
SWIDTH 680 0
DWIDTH 17 0
BBX 13 22 3 0
BITMAP
1040
0980
0600
0000
8000
8018
8020
8040
8080
8080
8100
8200
8400
8C00
9200
A100
C080
8040
8020
8010
8008
8008
ENDCHAR
STARTCHAR 01E9
ENCODING 489
SWIDTH 560 0
DWIDTH 14 0
BBX 13 24 0 0
BITMAP
0200
CC00
3000
0000
0000
0000
2000
2000
2000
2000
2000
2008
2010
2020
20C0
2100
2100
2680
2880
1040
2020
2010
2008
2008
ENDCHAR
STARTCHAR 01EA
ENCODING 490
SWIDTH 800 0
DWIDTH 20 0
BBX 18 23 1 -5
BITMAP
004000
071C00
180200
200100
400080
400040
800040
800040
800040
800040
800040
800040
400040
400080
200080
100100
080200
073C00
00C000
018000
010000
010000
01E000
ENDCHAR
STARTCHAR 01EB
ENCODING 491
SWIDTH 600 0
DWIDTH 15 0
BBX 13 18 1 -5
BITMAP
0F80
3060
4010
4010
8008
8008
8008
8008
8008
4010
4010
2020
1DC0
0200
0400
0400
0400
0780
ENDCHAR
STARTCHAR 01EE
ENCODING 494
SWIDTH 560 0
DWIDTH 14 0
BBX 12 22 1 0
BITMAP
1000
0980
0600
0000
FFF0
0020
0040
0040
0080
0100
0200
0400
0700
00C0
0020
0010
0010
0010
0010
0010
C020
3FC0
ENDCHAR
STARTCHAR 01EF
ENCODING 495
SWIDTH 480 0
DWIDTH 12 0
BBX 12 23 -1 -5
BITMAP
1000
0980
0600
0000
0000
7FE0
0020
0040
0080
0100
0100
0200
0400
0780
0060
0020
0010
0010
0010
0010
8010
4020
3FC0
ENDCHAR
STARTCHAR 01FA
ENCODING 506
SWIDTH 680 0
DWIDTH 17 0
BBX 17 25 0 1
BITMAP
001000
01E000
022000
022000
024000
018000
000000
008000
018000
014000
014000
022000
022000
041000
041000
080800
080800
100800
100400
1FFC00
200200
400200
400100
400100
800080
ENDCHAR
STARTCHAR 01FB
ENCODING 507
SWIDTH 560 0
DWIDTH 14 0
BBX 10 21 2 0
BITMAP
0080
0300
1E00
2200
2200
1400
0800
0000
3E00
C180
0080
0040
0040
0040
7F40
8040
8040
8040
80C0
8140
7E40
ENDCHAR
STARTCHAR 01FC
ENCODING 508
SWIDTH 1000 0
DWIDTH 25 0
BBX 23 22 0 0
BITMAP
000200
000400
001800
000000
001FFE
003000
003000
005000
009000
009000
011000
021000
021000
0417F8
041000
081000
0FF000
101000
201000
401000
401000
801FFC
ENDCHAR
STARTCHAR 01FD
ENCODING 509
SWIDTH 960 0
DWIDTH 24 0
BBX 21 18 2 0
BITMAP
001000
002000
004000
000000
000000
3F07C0
C09820
00A010
004008
004008
004000
7F5FF8
804000
804000
80C000
80A000
811010
7E0FE0
ENDCHAR
STARTCHAR 01FE
ENCODING 510
SWIDTH 800 0
DWIDTH 20 0
BBX 18 23 1 -2
BITMAP
000800
003000
004000
000080
004100
071E00
180200
200500
400880
401040
801040
802040
804040
804040
808040
810040
420040
420080
240080
180100
080200
173C00
20C000
ENDCHAR
STARTCHAR 01FF
ENCODING 511
SWIDTH 600 0
DWIDTH 15 0
BBX 13 20 1 -2
BITMAP
0080
0100
0200
0000
0010
0FA0
3060
4050
4090
8108
8108
8208
8408
8408
4810
5010
3020
2DC0
4200
4000
ENDCHAR
STARTCHAR 0200
ENCODING 512
SWIDTH 680 0
DWIDTH 17 0
BBX 17 22 0 0
BITMAP
090000
048000
024000
000000
008000
018000
014000
014000
022000
022000
041000
041000
080800
080800
100800
100400
1FFC00
200200
400200
400100
400100
800080
ENDCHAR
STARTCHAR 0201
ENCODING 513
SWIDTH 560 0
DWIDTH 14 0
BBX 10 18 2 0
BITMAP
8800
4400
2200
0000
0000
3E00
C180
0080
0040
0040
0040
7F40
8040
8040
8040
80C0
8140
7E40
ENDCHAR
STARTCHAR 0202
ENCODING 514
SWIDTH 680 0
DWIDTH 17 0
BBX 17 22 0 0
BITMAP
01C000
062000
041000
000000
008000
018000
014000
014000
022000
022000
041000
041000
080800
080800
100800
100400
1FFC00
200200
400200
400100
400100
800080
ENDCHAR
STARTCHAR 0203
ENCODING 515
SWIDTH 560 0
DWIDTH 14 0
BBX 10 18 2 0
BITMAP
1E00
6100
0000
0000
0000
3E00
C180
0080
0040
0040
0040
7F40
8040
8040
8040
80C0
8140
7E40
ENDCHAR
STARTCHAR 0204
ENCODING 516
SWIDTH 640 0
DWIDTH 16 0
BBX 12 22 3 0
BITMAP
4000
2400
1200
0100
FFF0
8000
8000
8000
8000
8000
8000
8000
8000
BF80
8000
8000
8000
8000
8000
8000
8000
FFE0
ENDCHAR
STARTCHAR 0205
ENCODING 517
SWIDTH 560 0
DWIDTH 14 0
BBX 12 18 1 0
BITMAP
2400
1200
0900
0000
0000
0F80
3040
4020
8010
8010
8010
FFF0
8000
8000
4000
4000
2020
1FC0
ENDCHAR
STARTCHAR 0206
ENCODING 518
SWIDTH 640 0
DWIDTH 16 0
BBX 12 22 3 0
BITMAP
0600
1980
2000
0000
FFF0
8000
8000
8000
8000
8000
8000
8000
8000
BF80
8000
8000
8000
8000
8000
8000
8000
FFE0
ENDCHAR
STARTCHAR 0207
ENCODING 519
SWIDTH 560 0
DWIDTH 14 0
BBX 12 18 1 0
BITMAP
0F00
1080
1040
0000
0000
0F80
3040
4020
8010
8010
8010
FFF0
8000
8000
4000
4000
2020
1FC0
ENDCHAR
STARTCHAR 0208
ENCODING 520
SWIDTH 280 0
DWIDTH 7 0
BBX 6 22 -1 0
BITMAP
90
48
24
00
08
08
08
08
08
08
08
08
08
08
08
08
08
08
08
08
08
08
ENDCHAR
STARTCHAR 0209
ENCODING 521
SWIDTH 240 0
DWIDTH 6 0
BBX 6 18 -1 0
BITMAP
10
88
44
00
00
00
10
10
10
10
10
10
10
10
10
10
10
10
ENDCHAR
STARTCHAR 020A
ENCODING 522
SWIDTH 280 0
DWIDTH 7 0
BBX 7 22 0 0
BITMAP
38
C4
82
00
10
10
10
10
10
10
10
10
10
10
10
10
10
10
10
10
10
10
ENDCHAR
STARTCHAR 020B
ENCODING 523
SWIDTH 240 0
DWIDTH 6 0
BBX 6 18 0 0
BITMAP
78
84
84
00
00
00
20
20
20
20
20
20
20
20
20
20
20
20
ENDCHAR
STARTCHAR 020C
ENCODING 524
SWIDTH 800 0
DWIDTH 20 0
BBX 18 22 1 0
BITMAP
008000
044000
022000
010000
004000
071C00
180200
200100
400080
400040
800040
800040
800040
800040
800040
800040
400040
400080
200080
100100
080200
07FC00
ENDCHAR
STARTCHAR 020D
ENCODING 525
SWIDTH 600 0
DWIDTH 15 0
BBX 13 18 1 0
BITMAP
2000
1200
0900
0000
0000
0F80
3060
4010
4010
8008
8008
8008
8008
8008
4010
4010
2020
1FC0
ENDCHAR
STARTCHAR 020E
ENCODING 526
SWIDTH 800 0
DWIDTH 20 0
BBX 18 22 1 0
BITMAP
00E000
031000
020800
000000
004000
071C00
180200
200100
400080
400040
800040
800040
800040
800040
800040
800040
400040
400080
200080
100100
080200
07FC00
ENDCHAR
STARTCHAR 020F
ENCODING 527
SWIDTH 600 0
DWIDTH 15 0
BBX 13 18 1 0
BITMAP
0780
1840
1040
0000
0000
0F80
3060
4010
4010
8008
8008
8008
8008
8008
4010
4010
2020
1FC0
ENDCHAR
STARTCHAR 0210
ENCODING 528
SWIDTH 680 0
DWIDTH 17 0
BBX 13 22 3 0
BITMAP
4400
2200
1100
0000
FC00
83E0
8010
8010
8008
8008
8008
8008
8008
8010
8020
81C0
FE80
8040
8020
8010
8010
8008
ENDCHAR
STARTCHAR 0211
ENCODING 529
SWIDTH 360 0
DWIDTH 9 0
BBX 7 18 1 0
BITMAP
80
48
24
00
00
06
58
60
20
20
40
40
40
40
40
40
40
40
ENDCHAR
STARTCHAR 0212
ENCODING 530
SWIDTH 680 0
DWIDTH 17 0
BBX 13 22 3 0
BITMAP
0700
1880
2000
0000
FC00
83E0
8010
8010
8008
8008
8008
8008
8008
8010
8020
81C0
FE80
8040
8020
8010
8010
8008
ENDCHAR
STARTCHAR 0213
ENCODING 531
SWIDTH 360 0
DWIDTH 9 0
BBX 7 18 2 0
BITMAP
3C
C2
82
00
00
0C
B0
C0
40
40
80
80
80
80
80
80
80
80
ENDCHAR
STARTCHAR 0214
ENCODING 532
SWIDTH 760 0
DWIDTH 19 0
BBX 14 22 3 0
BITMAP
2000
1200
0900
0080
8004
8004
8004
8004
8004
8004
8004
8004
8004
8004
8004
8004
8004
8008
8008
4010
2010
1FE0
ENDCHAR
STARTCHAR 0215
ENCODING 533
SWIDTH 640 0
DWIDTH 16 0
BBX 11 18 3 0
BITMAP
0800
4400
2200
0000
0000
0020
8020
8020
8020
8020
8020
8020
8020
8020
8020
8060
40A0
3F20
ENDCHAR
STARTCHAR 0216
ENCODING 534
SWIDTH 760 0
DWIDTH 19 0
BBX 14 22 3 0
BITMAP
0300
0CC0
1000
0000
8004
8004
8004
8004
8004
8004
8004
8004
8004
8004
8004
8004
8004
8008
8008
4010
2010
1FE0
ENDCHAR
STARTCHAR 0217
ENCODING 535
SWIDTH 640 0
DWIDTH 16 0
BBX 11 18 3 0
BITMAP
1E00
2100
0000
0000
0000
0020
8020
8020
8020
8020
8020
8020
8020
8020
8020
8060
40A0
3F20
ENDCHAR
STARTCHAR 0218
ENCODING 536
SWIDTH 600 0
DWIDTH 15 0
BBX 13 24 1 -6
BITMAP
0200
1CE0
6000
4000
C000
8000
4000
2000
1800
0780
0060
0010
0010
0008
0008
0010
4020
3CC0
0300
0000
0000
0300
0200
0200
ENDCHAR
STARTCHAR 0219
ENCODING 537
SWIDTH 440 0
DWIDTH 11 0
BBX 10 19 1 -6
BITMAP
3F00
4080
8000
8000
8000
4000
3C00
0380
0080
0040
0040
8080
7300
0C00
0000
0000
0800
0800
0800
ENDCHAR
STARTCHAR 021A
ENCODING 538
SWIDTH 520 0
DWIDTH 13 0
BBX 14 24 0 -6
BITMAP
FFFC
0200
0200
0200
0200
0200
0200
0200
0200
0200
0200
0200
0200
0200
0200
0200
0200
0200
0000
0000
0000
0200
0200
0200
ENDCHAR
STARTCHAR 021B
ENCODING 539
SWIDTH 360 0
DWIDTH 9 0
BBX 7 22 1 -6
BITMAP
20
20
20
FE
20
20
20
20
20
20
20
20
20
20
20
1A
04
00
00
0C
04
08
ENDCHAR
STARTCHAR 021E
ENCODING 542
SWIDTH 800 0
DWIDTH 20 0
BBX 14 22 3 0
BITMAP
0800
04C0
0300
0000
8000
8004
8004
8004
8004
8004
8004
8004
8004
BFFC
8004
8004
8004
8004
8004
8004
8004
8004
ENDCHAR
STARTCHAR 021F
ENCODING 543
SWIDTH 640 0
DWIDTH 16 0
BBX 14 24 0 0
BITMAP
0200
CC00
3000
0000
0000
0000
2000
2000
2000
2000
2000
23E0
2C18
3008
1004
1004
2004
2004
2004
2004
2004
2004
2004
2004
ENDCHAR
STARTCHAR 022A
ENCODING 554
SWIDTH 800 0
DWIDTH 20 0
BBX 18 23 1 0
BITMAP
03F800
000000
011000
000000
000000
004000
071C00
180200
200100
400080
400040
800040
800040
800040
800040
800040
800040
400040
400080
200080
100100
080200
07FC00
ENDCHAR
STARTCHAR 022B
ENCODING 555
SWIDTH 600 0
DWIDTH 15 0
BBX 13 19 1 0
BITMAP
0FC0
0000
0880
0000
0000
0000
0F80
3060
4010
4010
8008
8008
8008
8008
8008
4010
4010
2020
1FC0
ENDCHAR
STARTCHAR 022C
ENCODING 556
SWIDTH 800 0
DWIDTH 20 0
BBX 18 23 1 0
BITMAP
03F800
000000
038800
027000
000000
004000
071C00
180200
200100
400080
400040
800040
800040
800040
800040
800040
800040
400040
400080
200080
100100
080200
07FC00
ENDCHAR
STARTCHAR 022D
ENCODING 557
SWIDTH 600 0
DWIDTH 15 0
BBX 13 19 1 0
BITMAP
0FC0
0000
1E40
0180
0000
0000
0F80
3060
4010
4010
8008
8008
8008
8008
8008
4010
4010
2020
1FC0
ENDCHAR
STARTCHAR 0230
ENCODING 560
SWIDTH 800 0
DWIDTH 20 0
BBX 18 23 1 0
BITMAP
03F800
000000
004000
000000
000000
004000
071C00
180200
200100
400080
400040
800040
800040
800040
800040
800040
800040
400040
400080
200080
100100
080200
07FC00
ENDCHAR
STARTCHAR 0231
ENCODING 561
SWIDTH 600 0
DWIDTH 15 0
BBX 13 19 1 0
BITMAP
0FC0
0000
0200
0000
0000
0000
0F80
3060
4010
4010
8008
8008
8008
8008
8008
4010
4010
2020
1FC0
ENDCHAR
STARTCHAR 0232
ENCODING 562
SWIDTH 600 0
DWIDTH 15 0
BBX 15 21 0 0
BITMAP
0FE0
0000
0000
8002
8004
4004
2008
2008
1010
0820
0820
0440
0480
0280
0100
0100
0100
0100
0100
0100
0100
ENDCHAR
STARTCHAR 0233
ENCODING 563
SWIDTH 480 0
DWIDTH 12 0
BBX 13 22 -1 -5
BITMAP
0FC0
0000
0000
0000
4000
4008
2010
2010
1010
1020
0820
0840
0440
0480
0480
0300
0100
0200
0200
0400
8400
7800
ENDCHAR
STARTCHAR 0237
ENCODING 567
SWIDTH 240 0
DWIDTH 6 0
BBX 6 18 -2 -5
BITMAP
04
04
04
04
04
04
04
04
04
04
04
04
04
04
04
08
08
F0
ENDCHAR
STARTCHAR 0259
ENCODING 601
SWIDTH 560 0
DWIDTH 14 0
BBX 12 13 1 0
BITMAP
1F80
6040
0020
0010
0010
0010
0010
FFF0
8010
8010
4020
2040
1F80
ENDCHAR
STARTCHAR 0292
ENCODING 658
SWIDTH 480 0
DWIDTH 12 0
BBX 12 18 -1 -5
BITMAP
7FE0
0020
0040
0080
0100
0100
0200
0400
0780
0060
0020
0010
0010
0010
0010
8010
4020
3FC0
ENDCHAR
STARTCHAR 02B9
ENCODING 697
SWIDTH 160 0
DWIDTH 4 0
BBX 1 7 2 11
BITMAP
80
80
80
80
80
80
80
ENDCHAR
STARTCHAR 02BA
ENCODING 698
SWIDTH 320 0
DWIDTH 8 0
BBX 4 7 2 11
BITMAP
80
90
90
90
90
90
80
ENDCHAR
STARTCHAR 02BB
ENCODING 699
SWIDTH 240 0
DWIDTH 6 0
BBX 2 5 2 15
BITMAP
40
80
80
80
40
ENDCHAR
STARTCHAR 02BC
ENCODING 700
SWIDTH 160 0
DWIDTH 4 0
BBX 1 4 2 14
BITMAP
80
80
80
80
ENDCHAR
STARTCHAR 02BE
ENCODING 702
SWIDTH 600 0
DWIDTH 15 0
BBX 3 5 7 15
BITMAP
80
40
20
20
40
ENDCHAR
STARTCHAR 02BF
ENCODING 703
SWIDTH 600 0
DWIDTH 15 0
BBX 2 4 5 16
BITMAP
C0
80
80
40
ENDCHAR
STARTCHAR 02C6
ENCODING 710
SWIDTH 600 0
DWIDTH 15 0
BBX 7 3 4 15
BITMAP
30
4C
82
ENDCHAR
STARTCHAR 02C7
ENCODING 711
SWIDTH 600 0
DWIDTH 15 0
BBX 6 3 4 15
BITMAP
80
4C
30
ENDCHAR
STARTCHAR 02C8
ENCODING 712
SWIDTH 120 0
DWIDTH 3 0
BBX 1 4 1 13
BITMAP
80
80
80
80
ENDCHAR
STARTCHAR 02C9
ENCODING 713
SWIDTH 600 0
DWIDTH 15 0
BBX 7 1 4 16
BITMAP
FE
ENDCHAR
STARTCHAR 02CA
ENCODING 714
SWIDTH 600 0
DWIDTH 15 0
BBX 3 3 7 15
BITMAP
20
40
80
ENDCHAR
STARTCHAR 02CB
ENCODING 715
SWIDTH 600 0
DWIDTH 15 0
BBX 3 3 5 15
BITMAP
80
40
20
ENDCHAR
STARTCHAR 02CC
ENCODING 716
SWIDTH 120 0
DWIDTH 3 0
BBX 1 4 1 -5
BITMAP
80
80
80
80
ENDCHAR
STARTCHAR 02D8
ENCODING 728
SWIDTH 600 0
DWIDTH 15 0
BBX 7 3 4 15
BITMAP
82
84
78
ENDCHAR
STARTCHAR 02D9
ENCODING 729
SWIDTH 600 0
DWIDTH 15 0
BBX 1 1 7 16
BITMAP
80
ENDCHAR
STARTCHAR 02DA
ENCODING 730
SWIDTH 600 0
DWIDTH 15 0
BBX 5 5 5 15
BITMAP
20
D0
88
88
70
ENDCHAR
STARTCHAR 02DB
ENCODING 731
SWIDTH 600 0
DWIDTH 15 0
BBX 4 5 4 -5
BITMAP
60
80
80
80
F0
ENDCHAR
STARTCHAR 02DC
ENCODING 732
SWIDTH 600 0
DWIDTH 15 0
BBX 7 3 4 15
BITMAP
62
92
0C
ENDCHAR
STARTCHAR 02DD
ENCODING 733
SWIDTH 600 0
DWIDTH 15 0
BBX 6 3 6 15
BITMAP
24
48
90
ENDCHAR
STARTCHAR 0300
ENCODING 768
SWIDTH 0 0
DWIDTH 0 0
BBX 3 3 5 15
BITMAP
80
40
20
ENDCHAR
STARTCHAR 0301
ENCODING 769
SWIDTH 0 0
DWIDTH 0 0
BBX 3 3 7 15
BITMAP
20
40
80
ENDCHAR
STARTCHAR 0302
ENCODING 770
SWIDTH 0 0
DWIDTH 0 0
BBX 7 3 4 15
BITMAP
30
4C
82
ENDCHAR
STARTCHAR 0303
ENCODING 771
SWIDTH 0 0
DWIDTH 0 0
BBX 7 3 4 15
BITMAP
62
92
0C
ENDCHAR
STARTCHAR 0304
ENCODING 772
SWIDTH 0 0
DWIDTH 0 0
BBX 7 1 4 16
BITMAP
FE
ENDCHAR
STARTCHAR 0306
ENCODING 774
SWIDTH 0 0
DWIDTH 0 0
BBX 7 3 4 15
BITMAP
82
84
78
ENDCHAR
STARTCHAR 0307
ENCODING 775
SWIDTH 0 0
DWIDTH 0 0
BBX 1 1 7 16
BITMAP
80
ENDCHAR
STARTCHAR 0308
ENCODING 776
SWIDTH 0 0
DWIDTH 0 0
BBX 5 1 5 16
BITMAP
88
ENDCHAR
STARTCHAR 0309
ENCODING 777
SWIDTH 0 0
DWIDTH 0 0
BBX 3 4 6 15
BITMAP
E0
20
20
40
ENDCHAR
STARTCHAR 030A
ENCODING 778
SWIDTH 0 0
DWIDTH 0 0
BBX 5 5 5 15
BITMAP
20
D0
88
88
70
ENDCHAR
STARTCHAR 030B
ENCODING 779
SWIDTH 0 0
DWIDTH 0 0
BBX 6 3 6 15
BITMAP
24
48
90
ENDCHAR
STARTCHAR 030C
ENCODING 780
SWIDTH 0 0
DWIDTH 0 0
BBX 6 3 4 15
BITMAP
80
4C
30
ENDCHAR
STARTCHAR 030F
ENCODING 783
SWIDTH 0 0
DWIDTH 0 0
BBX 6 3 3 15
BITMAP
90
48
24
ENDCHAR
STARTCHAR 0311
ENCODING 785
SWIDTH 0 0
DWIDTH 0 0
BBX 7 3 4 15
BITMAP
38
C4
82
ENDCHAR
STARTCHAR 0312
ENCODING 786
SWIDTH 0 0
DWIDTH 0 0
BBX 1 3 7 16
BITMAP
80
80
80
ENDCHAR
STARTCHAR 031B
ENCODING 795
SWIDTH 0 0
DWIDTH 0 0
BBX 3 4 7 13
BITMAP
20
20
40
80
ENDCHAR
STARTCHAR 0323
ENCODING 803
SWIDTH 0 0
DWIDTH 0 0
BBX 1 1 7 -4
BITMAP
80
ENDCHAR
STARTCHAR 0324
ENCODING 804
SWIDTH 0 0
DWIDTH 0 0
BBX 5 1 5 -4
BITMAP
88
ENDCHAR
STARTCHAR 0326
ENCODING 806
SWIDTH 0 0
DWIDTH 0 0
BBX 1 3 7 -6
BITMAP
80
80
80
ENDCHAR
STARTCHAR 0327
ENCODING 807
SWIDTH 0 0
DWIDTH 0 0
BBX 4 5 5 -5
BITMAP
20
20
10
10
F0
ENDCHAR
STARTCHAR 0328
ENCODING 808
SWIDTH 0 0
DWIDTH 0 0
BBX 4 5 4 -5
BITMAP
60
80
80
80
F0
ENDCHAR
STARTCHAR 032E
ENCODING 814
SWIDTH 0 0
DWIDTH 0 0
BBX 7 3 4 -5
BITMAP
82
84
78
ENDCHAR
STARTCHAR 0331
ENCODING 817
SWIDTH 0 0
DWIDTH 0 0
BBX 7 1 4 -4
BITMAP
FE
ENDCHAR
STARTCHAR 0335
ENCODING 821
SWIDTH 0 0
DWIDTH 0 0
BBX 7 1 4 11
BITMAP
FE
ENDCHAR
STARTCHAR 0336
ENCODING 822
SWIDTH 0 0
DWIDTH 0 0
BBX 18 1 1 11
BITMAP
FFFFC0
ENDCHAR
STARTCHAR 0337
ENCODING 823
SWIDTH 0 0
DWIDTH 0 0
BBX 4 3 2 7
BITMAP
10
60
80
ENDCHAR
STARTCHAR 0338
ENCODING 824
SWIDTH 0 0
DWIDTH 0 0
BBX 11 15 2 -1
BITMAP
0020
0040
0080
0080
0100
0200
0200
0400
0800
0800
1000
2000
2000
4000
8000
ENDCHAR
STARTCHAR 0394
ENCODING 916
SWIDTH 680 0
DWIDTH 17 0
BBX 17 18 0 0
BITMAP
008000
018000
014000
014000
022000
022000
041000
041000
080800
080800
100800
100400
200400
200200
400200
400100
800100
FFFF80
ENDCHAR
STARTCHAR 03A9
ENCODING 937
SWIDTH 880 0
DWIDTH 22 0
BBX 23 18 0 0
BITMAP
001000
01C700
060080
080040
100020
100010
200010
200010
200010
200010
200010
200010
100010
100020
080020
080040
060080
FF01FE
ENDCHAR
STARTCHAR 03BC
ENCODING 956
SWIDTH 640 0
DWIDTH 16 0
BBX 11 17 3 -5
BITMAP
0020
8020
8020
8020
8020
8020
8020
8020
8020
8020
8060
C0A0
BB20
8400
8000
8000
8000
ENDCHAR
STARTCHAR 03C0
ENCODING 960
SWIDTH 680 0
DWIDTH 17 0
BBX 18 13 0 0
BITMAP
3FFFC0
C20800
840800
840800
840800
840800
040800
040800
040800
040800
040800
080800
080800
ENDCHAR
STARTCHAR 0400
ENCODING 1024
SWIDTH 640 0
DWIDTH 16 0
BBX 12 22 3 0
BITMAP
1000
0800
0400
0200
FFF0
8000
8000
8000
8000
8000
8000
8000
8000
BFC0
8000
8000
8000
8000
8000
8000
8000
FFE0
ENDCHAR
STARTCHAR 0401
ENCODING 1025
SWIDTH 640 0
DWIDTH 16 0
BBX 12 21 3 0
BITMAP
1880
0000
0000
FFF0
8000
8000
8000
8000
8000
8000
8000
8000
BFC0
8000
8000
8000
8000
8000
8000
8000
FFE0
ENDCHAR
STARTCHAR 0402
ENCODING 1026
SWIDTH 800 0
DWIDTH 20 0
BBX 19 18 0 0
BITMAP
FFFC00
020000
020000
020000
020000
020000
020000
020000
027F80
038040
020020
020020
020020
020020
020020
020040
020040
021F80
ENDCHAR
STARTCHAR 0403
ENCODING 1027
SWIDTH 560 0
DWIDTH 14 0
BBX 11 22 3 0
BITMAP
0080
0300
0400
0000
FFE0
8000
8000
8000
8000
8000
8000
8000
8000
8000
8000
8000
8000
8000
8000
8000
8000
8000
ENDCHAR
STARTCHAR 0404
ENCODING 1028
SWIDTH 680 0
DWIDTH 17 0
BBX 14 18 2 0
BITMAP
01C0
0E38
3004
4000
4000
8000
8000
8000
8000
FFC0
8000
8000
8000
8000
4000
2000
1004
0FF8
ENDCHAR
STARTCHAR 0405
ENCODING 1029
SWIDTH 600 0
DWIDTH 15 0
BBX 12 18 2 0
BITMAP
0400
39C0
C000
8000
8000
8000
8000
4000
1000
0F00
00C0
0020
0010
0010
0010
0020
8020
7FC0
ENDCHAR
STARTCHAR 0406
ENCODING 1030
SWIDTH 280 0
DWIDTH 7 0
BBX 1 18 3 0
BITMAP
80
80
80
80
80
80
80
80
80
80
80
80
80
80
80
80
80
80
ENDCHAR
STARTCHAR 0407
ENCODING 1031
SWIDTH 280 0
DWIDTH 7 0
BBX 5 21 1 0
BITMAP
88
00
00
20
20
20
20
20
20
20
20
20
20
20
20
20
20
20
20
20
20
ENDCHAR
STARTCHAR 0408
ENCODING 1032
SWIDTH 480 0
DWIDTH 12 0
BBX 8 18 1 0
BITMAP
7F
01
01
01
01
01
01
01
01
01
01
01
01
01
01
01
82
7C
ENDCHAR
STARTCHAR 0409
ENCODING 1033
SWIDTH 1160 0
DWIDTH 29 0
BBX 28 18 0 0
BITMAP
07FF0000
04010000
08010000
08010000
08010000
08010000
08010000
0801FF80
08010060
08010010
08010010
08010010
08010010
08010010
08010010
10010010
10010020
E001FFC0
ENDCHAR
STARTCHAR 040A
ENCODING 1034
SWIDTH 1160 0
DWIDTH 29 0
BBX 26 18 3 0
BITMAP
80040000
80040000
80040000
80040000
80040000
80040000
80040000
80040000
FFFFFC00
80040300
80040080
80040080
80040040
80040040
80040080
80040080
80040100
8007FC00
ENDCHAR
STARTCHAR 040B
ENCODING 1035
SWIDTH 800 0
DWIDTH 20 0
BBX 19 18 0 0
BITMAP
FFFC00
020000
020000
020000
020000
020000
020000
020000
027F80
038040
020020
020020
020020
020020
020020
020020
020020
020020
ENDCHAR
STARTCHAR 040C
ENCODING 1036
SWIDTH 680 0
DWIDTH 17 0
BBX 13 22 3 0
BITMAP
0080
0300
0400
0000
8008
8010
8020
8040
8040
8080
8100
8200
8400
BC00
8200
8100
8080
8040
8040
8020
8010
8008
ENDCHAR
STARTCHAR 040D
ENCODING 1037
SWIDTH 800 0
DWIDTH 20 0
BBX 14 22 3 0
BITMAP
0800
0400
0300
0000
8000
8004
800C
8014
8024
8024
8044
8084
8104
8204
8204
8404
8804
9004
9004
A004
C004
8004
ENDCHAR
STARTCHAR 040E
ENCODING 1038
SWIDTH 640 0
DWIDTH 16 0
BBX 15 22 1 0
BITMAP
1020
1040
0C80
0300
0002
8004
8004
4008
4008
2010
2010
1020
1820
0840
0440
0480
0300
0100
0200
0200
0400
7800
ENDCHAR
STARTCHAR 040F
ENCODING 1039
SWIDTH 800 0
DWIDTH 20 0
BBX 14 22 3 -4
BITMAP
8004
8004
8004
8004
8004
8004
8004
8004
8004
8004
8004
8004
8004
8004
8004
8004
8004
8004
7FF8
0200
0200
0200
ENDCHAR
STARTCHAR 0410
ENCODING 1040
SWIDTH 680 0
DWIDTH 17 0
BBX 16 17 1 1
BITMAP
0180
0280
0240
0440
0420
0820
0820
0810
1010
1008
2008
3FFC
4004
4002
8002
8001
8001
ENDCHAR
STARTCHAR 0411
ENCODING 1041
SWIDTH 680 0
DWIDTH 17 0
BBX 13 18 3 0
BITMAP
FFF0
8000
8000
8000
8000
8000
8000
8000
FFC0
8030
8008
8008
8008
8008
8008
8008
8010
FFE0
ENDCHAR
STARTCHAR 0412
ENCODING 1042
SWIDTH 720 0
DWIDTH 18 0
BBX 14 18 3 0
BITMAP
FE00
81E0
8010
8008
8008
8008
8008
8010
8020
FFE0
8018
8008
8004
8004
8004
8008
8008
FFF0
ENDCHAR
STARTCHAR 0413
ENCODING 1043
SWIDTH 560 0
DWIDTH 14 0
BBX 11 18 3 0
BITMAP
FFE0
8000
8000
8000
8000
8000
8000
8000
8000
8000
8000
8000
8000
8000
8000
8000
8000
8000
ENDCHAR
STARTCHAR 0414
ENCODING 1044
SWIDTH 760 0
DWIDTH 19 0
BBX 18 22 0 -4
BITMAP
07FF00
080100
080100
080100
080100
080100
080100
080100
080100
080100
080100
080100
080100
100100
100100
100100
200100
600100
9FFEC0
800040
800040
800040
ENDCHAR
STARTCHAR 0415
ENCODING 1045
SWIDTH 640 0
DWIDTH 16 0
BBX 12 18 3 0
BITMAP
FFF0
8000
8000
8000
8000
8000
8000
8000
8000
BFC0
8000
8000
8000
8000
8000
8000
8000
FFE0
ENDCHAR
STARTCHAR 0416
ENCODING 1046
SWIDTH 960 0
DWIDTH 24 0
BBX 22 18 1 0
BITMAP
800004
402008
402008
202010
102020
102020
082040
042080
022100
03EF00
042080
082040
102020
102020
202010
402008
402008
802004
ENDCHAR
STARTCHAR 0417
ENCODING 1047
SWIDTH 600 0
DWIDTH 15 0
BBX 13 18 1 0
BITMAP
0600
39C0
4020
0010
0010
0010
0020
0020
00C0
0F40
0030
0010
0010
0008
0010
8010
4020
3FC0
ENDCHAR
STARTCHAR 0418
ENCODING 1048
SWIDTH 800 0
DWIDTH 20 0
BBX 14 18 3 0
BITMAP
8000
8004
800C
8014
8024
8024
8044
8084
8104
8204
8204
8404
8804
9004
9004
A004
C004
8004
ENDCHAR
STARTCHAR 0419
ENCODING 1049
SWIDTH 800 0
DWIDTH 20 0
BBX 14 22 3 0
BITMAP
0020
0820
04C0
0300
8000
8004
800C
8014
8024
8024
8044
8084
8104
8204
8204
8404
8804
9004
9004
A004
C004
8004
ENDCHAR
STARTCHAR 041A
ENCODING 1050
SWIDTH 680 0
DWIDTH 17 0
BBX 13 18 3 0
BITMAP
8008
8010
8020
8040
8040
8080
8100
8200
8400
BC00
8200
8100
8080
8040
8040
8020
8010
8008
ENDCHAR
STARTCHAR 041B
ENCODING 1051
SWIDTH 760 0
DWIDTH 19 0
BBX 16 18 0 0
BITMAP
07FF
0401
0801
0801
0801
0801
0801
0801
0801
0801
0801
0801
0801
0801
0801
1001
1001
E001
ENDCHAR
STARTCHAR 041C
ENCODING 1052
SWIDTH 960 0
DWIDTH 24 0
BBX 18 18 3 0
BITMAP
800040
800040
C000C0
A00140
A00140
900240
900440
880440
880840
840840
821040
821040
812040
814040
80C040
800040
800040
800040
ENDCHAR
STARTCHAR 041D
ENCODING 1053
SWIDTH 800 0
DWIDTH 20 0
BBX 14 18 3 0
BITMAP
8000
8004
8004
8004
8004
8004
8004
8004
8004
BFFC
8004
8004
8004
8004
8004
8004
8004
8004
ENDCHAR
STARTCHAR 041E
ENCODING 1054
SWIDTH 840 0
DWIDTH 21 0
BBX 18 18 2 0
BITMAP
00C000
0F3800
100600
600100
400100
800080
800080
800040
800040
800040
800040
800080
800080
800080
400100
200200
100400
0FF800
ENDCHAR
STARTCHAR 041F
ENCODING 1055
SWIDTH 800 0
DWIDTH 20 0
BBX 14 18 3 0
BITMAP
FFFC
8004
8004
8004
8004
8004
8004
8004
8004
8004
8004
8004
8004
8004
8004
8004
8004
8004
ENDCHAR
STARTCHAR 0420
ENCODING 1056
SWIDTH 680 0
DWIDTH 17 0
BBX 13 18 3 0
BITMAP
FE00
81E0
8010
8008
8008
8008
8008
8008
8008
8010
8020
81C0
FE00
8000
8000
8000
8000
8000
ENDCHAR
STARTCHAR 0421
ENCODING 1057
SWIDTH 680 0
DWIDTH 17 0
BBX 14 18 2 0
BITMAP
00C0
0F38
1004
6000
4000
8000
8000
8000
8000
8000
8000
8000
8000
8000
4000
2000
1004
0FF8
ENDCHAR
STARTCHAR 0422
ENCODING 1058
SWIDTH 520 0
DWIDTH 13 0
BBX 14 18 0 0
BITMAP
FFFC
0200
0200
0200
0200
0200
0200
0200
0200
0200
0200
0200
0200
0200
0200
0200
0200
0200
ENDCHAR
STARTCHAR 0423
ENCODING 1059
SWIDTH 640 0
DWIDTH 16 0
BBX 15 18 1 0
BITMAP
0002
8004
8004
4008
4008
2010
2010
1020
1820
0840
0440
0480
0300
0100
0200
0200
0400
7800
ENDCHAR
STARTCHAR 0424
ENCODING 1060
SWIDTH 880 0
DWIDTH 22 0
BBX 20 18 1 -1
BITMAP
004000
004000
07FE00
184180
204040
404020
404020
804010
804010
804010
804010
804010
404020
404020
304040
084180
07FE00
004000
ENDCHAR
STARTCHAR 0425
ENCODING 1061
SWIDTH 600 0
DWIDTH 15 0
BBX 13 18 1 0
BITMAP
8008
4010
4010
2020
1040
0880
0880
0500
0200
0200
0500
0880
1040
1040
2020
4010
4010
8008
ENDCHAR
STARTCHAR 0426
ENCODING 1062
SWIDTH 800 0
DWIDTH 20 0
BBX 17 22 3 -4
BITMAP
800400
800400
800400
800400
800400
800400
800400
800400
800400
800400
800400
800400
800400
800400
800400
800400
800400
800400
7FFB80
000080
000080
000080
ENDCHAR
STARTCHAR 0427
ENCODING 1063
SWIDTH 720 0
DWIDTH 18 0
BBX 13 18 2 0
BITMAP
0008
8008
8008
8008
8008
8008
8008
8008
8008
8008
6038
17C8
0008
0008
0008
0008
0008
0008
ENDCHAR
STARTCHAR 0428
ENCODING 1064
SWIDTH 1080 0
DWIDTH 27 0
BBX 21 18 3 0
BITMAP
802008
802008
802008
802008
802008
802008
802008
802008
802008
802008
802008
802008
802008
802008
802008
802008
802008
FFFFF8
ENDCHAR
STARTCHAR 0429
ENCODING 1065
SWIDTH 1080 0
DWIDTH 27 0
BBX 24 22 3 -4
BITMAP
802008
802008
802008
802008
802008
802008
802008
802008
802008
802008
802008
802008
802008
802008
802008
802008
802008
802008
7FDFF7
000001
000001
000001
ENDCHAR
STARTCHAR 042A
ENCODING 1066
SWIDTH 800 0
DWIDTH 20 0
BBX 19 18 0 0
BITMAP
FC0000
040000
040000
040000
040000
040000
040000
03FE00
040180
040040
040020
040020
040020
040020
040040
040040
040080
07FE00
ENDCHAR
STARTCHAR 042B
ENCODING 1067
SWIDTH 920 0
DWIDTH 23 0
BBX 17 18 3 0
BITMAP
800000
800080
800080
800080
800080
800080
800080
FFC080
803080
800880
800880
800880
800880
800880
800880
800880
801080
FFE080
ENDCHAR
STARTCHAR 042C
ENCODING 1068
SWIDTH 680 0
DWIDTH 17 0
BBX 13 18 3 0
BITMAP
8000
8000
8000
8000
8000
8000
8000
FFC0
8030
8008
8008
8008
8008
8008
8008
8008
8010
FFE0
ENDCHAR
STARTCHAR 042D
ENCODING 1069
SWIDTH 680 0
DWIDTH 17 0
BBX 15 18 1 0
BITMAP
0700
38E0
C010
0008
0004
0004
0004
0002
0002
07FE
0002
0002
0004
0004
0008
0010
4020
3FC0
ENDCHAR
STARTCHAR 042E
ENCODING 1070
SWIDTH 1080 0
DWIDTH 27 0
BBX 22 18 3 0
BITMAP
800600
8039C0
80C020
810010
820008
820008
840004
840004
840004
F40004
840004
840004
840004
820008
820008
810010
80C020
803FC0
ENDCHAR
STARTCHAR 042F
ENCODING 1071
SWIDTH 720 0
DWIDTH 18 0
BBX 13 18 2 0
BITMAP
01F8
1E08
6008
8008
8008
8008
8008
8008
8008
8008
4008
3008
0FF8
1008
2008
4008
4008
8008
ENDCHAR
STARTCHAR 0430
ENCODING 1072
SWIDTH 560 0
DWIDTH 14 0
BBX 10 13 2 0
BITMAP
3E00
C180
0080
0040
0040
0040
7F40
8040
8040
8040
80C0
8140
7E40
ENDCHAR
STARTCHAR 0431
ENCODING 1073
SWIDTH 640 0
DWIDTH 16 0
BBX 13 19 2 0
BITMAP
0030
03C0
0C00
3000
4000
C000
8700
98C0
E020
C010
8010
8008
8008
8008
8010
4010
4010
2020
1FC0
ENDCHAR
STARTCHAR 0432
ENCODING 1074
SWIDTH 560 0
DWIDTH 14 0
BBX 10 13 3 0
BITMAP
FE00
8180
8080
8080
8080
8080
FF00
8080
8040
8040
8040
8080
FF00
ENDCHAR
STARTCHAR 0433
ENCODING 1075
SWIDTH 440 0
DWIDTH 11 0
BBX 8 13 3 0
BITMAP
FF
80
80
80
80
80
80
80
80
80
80
80
80
ENDCHAR
STARTCHAR 0434
ENCODING 1076
SWIDTH 600 0
DWIDTH 15 0
BBX 14 16 0 -3
BITMAP
0FF0
1010
1010
1010
1010
1010
1010
1010
1010
1010
2010
2010
4000
BFFC
8004
8004
ENDCHAR
STARTCHAR 0435
ENCODING 1077
SWIDTH 560 0
DWIDTH 14 0
BBX 12 13 2 0
BITMAP
1F00
60C0
8040
8020
8020
8020
FFF0
8000
8000
8000
8000
4040
3F80
ENDCHAR
STARTCHAR 0436
ENCODING 1078
SWIDTH 760 0
DWIDTH 19 0
BBX 17 13 1 0
BITMAP
808080
408100
408100
208200
108400
088800
07F800
088400
108400
208200
408100
808080
808080
ENDCHAR
STARTCHAR 0437
ENCODING 1079
SWIDTH 480 0
DWIDTH 12 0
BBX 10 13 1 0
BITMAP
3E00
4180
0080
0040
0080
0100
1F00
0080
0040
0040
0040
8080
7F00
ENDCHAR
STARTCHAR 0438
ENCODING 1080
SWIDTH 640 0
DWIDTH 16 0
BBX 11 13 3 0
BITMAP
0020
8060
80A0
8120
8220
8220
8420
8820
9020
A020
C020
C020
8020
ENDCHAR
STARTCHAR 0439
ENCODING 1081
SWIDTH 640 0
DWIDTH 16 0
BBX 11 18 3 0
BITMAP
2080
2100
1E00
0000
0000
0020
8060
80A0
8120
8220
8220
8420
8820
9020
A020
C020
C020
8020
ENDCHAR
STARTCHAR 043A
ENCODING 1082
SWIDTH 520 0
DWIDTH 13 0
BBX 10 12 3 1
BITMAP
8080
8100
8200
8400
8800
F000
8800
8400
8200
8100
8080
8040
ENDCHAR
STARTCHAR 043B
ENCODING 1083
SWIDTH 600 0
DWIDTH 15 0
BBX 11 13 1 0
BITMAP
1FE0
2020
2020
2020
2020
2020
2020
2020
2020
2020
4020
4020
8020
ENDCHAR
STARTCHAR 043C
ENCODING 1084
SWIDTH 760 0
DWIDTH 19 0
BBX 13 13 3 0
BITMAP
8000
8008
C018
C018
A028
9048
9048
8888
8908
8508
8208
8008
8000
ENDCHAR
STARTCHAR 043D
ENCODING 1085
SWIDTH 640 0
DWIDTH 16 0
BBX 11 13 3 0
BITMAP
0020
8020
8020
8020
8020
8020
FFE0
8020
8020
8020
8020
8020
8020
ENDCHAR
STARTCHAR 043E
ENCODING 1086
SWIDTH 600 0
DWIDTH 15 0
BBX 12 13 2 0
BITMAP
1F00
60C0
8020
8020
8010
8010
8010
8010
8010
8010
8020
4040
3F80
ENDCHAR
STARTCHAR 043F
ENCODING 1087
SWIDTH 640 0
DWIDTH 16 0
BBX 11 13 3 0
BITMAP
FFE0
8020
8020
8020
8020
8020
8020
8020
8020
8020
8020
8020
8020
ENDCHAR
STARTCHAR 0440
ENCODING 1088
SWIDTH 680 0
DWIDTH 17 0
BBX 12 17 3 -5
BITMAP
0F80
B040
C020
8010
8010
8010
8010
8010
8010
8010
C020
A040
9980
8600
8000
8000
8000
ENDCHAR
STARTCHAR 0441
ENCODING 1089
SWIDTH 520 0
DWIDTH 13 0
BBX 10 13 2 0
BITMAP
1F00
20C0
C000
8000
8000
8000
8000
8000
8000
8000
8000
4040
3F80
ENDCHAR
STARTCHAR 0442
ENCODING 1090
SWIDTH 400 0
DWIDTH 10 0
BBX 11 13 0 0
BITMAP
FFE0
0400
0400
0400
0400
0400
0400
0400
0400
0400
0400
0400
0400
ENDCHAR
STARTCHAR 0443
ENCODING 1091
SWIDTH 520 0
DWIDTH 13 0
BBX 13 18 0 -5
BITMAP
0008
4010
4010
2020
2020
2040
1040
1080
0880
0900
0500
0500
0200
0200
0400
0400
0800
F000
ENDCHAR
STARTCHAR 0444
ENCODING 1092
SWIDTH 720 0
DWIDTH 18 0
BBX 16 24 1 -5
BITMAP
0080
0080
0080
0080
0080
0080
07F0
188C
6082
4082
8081
8081
8081
8081
8081
4082
4082
3084
0EF8
0180
0080
0080
0080
0080
ENDCHAR
STARTCHAR 0445
ENCODING 1093
SWIDTH 480 0
DWIDTH 12 0
BBX 10 13 1 0
BITMAP
8040
4080
4100
2100
1200
0C00
0400
0C00
1200
2100
4080
8040
8040
ENDCHAR
STARTCHAR 0446
ENCODING 1094
SWIDTH 640 0
DWIDTH 16 0
BBX 13 16 3 -3
BITMAP
0020
8020
8020
8020
8020
8020
8020
8020
8020
8020
8020
8020
8020
7FD8
0008
0008
ENDCHAR
STARTCHAR 0447
ENCODING 1095
SWIDTH 560 0
DWIDTH 14 0
BBX 11 13 1 0
BITMAP
8020
8020
8020
8020
8020
8020
4020
20E0
1F20
0020
0020
0020
0020
ENDCHAR
STARTCHAR 0448
ENCODING 1096
SWIDTH 880 0
DWIDTH 22 0
BBX 17 13 3 0
BITMAP
008080
808080
808080
808080
808080
808080
808080
808080
808080
808080
808080
808080
FFFF80
ENDCHAR
STARTCHAR 0449
ENCODING 1097
SWIDTH 880 0
DWIDTH 22 0
BBX 19 16 3 -3
BITMAP
008080
808080
808080
808080
808080
808080
808080
808080
808080
808080
808080
808080
808080
7F7F60
000020
000020
ENDCHAR
STARTCHAR 044A
ENCODING 1098
SWIDTH 560 0
DWIDTH 14 0
BBX 14 13 0 0
BITMAP
F800
0800
0800
0800
0800
0FF0
0808
0808
0804
0804
0808
0808
0FF0
ENDCHAR
STARTCHAR 044B
ENCODING 1099
SWIDTH 720 0
DWIDTH 18 0
BBX 13 13 3 0
BITMAP
0008
8008
8008
8008
8008
FE08
8188
8088
8088
8088
8088
8088
FF08
ENDCHAR
STARTCHAR 044C
ENCODING 1100
SWIDTH 520 0
DWIDTH 13 0
BBX 9 12 3 1
BITMAP
8000
8000
8000
8000
FE00
8180
8080
8080
8080
8080
8080
FF00
ENDCHAR
STARTCHAR 044D
ENCODING 1101
SWIDTH 560 0
DWIDTH 14 0
BBX 12 13 1 0
BITMAP
3F00
C080
0040
0020
0020
0010
1FF0
0010
0020
0020
0040
8080
7F00
ENDCHAR
STARTCHAR 044E
ENCODING 1102
SWIDTH 840 0
DWIDTH 21 0
BBX 16 13 3 0
BITMAP
00F8
8304
8402
8801
8801
8801
F801
8801
8801
8801
8402
8204
81F8
ENDCHAR
STARTCHAR 044F
ENCODING 1103
SWIDTH 560 0
DWIDTH 14 0
BBX 10 13 2 0
BITMAP
3FC0
C040
8040
8040
8040
8040
8040
6040
1FC0
2040
4040
4040
8040
ENDCHAR
STARTCHAR 0450
ENCODING 1104
SWIDTH 600 0
DWIDTH 15 0
BBX 12 18 2 0
BITMAP
1000
0800
0400
0000
0000
1F00
60C0
8040
8020
8020
8020
FFF0
8000
8000
8000
8000
4040
3F80
ENDCHAR
STARTCHAR 0451
ENCODING 1105
SWIDTH 560 0
DWIDTH 14 0
BBX 12 17 2 0
BITMAP
1100
0000
0000
0000
1F00
60C0
8040
8020
8020
8020
FFF0
8000
8000
8000
8000
4040
3F80
ENDCHAR
STARTCHAR 0452
ENCODING 1106
SWIDTH 640 0
DWIDTH 16 0
BBX 13 23 1 -4
BITMAP
4000
4000
FF00
4000
4000
47C0
5830
6010
2008
2008
4008
4008
4008
4008
4008
4008
4008
4008
0008
0008
0008
0008
00F0
ENDCHAR
STARTCHAR 0453
ENCODING 1107
SWIDTH 440 0
DWIDTH 11 0
BBX 8 18 3 0
BITMAP
02
04
08
00
00
FF
80
80
80
80
80
80
80
80
80
80
80
80
ENDCHAR
STARTCHAR 0454
ENCODING 1108
SWIDTH 560 0
DWIDTH 14 0
BBX 12 13 1 0
BITMAP
0FC0
1030
6000
4000
8000
8000
FF80
8000
8000
4000
4000
3010
0FE0
ENDCHAR
STARTCHAR 0455
ENCODING 1109
SWIDTH 480 0
DWIDTH 12 0
BBX 10 13 1 0
BITMAP
1F00
60C0
4000
8000
4000
2000
1E00
0180
0040
0040
0040
4040
3F80
ENDCHAR
STARTCHAR 0456
ENCODING 1110
SWIDTH 240 0
DWIDTH 6 0
BBX 1 18 3 0
BITMAP
80
00
00
00
00
00
80
80
80
80
80
80
80
80
80
80
80
80
ENDCHAR
STARTCHAR 0457
ENCODING 1111
SWIDTH 240 0
DWIDTH 6 0
BBX 4 17 1 0
BITMAP
90
00
00
00
00
40
40
40
40
40
40
40
40
40
40
40
40
ENDCHAR
STARTCHAR 0458
ENCODING 1112
SWIDTH 240 0
DWIDTH 6 0
BBX 6 23 -2 -5
BITMAP
04
00
00
00
00
00
08
08
08
08
08
08
08
08
08
08
08
08
08
08
08
08
F0
ENDCHAR
STARTCHAR 0459
ENCODING 1113
SWIDTH 880 0
DWIDTH 22 0
BBX 20 13 1 0
BITMAP
1FE000
202000
202000
202000
202000
203FC0
202030
202010
202010
202010
402010
402010
803FE0
ENDCHAR
STARTCHAR 045A
ENCODING 1114
SWIDTH 920 0
DWIDTH 23 0
BBX 19 12 3 1
BITMAP
804000
804000
804000
804000
804000
FFFFC0
804020
804020
804020
804020
804020
807FC0
ENDCHAR
STARTCHAR 045B
ENCODING 1115
SWIDTH 640 0
DWIDTH 16 0
BBX 14 18 0 1
BITMAP
2000
2000
FF80
2000
2000
23E0
2C18
3008
1004
1004
2004
2004
2004
2004
2004
2004
2004
2004
ENDCHAR
STARTCHAR 045C
ENCODING 1116
SWIDTH 520 0
DWIDTH 13 0
BBX 10 18 3 0
BITMAP
0200
0C00
1000
0000
0000
0000
8080
8100
8200
8400
8800
F000
8800
8400
8200
8100
8080
8040
ENDCHAR
STARTCHAR 045D
ENCODING 1117
SWIDTH 640 0
DWIDTH 16 0
BBX 11 18 3 0
BITMAP
1000
0800
0400
0000
0000
0020
8060
80A0
8120
8220
8220
8420
8820
9020
A020
C020
C020
8020
ENDCHAR
STARTCHAR 045E
ENCODING 1118
SWIDTH 520 0
DWIDTH 13 0
BBX 13 23 0 -5
BITMAP
1000
1080
0F00
0000
0000
0008
4010
4010
2020
2020
2040
1040
1080
0880
0900
0500
0500
0200
0200
0400
0400
0800
F000
ENDCHAR
STARTCHAR 045F
ENCODING 1119
SWIDTH 600 0
DWIDTH 15 0
BBX 10 16 3 -3
BITMAP
0040
8040
8040
8040
8040
8040
8040
8040
8040
8040
8040
8040
8040
7F80
0800
0800
ENDCHAR
STARTCHAR 0462
ENCODING 1122
SWIDTH 760 0
DWIDTH 19 0
BBX 18 19 0 0
BITMAP
040000
040000
040000
040000
FFF000
040000
040000
040000
07FE00
040180
040040
040040
040040
040040
040040
040040
040040
040080
07FF00
ENDCHAR
STARTCHAR 0463
ENCODING 1123
SWIDTH 560 0
DWIDTH 14 0
BBX 12 18 1 1
BITMAP
2000
2000
2000
2000
2000
FE00
2000
2000
2000
2000
3FC0
2020
2010
2010
2010
2010
2020
3FC0
ENDCHAR
STARTCHAR 046A
ENCODING 1130
SWIDTH 840 0
DWIDTH 21 0
BBX 19 18 1 0
BITMAP
7FFFC0
200080
100100
080200
080400
040400
020800
011000
00A000
035800
0C4600
104100
204080
604080
404040
404040
804020
804020
ENDCHAR
STARTCHAR 046B
ENCODING 1131
SWIDTH 600 0
DWIDTH 15 0
BBX 14 13 1 0
BITMAP
7FF8
2010
2020
1040
0880
0500
0780
1A60
2210
4210
8208
8208
8204
ENDCHAR
STARTCHAR 0472
ENCODING 1138
SWIDTH 840 0
DWIDTH 21 0
BBX 18 18 2 0
BITMAP
00C000
0F3800
100600
600100
400100
800080
800080
800040
800040
FFFFC0
800040
800080
800080
800080
400100
200200
100400
0FF800
ENDCHAR
STARTCHAR 0473
ENCODING 1139
SWIDTH 600 0
DWIDTH 15 0
BBX 12 13 2 0
BITMAP
1F80
2040
C020
8010
8010
8010
FFF0
8010
8010
8010
8020
4040
3F80
ENDCHAR
STARTCHAR 0474
ENCODING 1140
SWIDTH 720 0
DWIDTH 18 0
BBX 16 18 1 0
BITMAP
0001
8006
8008
8008
4010
4010
2010
2020
1020
1020
1040
0840
0880
0480
0480
0500
0300
0100
ENDCHAR
STARTCHAR 0475
ENCODING 1141
SWIDTH 520 0
DWIDTH 13 0
BBX 12 13 1 0
BITMAP
0030
8040
8040
4080
4080
4080
2100
2100
1200
1200
0A00
0C00
0400
ENDCHAR
STARTCHAR 048A
ENCODING 1162
SWIDTH 840 0
DWIDTH 21 0
BBX 16 25 3 -4
BITMAP
0020
0820
04C0
0300
8000
8004
800C
8014
8024
8024
8044
8084
8104
8204
8204
8404
8804
9004
9004
A004
C004
8004
0001
0001
0001
ENDCHAR
STARTCHAR 048B
ENCODING 1163
SWIDTH 680 0
DWIDTH 17 0
BBX 13 20 3 -3
BITMAP
2080
2100
1E00
0000
0000
0020
8060
80A0
8120
8220
8220
8420
8820
9020
A020
C020
C020
8020
0018
0010
ENDCHAR
STARTCHAR 048C
ENCODING 1164
SWIDTH 720 0
DWIDTH 18 0
BBX 16 19 1 0
BITMAP
1000
1000
1000
1000
FFC0
1000
1000
1000
1FF8
1004
1002
1001
1001
1001
1001
1001
1002
1004
1FF8
ENDCHAR
STARTCHAR 048D
ENCODING 1165
SWIDTH 560 0
DWIDTH 14 0
BBX 12 12 1 1
BITMAP
2000
FF00
2000
2000
3FC0
2020
2010
2010
2010
2010
2020
3FC0
ENDCHAR
STARTCHAR 048E
ENCODING 1166
SWIDTH 720 0
DWIDTH 18 0
BBX 13 18 3 0
BITMAP
FE00
81E0
8010
8008
8008
8008
8208
8208
8108
8090
8060
81C0
FE20
8010
8008
8000
8000
8000
ENDCHAR
STARTCHAR 048F
ENCODING 1167
SWIDTH 680 0
DWIDTH 17 0
BBX 12 17 3 -5
BITMAP
0F80
B040
C020
8010
8010
8010
8010
8010
8010
8110
C0A0
A040
99A0
8620
8010
8000
8000
ENDCHAR
STARTCHAR 0490
ENCODING 1168
SWIDTH 560 0
DWIDTH 14 0
BBX 11 21 3 0
BITMAP
0020
0020
0020
FFE0
8000
8000
8000
8000
8000
8000
8000
8000
8000
8000
8000
8000
8000
8000
8000
8000
8000
ENDCHAR
STARTCHAR 0491
ENCODING 1169
SWIDTH 400 0
DWIDTH 10 0
BBX 7 15 3 1
BITMAP
02
02
FE
80
80
80
80
80
80
80
80
80
80
80
80
ENDCHAR
STARTCHAR 0492
ENCODING 1170
SWIDTH 560 0
DWIDTH 14 0
BBX 12 18 2 0
BITMAP
3FF0
4000
4000
4000
4000
4000
4000
4000
4000
4000
FF80
4000
4000
4000
4000
4000
4000
4000
ENDCHAR
STARTCHAR 0493
ENCODING 1171
SWIDTH 440 0
DWIDTH 11 0
BBX 10 13 2 0
BITMAP
7FC0
4000
4000
4000
4000
4000
4000
FE00
4000
4000
4000
4000
4000
ENDCHAR
STARTCHAR 0494
ENCODING 1172
SWIDTH 680 0
DWIDTH 17 0
BBX 13 21 3 -3
BITMAP
FFE0
8000
8000
8000
8000
8000
8000
8000
8F80
B060
C010
8010
8008
8008
8008
8008
8008
8010
0010
0020
03C0
ENDCHAR
STARTCHAR 0495
ENCODING 1173
SWIDTH 560 0
DWIDTH 14 0
BBX 10 18 3 -5
BITMAP
FF00
8000
8000
8000
8000
8000
9E00
E180
8040
8040
8040
8040
8040
0040
0040
0080
0080
1F00
ENDCHAR
STARTCHAR 0496
ENCODING 1174
SWIDTH 1000 0
DWIDTH 25 0
BBX 24 22 1 -4
BITMAP
800004
402008
402008
202010
102020
102020
082040
042080
022100
03EF00
042080
082040
102020
102020
202010
402008
402008
802004
000001
000001
000001
000001
ENDCHAR
STARTCHAR 0497
ENCODING 1175
SWIDTH 800 0
DWIDTH 20 0
BBX 19 15 1 -3
BITMAP
808080
408100
408100
208200
108400
088800
07F800
088400
108400
208200
408100
808080
808080
000020
000020
ENDCHAR
STARTCHAR 0498
ENCODING 1176
SWIDTH 600 0
DWIDTH 15 0
BBX 13 22 1 -4
BITMAP
0600
39C0
4020
0010
0010
0010
0020
0020
00C0
0F40
0030
0010
0010
0008
0010
8010
4020
39C0
0600
0200
0200
0200
ENDCHAR
STARTCHAR 0499
ENCODING 1177
SWIDTH 480 0
DWIDTH 12 0
BBX 10 16 1 -3
BITMAP
3E00
4180
0080
0040
0080
0100
1F00
0080
0040
0040
0040
8080
6300
1C00
0800
0800
ENDCHAR
STARTCHAR 049A
ENCODING 1178
SWIDTH 720 0
DWIDTH 18 0
BBX 15 22 3 -4
BITMAP
8008
8010
8020
8040
8040
8080
8100
8200
8400
BC00
8200
8100
8080
8040
8040
8020
8010
8008
0002
0002
0002
0002
ENDCHAR
STARTCHAR 049B
ENCODING 1179
SWIDTH 520 0
DWIDTH 13 0
BBX 12 15 3 -2
BITMAP
8080
8100
8200
8400
8800
F000
8800
8400
8200
8100
8080
8040
0010
0010
0010
ENDCHAR
STARTCHAR 049C
ENCODING 1180
SWIDTH 680 0
DWIDTH 17 0
BBX 13 18 3 0
BITMAP
8000
8008
8010
8020
8040
9080
9080
9100
9200
BE00
9100
9080
9080
8040
8020
8010
8008
8008
ENDCHAR
STARTCHAR 049D
ENCODING 1181
SWIDTH 560 0
DWIDTH 14 0
BBX 10 13 3 0
BITMAP
0040
8080
8100
8200
A200
A400
F800
A400
A200
8100
8100
8080
8040
ENDCHAR
STARTCHAR 049E
ENCODING 1182
SWIDTH 680 0
DWIDTH 17 0
BBX 16 17 1 1
BITMAP
2002
2004
FF88
2010
2020
2020
2040
2080
2E80
2040
2060
2020
2010
2008
2004
2002
2001
ENDCHAR
STARTCHAR 049F
ENCODING 1183
SWIDTH 520 0
DWIDTH 13 0
BBX 12 18 1 1
BITMAP
4000
4000
FC00
4000
4000
4000
4020
4040
4080
4100
4200
3C00
4200
4100
4080
4040
4020
4010
ENDCHAR
STARTCHAR 04A0
ENCODING 1184
SWIDTH 760 0
DWIDTH 19 0
BBX 19 18 0 0
BITMAP
FC0000
040040
040080
040100
040200
040400
040400
040800
041000
05D000
040800
040800
040400
040200
040100
040080
040040
040020
ENDCHAR
STARTCHAR 04A1
ENCODING 1185
SWIDTH 560 0
DWIDTH 14 0
BBX 14 13 0 0
BITMAP
F804
0808
0810
0820
0840
0880
0F80
08C0
0840
0820
0810
0808
0804
ENDCHAR
STARTCHAR 04A2
ENCODING 1186
SWIDTH 840 0
DWIDTH 21 0
BBX 17 22 3 -4
BITMAP
800000
800400
800400
800400
800400
800400
800400
800400
800400
BFFC00
800400
800400
800400
800400
800400
800400
800400
800400
000180
000080
000080
000080
ENDCHAR
STARTCHAR 04A3
ENCODING 1187
SWIDTH 640 0
DWIDTH 16 0
BBX 13 16 3 -3
BITMAP
0020
8020
8020
8020
8020
8020
FFE0
8020
8020
8020
8020
8020
8020
0018
0008
0008
ENDCHAR
STARTCHAR 04A4
ENCODING 1188
SWIDTH 1080 0
DWIDTH 27 0
BBX 24 18 3 0
BITMAP
8003FF
800400
800400
800400
800400
800400
800400
800400
800400
BFFC00
800400
800400
800400
800400
800400
800400
800400
800400
ENDCHAR
STARTCHAR 04A5
ENCODING 1189
SWIDTH 840 0
DWIDTH 21 0
BBX 19 13 3 0
BITMAP
003FE0
802000
802000
802000
802000
802000
FFE000
802000
802000
802000
802000
802000
802000
ENDCHAR
STARTCHAR 04A6
ENCODING 1190
SWIDTH 1200 0
DWIDTH 30 0
BBX 26 21 3 -3
BITMAP
FFFC0000
80040000
80040000
80040000
80040000
80040000
80040000
80040000
80047E00
80058100
80040080
80040040
80040040
80040040
80040040
80040040
80040040
80040040
00000080
00000100
00001E00
ENDCHAR
STARTCHAR 04A7
ENCODING 1191
SWIDTH 920 0
DWIDTH 23 0
BBX 20 18 3 -5
BITMAP
FFC000
804000
804000
804000
804000
804000
804780
803840
804020
804010
804010
804010
804010
000010
000010
000020
000040
000780
ENDCHAR
STARTCHAR 04A8
ENCODING 1192
SWIDTH 960 0
DWIDTH 24 0
BBX 20 18 2 0
BITMAP
000400
183380
20C040
410020
810020
810020
820010
820010
820010
820010
820020
810020
810020
808040
404080
202100
181200
07FFF0
ENDCHAR
STARTCHAR 04A9
ENCODING 1193
SWIDTH 760 0
DWIDTH 19 0
BBX 15 13 2 0
BITMAP
10F0
630C
8404
8402
8802
8802
8802
8402
8404
8204
4208
2190
1FFE
ENDCHAR
STARTCHAR 04AA
ENCODING 1194
SWIDTH 680 0
DWIDTH 17 0
BBX 14 22 2 -4
BITMAP
00C0
0F38
1004
6000
4000
8000
8000
8000
8000
8000
8000
8000
8000
8000
4000
2000
1004
0F78
0080
0080
0080
0080
ENDCHAR
STARTCHAR 04AB
ENCODING 1195
SWIDTH 520 0
DWIDTH 13 0
BBX 10 16 2 -3
BITMAP
1F00
20C0
C000
8000
8000
8000
8000
8000
8000
8000
8000
4040
3980
0600
0400
0400
ENDCHAR
STARTCHAR 04AC
ENCODING 1196
SWIDTH 520 0
DWIDTH 13 0
BBX 14 22 0 -4
BITMAP
FFFC
0200
0200
0200
0200
0200
0200
0200
0200
0200
0200
0200
0200
0200
0200
0200
0200
0200
00C0
0040
0040
0040
ENDCHAR
STARTCHAR 04AD
ENCODING 1197
SWIDTH 400 0
DWIDTH 10 0
BBX 11 16 0 -3
BITMAP
FFE0
0400
0400
0400
0400
0400
0400
0400
0400
0400
0400
0400
0400
0300
0100
0100
ENDCHAR
STARTCHAR 04AE
ENCODING 1198
SWIDTH 600 0
DWIDTH 15 0
BBX 15 18 0 0
BITMAP
8000
4002
4004
2008
2008
1010
0820
0820
0440
0240
0280
0100
0100
0100
0100
0100
0100
0100
ENDCHAR
STARTCHAR 04AF
ENCODING 1199
SWIDTH 520 0
DWIDTH 13 0
BBX 12 18 1 -5
BITMAP
0010
8020
8020
4040
4040
4080
2080
2100
1100
1100
0A00
0A00
0400
0400
0400
0400
0400
0400
ENDCHAR
STARTCHAR 04B0
ENCODING 1200
SWIDTH 600 0
DWIDTH 15 0
BBX 15 18 0 0
BITMAP
8000
4002
4004
2008
2008
1010
0820
0820
0440
0240
0280
0100
0FF0
0100
0100
0100
0100
0100
ENDCHAR
STARTCHAR 04B1
ENCODING 1201
SWIDTH 520 0
DWIDTH 13 0
BBX 12 18 1 -5
BITMAP
0010
8020
8020
4040
4040
4080
2080
2100
1100
1100
0A00
0A00
0400
3F80
0400
0400
0400
0400
ENDCHAR
STARTCHAR 04B2
ENCODING 1202
SWIDTH 640 0
DWIDTH 16 0
BBX 15 22 1 -4
BITMAP
8008
4010
4010
2020
1040
0880
0880
0500
0200
0200
0500
0880
1040
1040
2020
4010
4010
8008
0006
0002
0002
0002
ENDCHAR
STARTCHAR 04B3
ENCODING 1203
SWIDTH 480 0
DWIDTH 12 0
BBX 12 15 1 -3
BITMAP
8040
4080
4100
2100
1200
0C00
0400
0C00
1200
2100
4080
8040
8040
0030
0010
ENDCHAR
STARTCHAR 04B4
ENCODING 1204
SWIDTH 920 0
DWIDTH 23 0
BBX 23 22 0 -4
BITMAP
FFF810
020010
020010
020010
020010
020010
020010
020010
020010
020010
020010
020010
020010
020010
020010
020010
020010
020010
00FFEE
000002
000002
000002
ENDCHAR
STARTCHAR 04B5
ENCODING 1205
SWIDTH 720 0
DWIDTH 18 0
BBX 17 16 0 -3
BITMAP
FFE200
040200
040200
040200
040200
040200
040200
040200
040200
040200
040200
040200
040200
03FD80
000080
000080
ENDCHAR
STARTCHAR 04B6
ENCODING 1206
SWIDTH 720 0
DWIDTH 18 0
BBX 16 22 2 -4
BITMAP
0008
8008
8008
8008
8008
8008
8008
8008
8008
8008
6038
17C8
0008
0008
0008
0008
0008
0008
0007
0001
0001
0001
ENDCHAR
STARTCHAR 04B7
ENCODING 1207
SWIDTH 560 0
DWIDTH 14 0
BBX 13 16 1 -3
BITMAP
8020
8020
8020
8020
8020
8020
4020
20E0
1F20
0020
0020
0020
0020
0018
0008
0008
ENDCHAR
STARTCHAR 04B8
ENCODING 1208
SWIDTH 720 0
DWIDTH 18 0
BBX 13 18 2 0
BITMAP
0008
8008
8008
8008
8008
8008
8008
8408
8408
8408
6438
17C8
0408
0408
0408
0008
0008
0008
ENDCHAR
STARTCHAR 04B9
ENCODING 1209
SWIDTH 560 0
DWIDTH 14 0
BBX 11 13 1 0
BITMAP
8020
8020
8020
8020
8020
8420
4420
24E0
1F20
0420
0420
0020
0020
ENDCHAR
STARTCHAR 04BA
ENCODING 1210
SWIDTH 720 0
DWIDTH 18 0
BBX 13 18 3 0
BITMAP
8000
8000
8000
8000
8000
8000
8000
9FC0
E030
8008
8008
8008
8008
8008
8008
8008
8008
8008
ENDCHAR
STARTCHAR 04BB
ENCODING 1211
SWIDTH 640 0
DWIDTH 16 0
BBX 11 18 3 1
BITMAP
8000
8000
8000
8000
8000
9F00
E0C0
8040
8020
8020
8020
8020
8020
8020
8020
8020
8020
8020
ENDCHAR
STARTCHAR 04BC
ENCODING 1212
SWIDTH 920 0
DWIDTH 23 0
BBX 21 18 1 0
BITMAP
000C00
007380
018040
020020
840010
8C0008
880008
880008
880008
7FFFF8
080000
080000
080000
040000
040000
020000
018060
007F80
ENDCHAR
STARTCHAR 04BD
ENCODING 1213
SWIDTH 680 0
DWIDTH 17 0
BBX 15 13 1 0
BITMAP
01F0
0608
8804
9002
9002
9002
7FFE
1000
1000
1000
0800
0404
03F8
ENDCHAR
STARTCHAR 04BE
ENCODING 1214
SWIDTH 920 0
DWIDTH 23 0
BBX 21 22 1 -4
BITMAP
000C00
007380
018040
020020
840010
8C0008
880008
880008
880008
7FFFF8
080000
080000
080000
040000
040000
020000
018060
007380
000C00
000800
000800
000800
ENDCHAR
STARTCHAR 04BF
ENCODING 1215
SWIDTH 680 0
DWIDTH 17 0
BBX 15 16 1 -3
BITMAP
01F0
0608
8804
9002
9002
9002
7FFE
1000
1000
1000
0800
0404
0398
0060
0040
0040
ENDCHAR
STARTCHAR 04C0
ENCODING 1216
SWIDTH 280 0
DWIDTH 7 0
BBX 1 18 3 0
BITMAP
80
80
80
80
80
80
80
80
80
80
80
80
80
80
80
80
80
80
ENDCHAR
STARTCHAR 04C1
ENCODING 1217
SWIDTH 960 0
DWIDTH 24 0
BBX 22 22 1 0
BITMAP
000200
008600
004800
003000
800004
402008
402008
202010
102020
102020
082040
042080
022100
03EF00
042080
082040
102020
102020
202010
402008
402008
802004
ENDCHAR
STARTCHAR 04C2
ENCODING 1218
SWIDTH 760 0
DWIDTH 19 0
BBX 17 18 1 0
BITMAP
041000
041000
03E000
000000
000000
808080
408100
408100
208200
108400
088800
07F800
088400
108400
208200
408100
808080
808080
ENDCHAR
STARTCHAR 04C3
ENCODING 1219
SWIDTH 640 0
DWIDTH 16 0
BBX 13 23 3 -5
BITMAP
8008
8010
8020
8040
8040
8080
8100
8200
8400
BC00
8300
8080
8040
8040
8020
8010
8010
8008
0008
0008
0008
0010
00F0
ENDCHAR
STARTCHAR 04C4
ENCODING 1220
SWIDTH 520 0
DWIDTH 13 0
BBX 10 17 3 -4
BITMAP
8080
8100
8200
8400
8800
F800
8400
8200
8100
8100
8080
8080
0040
0040
0040
0080
0700
ENDCHAR
STARTCHAR 04C6
ENCODING 1222
SWIDTH 600 0
DWIDTH 15 0
BBX 13 16 1 -3
BITMAP
1FE0
2020
2020
2020
2020
2020
2020
2020
2020
2020
4020
4020
8020
0008
0008
0008
ENDCHAR
STARTCHAR 04C7
ENCODING 1223
SWIDTH 800 0
DWIDTH 20 0
BBX 14 23 3 -5
BITMAP
8004
8004
8004
8004
8004
8004
8004
8004
8004
FFFC
8004
8004
8004
8004
8004
8004
8004
8004
0004
0004
0004
0004
0078
ENDCHAR
STARTCHAR 04C8
ENCODING 1224
SWIDTH 640 0
DWIDTH 16 0
BBX 11 18 3 -5
BITMAP
0020
8020
8020
8020
8020
8020
FFE0
8020
8020
8020
8020
8020
8020
0020
0020
0020
0060
03C0
ENDCHAR
STARTCHAR 04C9
ENCODING 1225
SWIDTH 800 0
DWIDTH 20 0
BBX 16 21 3 -4
BITMAP
8000
8004
8004
8004
8004
8004
8004
8004
8004
BFFC
8004
8004
8004
8004
8004
8004
8004
8004
0001
0001
0001
ENDCHAR
STARTCHAR 04CA
ENCODING 1226
SWIDTH 640 0
DWIDTH 16 0
BBX 13 16 3 -3
BITMAP
0020
8020
8020
8020
8020
8020
FFE0
8020
8020
8020
8020
8020
8020
0018
0010
0010
ENDCHAR
STARTCHAR 04CB
ENCODING 1227
SWIDTH 720 0
DWIDTH 18 0
BBX 13 22 2 -4
BITMAP
0008
8008
8008
8008
8008
8008
8008
8008
8008
8008
6038
17C8
0008
0008
0008
0008
0008
0008
0070
0040
0040
0040
ENDCHAR
STARTCHAR 04CC
ENCODING 1228
SWIDTH 560 0
DWIDTH 14 0
BBX 11 16 1 -3
BITMAP
8020
8020
8020
8020
8020
8020
8020
60A0
1F20
0020
0020
0020
0020
01C0
0100
0100
ENDCHAR
STARTCHAR 04CD
ENCODING 1229
SWIDTH 960 0
DWIDTH 24 0
BBX 20 22 3 -4
BITMAP
800040
800040
C000C0
A00140
A00140
900240
900440
880440
880840
840840
821040
821040
812040
814040
80C040
800040
800040
800040
000030
000010
000020
000020
ENDCHAR
STARTCHAR 04CE
ENCODING 1230
SWIDTH 760 0
DWIDTH 19 0
BBX 15 16 3 -3
BITMAP
8000
8008
C018
C018
A028
9048
9048
8888
8908
8508
8208
8008
8000
0002
0002
0002
ENDCHAR
STARTCHAR 04CF
ENCODING 1231
SWIDTH 240 0
DWIDTH 6 0
BBX 1 18 3 1
BITMAP
80
80
80
80
80
80
80
80
80
80
80
80
80
80
80
80
80
80
ENDCHAR
STARTCHAR 04D0
ENCODING 1232
SWIDTH 680 0
DWIDTH 17 0
BBX 16 22 1 0
BITMAP
0810
0820
0640
0180
0000
0180
0280
0240
0440
0420
0820
0820
0810
1010
1008
2008
3FFC
4004
4002
8002
8001
8001
ENDCHAR
STARTCHAR 04D1
ENCODING 1233
SWIDTH 560 0
DWIDTH 14 0
BBX 10 17 2 1
BITMAP
2100
1E00
0000
0000
3E00
C180
0080
0040
0040
0040
7F40
8040
8040
8040
80C0
8140
7E40
ENDCHAR
STARTCHAR 04D2
ENCODING 1234
SWIDTH 680 0
DWIDTH 17 0
BBX 16 21 1 0
BITMAP
0660
0000
0000
0000
0180
0280
0240
0440
0420
0820
0820
0810
1010
1008
2008
3FFC
4004
4002
8002
8001
8001
ENDCHAR
STARTCHAR 04D3
ENCODING 1235
SWIDTH 560 0
DWIDTH 14 0
BBX 10 17 2 0
BITMAP
2200
0000
0000
0000
3E00
C180
0080
0040
0040
0040
7F40
8040
8040
8040
80C0
8140
7E40
ENDCHAR
STARTCHAR 04D4
ENCODING 1236
SWIDTH 960 0
DWIDTH 24 0
BBX 23 18 0 0
BITMAP
001FFE
003000
003000
005000
005000
009000
011000
011000
021000
0417F8
041000
081000
0FF000
101000
201000
201000
401000
801FFE
ENDCHAR
STARTCHAR 04D5
ENCODING 1237
SWIDTH 960 0
DWIDTH 24 0
BBX 21 13 2 0
BITMAP
3F07C0
C09820
00A010
004008
004008
004000
7F5FF8
804000
804000
80C000
80A000
811010
7E0FE0
ENDCHAR
STARTCHAR 04D6
ENCODING 1238
SWIDTH 640 0
DWIDTH 16 0
BBX 12 22 3 0
BITMAP
2040
2080
1900
0600
FFF0
8000
8000
8000
8000
8000
8000
8000
8000
BFC0
8000
8000
8000
8000
8000
8000
8000
FFE0
ENDCHAR
STARTCHAR 04D7
ENCODING 1239
SWIDTH 600 0
DWIDTH 15 0
BBX 12 18 2 0
BITMAP
2080
2100
1E00
0000
0000
1F00
60C0
8040
8020
8020
8020
FFF0
8000
8000
8000
8000
4040
3F80
ENDCHAR
STARTCHAR 04D8
ENCODING 1240
SWIDTH 800 0
DWIDTH 20 0
BBX 18 18 1 0
BITMAP
00C000
0F3800
100600
000100
000080
000080
000040
000040
000040
FFFFC0
800040
800040
800080
400080
400100
200200
180400
07F800
ENDCHAR
STARTCHAR 04D9
ENCODING 1241
SWIDTH 560 0
DWIDTH 14 0
BBX 12 13 1 0
BITMAP
1F00
60C0
0020
0010
0010
0010
0010
FFF0
8010
8010
4020
2040
1F80
ENDCHAR
STARTCHAR 04DA
ENCODING 1242
SWIDTH 800 0
DWIDTH 20 0
BBX 18 21 1 0
BITMAP
011000
000000
000000
00C000
0F3800
100600
000100
000080
000080
000040
000040
000040
FFFFC0
800040
800040
800080
400080
400100
200200
180400
07F800
ENDCHAR
STARTCHAR 04DB
ENCODING 1243
SWIDTH 560 0
DWIDTH 14 0
BBX 12 17 1 0
BITMAP
0880
0000
0000
0000
1F00
60C0
0020
0010
0010
0010
0010
FFF0
8010
8010
4020
2040
1F80
ENDCHAR
STARTCHAR 04DC
ENCODING 1244
SWIDTH 960 0
DWIDTH 24 0
BBX 22 21 1 0
BITMAP
004400
000000
000000
800004
402008
402008
202010
102020
102020
082040
042080
022100
03EF00
042080
082040
102020
102020
202010
402008
402008
802004
ENDCHAR
STARTCHAR 04DD
ENCODING 1245
SWIDTH 760 0
DWIDTH 19 0
BBX 17 17 1 0
BITMAP
022000
000000
000000
000000
808080
408100
408100
208200
108400
088800
07F800
088400
108400
208200
408100
808080
808080
ENDCHAR
STARTCHAR 04DE
ENCODING 1246
SWIDTH 600 0
DWIDTH 15 0
BBX 13 21 1 0
BITMAP
0880
0000
0000
0600
39C0
4020
0010
0010
0010
0020
0020
00C0
0F40
0030
0010
0010
0008
0010
8010
4020
3FC0
ENDCHAR
STARTCHAR 04DF
ENCODING 1247
SWIDTH 480 0
DWIDTH 12 0
BBX 10 17 1 0
BITMAP
3100
0000
0000
0000
3E00
4180
0080
0040
0080
0100
1F00
0080
0040
0040
0040
8080
7F00
ENDCHAR
STARTCHAR 04E0
ENCODING 1248
SWIDTH 560 0
DWIDTH 14 0
BBX 12 18 1 0
BITMAP
FFF0
0020
0040
0040
0080
0100
0200
0400
0700
00C0
0020
0010
0010
0010
0010
0010
C020
3FC0
ENDCHAR
STARTCHAR 04E1
ENCODING 1249
SWIDTH 480 0
DWIDTH 12 0
BBX 12 18 -1 -5
BITMAP
7FE0
0020
0040
0080
0100
0100
0200
0400
0780
0060
0020
0010
0010
0010
0010
8010
4020
3FC0
ENDCHAR
STARTCHAR 04E2
ENCODING 1250
SWIDTH 800 0
DWIDTH 20 0
BBX 14 21 3 0
BITMAP
0FE0
0000
0000
8000
8004
800C
8014
8024
8024
8044
8084
8104
8204
8204
8404
8804
9004
9004
A004
C004
8004
ENDCHAR
STARTCHAR 04E3
ENCODING 1251
SWIDTH 640 0
DWIDTH 16 0
BBX 11 17 3 0
BITMAP
3F80
0000
0000
0000
0020
8060
80A0
8120
8220
8220
8420
8820
9020
A020
C020
C020
8020
ENDCHAR
STARTCHAR 04E4
ENCODING 1252
SWIDTH 800 0
DWIDTH 20 0
BBX 14 21 3 0
BITMAP
0440
0000
0000
8000
8004
800C
8014
8024
8024
8044
8084
8104
8204
8204
8404
8804
9004
9004
A004
C004
8004
ENDCHAR
STARTCHAR 04E5
ENCODING 1253
SWIDTH 640 0
DWIDTH 16 0
BBX 11 17 3 0
BITMAP
1100
0000
0000
0000
0020
8060
80A0
8120
8220
8220
8420
8820
9020
A020
C020
C020
8020
ENDCHAR
STARTCHAR 04E6
ENCODING 1254
SWIDTH 840 0
DWIDTH 21 0
BBX 18 21 2 0
BITMAP
022000
000000
000000
00C000
0F3800
100600
600100
400100
800080
800080
800040
800040
800040
800040
800080
800080
800080
400100
200200
100400
0FF800
ENDCHAR
STARTCHAR 04E7
ENCODING 1255
SWIDTH 600 0
DWIDTH 15 0
BBX 12 17 2 0
BITMAP
1100
0000
0000
0000
1F00
60C0
8020
8020
8010
8010
8010
8010
8010
8010
8020
4040
3F80
ENDCHAR
STARTCHAR 04E8
ENCODING 1256
SWIDTH 840 0
DWIDTH 21 0
BBX 18 18 2 0
BITMAP
00C000
0F3800
100600
600100
400100
800080
800080
800040
800040
FFFFC0
800040
800080
800080
800080
400100
200200
100400
0FF800
ENDCHAR
STARTCHAR 04E9
ENCODING 1257
SWIDTH 600 0
DWIDTH 15 0
BBX 12 13 2 0
BITMAP
1F80
2040
C020
8010
8010
8010
FFF0
8010
8010
8010
8020
4040
3F80
ENDCHAR
STARTCHAR 04EA
ENCODING 1258
SWIDTH 840 0
DWIDTH 21 0
BBX 18 21 2 0
BITMAP
022000
000000
000000
00C000
0F3800
100600
600100
400100
800080
800080
800040
800040
FFFFC0
800040
800080
800080
800080
400100
200200
100400
0FF800
ENDCHAR
STARTCHAR 04EB
ENCODING 1259
SWIDTH 600 0
DWIDTH 15 0
BBX 12 17 2 0
BITMAP
1980
0000
0000
0000
1F80
2040
C020
8010
8010
8010
FFF0
8010
8010
8010
8020
4040
3F80
ENDCHAR
STARTCHAR 04EC
ENCODING 1260
SWIDTH 680 0
DWIDTH 17 0
BBX 15 21 1 0
BITMAP
0880
0000
0000
0700
38E0
C010
0008
0004
0004
0004
0002
0002
07FE
0002
0002
0004
0004
0008
0010
4020
3FC0
ENDCHAR
STARTCHAR 04ED
ENCODING 1261
SWIDTH 560 0
DWIDTH 14 0
BBX 12 17 1 0
BITMAP
1100
0000
0000
0000
3F00
C080
0040
0020
0020
0010
1FF0
0010
0020
0020
0040
8080
7F00
ENDCHAR
STARTCHAR 04EE
ENCODING 1262
SWIDTH 640 0
DWIDTH 16 0
BBX 15 21 1 0
BITMAP
0FC0
0000
0000
0002
8004
8004
4008
4008
2010
2010
1020
1820
0840
0440
0480
0300
0100
0200
0200
0400
7800
ENDCHAR
STARTCHAR 04EF
ENCODING 1263
SWIDTH 520 0
DWIDTH 13 0
BBX 13 22 0 -5
BITMAP
1FC0
0000
0000
0000
0008
4010
4010
2020
2020
2040
1040
1080
0880
0900
0500
0500
0200
0200
0400
0400
0800
F000
ENDCHAR
STARTCHAR 04F0
ENCODING 1264
SWIDTH 640 0
DWIDTH 16 0
BBX 15 21 1 0
BITMAP
0CC0
0000
0000
0002
8004
8004
4008
4008
2010
2010
1020
1820
0840
0440
0480
0300
0100
0200
0200
0400
7800
ENDCHAR
STARTCHAR 04F1
ENCODING 1265
SWIDTH 520 0
DWIDTH 13 0
BBX 13 22 0 -5
BITMAP
0880
0000
0000
0000
0008
4010
4010
2020
2020
2040
1040
1080
0880
0900
0500
0500
0200
0200
0400
0400
0800
F000
ENDCHAR
STARTCHAR 04F2
ENCODING 1266
SWIDTH 640 0
DWIDTH 16 0
BBX 15 22 1 0
BITMAP
0110
0220
0440
0000
0002
8004
8004
4008
4008
2010
2010
1020
1820
0840
0440
0480
0300
0100
0200
0200
0400
7800
ENDCHAR
STARTCHAR 04F3
ENCODING 1267
SWIDTH 520 0
DWIDTH 13 0
BBX 13 23 0 -5
BITMAP
0220
0440
0880
0000
0000
0008
4010
4010
2020
2020
2040
1040
1080
0880
0900
0500
0500
0200
0200
0400
0400
0800
F000
ENDCHAR
STARTCHAR 04F4
ENCODING 1268
SWIDTH 720 0
DWIDTH 18 0
BBX 13 21 2 0
BITMAP
0880
0000
0000
0008
8008
8008
8008
8008
8008
8008
8008
8008
8008
6038
17C8
0008
0008
0008
0008
0008
0008
ENDCHAR
STARTCHAR 04F5
ENCODING 1269
SWIDTH 560 0
DWIDTH 14 0
BBX 11 17 1 0
BITMAP
1100
0000
0000
0000
8020
8020
8020
8020
8020
8020
4020
20E0
1F20
0020
0020
0020
0020
ENDCHAR
STARTCHAR 04F6
ENCODING 1270
SWIDTH 560 0
DWIDTH 14 0
BBX 11 22 3 -4
BITMAP
FFE0
8000
8000
8000
8000
8000
8000
8000
8000
8000
8000
8000
8000
8000
8000
8000
8000
8000
7000
1000
1000
1000
ENDCHAR
STARTCHAR 04F7
ENCODING 1271
SWIDTH 440 0
DWIDTH 11 0
BBX 8 16 3 -3
BITMAP
FF
80
80
80
80
80
80
80
80
80
80
80
80
60
20
20
ENDCHAR
STARTCHAR 04F8
ENCODING 1272
SWIDTH 920 0
DWIDTH 23 0
BBX 17 21 3 0
BITMAP
023000
000000
000000
800000
800080
800080
800080
800080
800080
800080
FFC080
803080
800880
800880
800880
800880
800880
800880
800880
801080
FFE080
ENDCHAR
STARTCHAR 04F9
ENCODING 1273
SWIDTH 720 0
DWIDTH 18 0
BBX 13 17 3 0
BITMAP
0880
0000
0000
0000
0008
8008
8008
8008
8008
FE08
8188
8088
8088
8088
8088
8088
FF08
ENDCHAR
STARTCHAR 04FA
ENCODING 1274
SWIDTH 560 0
DWIDTH 14 0
BBX 12 23 2 -5
BITMAP
3FF0
4000
4000
4000
4000
4000
4000
4000
4000
4000
FF80
4000
4000
4000
4000
4000
4000
4000
1800
0800
0800
0800
F000
ENDCHAR
STARTCHAR 04FB
ENCODING 1275
SWIDTH 440 0
DWIDTH 11 0
BBX 10 18 1 -5
BITMAP
3FC0
2000
2000
2000
2000
2000
2000
7F00
2000
2000
2000
2000
2000
1800
0800
0800
0800
F000
ENDCHAR
STARTCHAR 04FC
ENCODING 1276
SWIDTH 600 0
DWIDTH 15 0
BBX 13 23 1 -5
BITMAP
8008
4010
4010
2020
1040
0880
0880
0500
0200
0200
0500
0880
1040
1040
2020
4010
4010
8008
0008
0008
0008
0008
00F0
ENDCHAR
STARTCHAR 04FD
ENCODING 1277
SWIDTH 480 0
DWIDTH 12 0
BBX 11 18 1 -5
BITMAP
8040
4080
2100
2100
1200
0C00
0400
0C00
1200
2100
4080
8080
8040
0040
0020
0020
0040
0380
ENDCHAR
STARTCHAR 04FE
ENCODING 1278
SWIDTH 600 0
DWIDTH 15 0
BBX 13 17 1 1
BITMAP
4008
2010
2020
1040
0840
0480
0500
0300
1FE0
0500
0880
0840
1020
2020
2010
4008
8008
ENDCHAR
STARTCHAR 04FF
ENCODING 1279
SWIDTH 520 0
DWIDTH 13 0
BBX 11 12 1 1
BITMAP
4040
2080
1100
1200
0A00
3FC0
0A00
1100
2100
2080
4040
8020
ENDCHAR
STARTCHAR 0510
ENCODING 1296
SWIDTH 600 0
DWIDTH 15 0
BBX 13 18 2 0
BITMAP
0700
18E0
6000
4000
8000
8000
4000
4000
3800
2700
4000
8000
8000
8000
8000
8008
4030
3F80
ENDCHAR
STARTCHAR 0511
ENCODING 1297
SWIDTH 480 0
DWIDTH 12 0
BBX 10 13 2 0
BITMAP
3F00
4080
8000
8000
8000
4000
3E00
C000
8000
8000
8000
8040
7F80
ENDCHAR
STARTCHAR 0512
ENCODING 1298
SWIDTH 760 0
DWIDTH 19 0
BBX 15 23 1 -5
BITMAP
0FFE
0802
0802
0802
1002
1002
1002
1002
1002
1002
1002
1002
1002
1002
1002
2002
2002
4002
8002
0002
0002
0002
003C
ENDCHAR
STARTCHAR 0513
ENCODING 1299
SWIDTH 600 0
DWIDTH 15 0
BBX 11 18 1 -5
BITMAP
1FE0
2020
2020
2020
2020
2020
2020
2020
2020
2020
4020
4020
8020
0020
0020
0020
0020
03C0
ENDCHAR
STARTCHAR 051A
ENCODING 1306
SWIDTH 840 0
DWIDTH 21 0
BBX 18 21 2 -3
BITMAP
00C000
0F3800
100600
600100
400100
800080
800080
800040
800040
800040
800040
800080
800080
800080
400100
200200
100400
0F3800
00C000
002040
001F80
ENDCHAR
STARTCHAR 051B
ENCODING 1307
SWIDTH 680 0
DWIDTH 17 0
BBX 12 17 2 -5
BITMAP
1F00
20D0
C030
8030
8010
8010
8010
8010
8010
8030
8030
4050
3910
0610
0010
0010
0010
ENDCHAR
STARTCHAR 051C
ENCODING 1308
SWIDTH 1040 0
DWIDTH 26 0
BBX 24 17 1 1
BITMAP
801801
801801
802802
402402
402402
404404
204204
204204
208208
108108
108108
090110
090090
090090
0600A0
060060
020020
ENDCHAR
STARTCHAR 051D
ENCODING 1309
SWIDTH 880 0
DWIDTH 22 0
BBX 21 13 1 0
BITMAP
002008
806008
805010
409010
409020
410820
210820
210440
120440
120480
140280
0C0300
040100
ENDCHAR
STARTCHAR 0524
ENCODING 1316
SWIDTH 840 0
DWIDTH 21 0
BBX 17 22 3 -4
BITMAP
FFFC00
800400
800400
800400
800400
800400
800400
800400
800400
800400
800400
800400
800400
800400
800400
800400
800400
800400
000180
000080
000080
000080
ENDCHAR
STARTCHAR 0525
ENCODING 1317
SWIDTH 640 0
DWIDTH 16 0
BBX 13 16 3 -3
BITMAP
FFE0
8020
8020
8020
8020
8020
8020
8020
8020
8020
8020
8020
8020
0018
0008
0008
ENDCHAR
STARTCHAR 0526
ENCODING 1318
SWIDTH 760 0
DWIDTH 19 0
BBX 16 22 3 -4
BITMAP
8000
8000
8000
8000
8000
8000
8000
9FC0
E030
8008
8008
8008
8008
8008
8008
8008
8008
8008
0003
0001
0001
0001
ENDCHAR
STARTCHAR 0527
ENCODING 1319
SWIDTH 640 0
DWIDTH 16 0
BBX 13 21 3 -2
BITMAP
8000
8000
8000
8000
8000
9F00
E0C0
8040
8020
8020
8020
8020
8020
8020
8020
8020
8020
8020
0008
0008
0008
ENDCHAR
STARTCHAR 0528
ENCODING 1320
SWIDTH 800 0
DWIDTH 20 0
BBX 18 23 -1 -5
BITMAP
080000
080040
080040
080040
080040
080040
080040
080040
080040
0FFFC0
080040
080040
080040
080040
080040
080040
080040
080040
080000
080000
080000
080000
F00000
ENDCHAR
STARTCHAR 0529
ENCODING 1321
SWIDTH 640 0
DWIDTH 16 0
BBX 16 18 -2 -5
BITMAP
0001
0801
0801
0801
0801
0801
07FF
0801
0801
0801
0801
0801
0801
0800
0800
0800
0800
F000
ENDCHAR
STARTCHAR 052E
ENCODING 1326
SWIDTH 760 0
DWIDTH 19 0
BBX 18 22 1 -4
BITMAP
0FFE00
080200
100200
100200
100200
100200
100200
100200
100200
100200
100200
100200
100200
100200
100200
200200
200200
400200
8001C0
000040
000040
000040
ENDCHAR
STARTCHAR 052F
ENCODING 1327
SWIDTH 600 0
DWIDTH 15 0
BBX 14 16 1 -3
BITMAP
1FE0
2020
2020
2020
2020
2020
2020
2020
2020
2020
4020
4020
8020
000C
0004
0004
ENDCHAR
STARTCHAR 1E08
ENCODING 7688
SWIDTH 680 0
DWIDTH 17 0
BBX 15 27 1 -5
BITMAP
0010
0020
0040
0000
0040
071C
1802
2000
4000
4000
8000
8000
8000
8000
8000
8000
4000
4000
2000
1000
0802
073C
00C0
00C0
0020
0020
01E0
ENDCHAR
STARTCHAR 1E09
ENCODING 7689
SWIDTH 520 0
DWIDTH 13 0
BBX 11 23 1 -5
BITMAP
0080
0100
0200
0000
0000
0F80
3060
4000
4000
8000
8000
8000
8000
8000
4000
4000
2020
1CC0
0300
0200
0100
0100
0F00
ENDCHAR
STARTCHAR 1E0C
ENCODING 7692
SWIDTH 800 0
DWIDTH 20 0
BBX 16 22 3 -4
BITMAP
FE00
81F0
8008
8004
8002
8002
8001
8001
8001
8001
8001
8001
8001
8002
8002
8004
8018
81E0
7E00
0000
0000
0200
ENDCHAR
STARTCHAR 1E0D
ENCODING 7693
SWIDTH 640 0
DWIDTH 16 0
BBX 13 23 1 -4
BITMAP
0008
0008
0008
0008
0008
0008
0F88
3068
4018
4008
8008
8008
8008
8008
8008
4008
4018
2028
1DC8
0200
0000
0000
0100
ENDCHAR
STARTCHAR 1E0E
ENCODING 7694
SWIDTH 800 0
DWIDTH 20 0
BBX 16 22 3 -4
BITMAP
FE00
81F0
8008
8004
8002
8002
8001
8001
8001
8001
8001
8001
8001
8002
8002
8004
8018
81E0
7E00
0000
0000
1FC0
ENDCHAR
STARTCHAR 1E0F
ENCODING 7695
SWIDTH 640 0
DWIDTH 16 0
BBX 13 23 1 -4
BITMAP
0008
0008
0008
0008
0008
0008
0F88
3068
4018
4008
8008
8008
8008
8008
8008
4008
4018
2028
1DC8
0200
0000
0000
0FE0
ENDCHAR
STARTCHAR 1E14
ENCODING 7700
SWIDTH 640 0
DWIDTH 16 0
BBX 12 24 3 0
BITMAP
0800
0400
0000
0000
1F80
0000
FFF0
8000
8000
8000
8000
8000
8000
8000
8000
BF80
8000
8000
8000
8000
8000
8000
8000
FFE0
ENDCHAR
STARTCHAR 1E15
ENCODING 7701
SWIDTH 560 0
DWIDTH 14 0
BBX 12 21 1 0
BITMAP
1000
0C00
0200
0000
0000
1F80
0000
0000
0F80
3040
4020
8010
8010
8010
FFF0
8000
8000
4000
4000
2020
1FC0
ENDCHAR
STARTCHAR 1E16
ENCODING 7702
SWIDTH 640 0
DWIDTH 16 0
BBX 12 24 3 0
BITMAP
0100
0200
0400
0000
1F80
0000
FFF0
8000
8000
8000
8000
8000
8000
8000
8000
BF80
8000
8000
8000
8000
8000
8000
8000
FFE0
ENDCHAR
STARTCHAR 1E17
ENCODING 7703
SWIDTH 560 0
DWIDTH 14 0
BBX 12 21 1 0
BITMAP
0080
0100
0200
0000
0000
1F80
0000
0000
0F80
3040
4020
8010
8010
8010
FFF0
8000
8000
4000
4000
2020
1FC0
ENDCHAR
STARTCHAR 1E1C
ENCODING 7708
SWIDTH 640 0
DWIDTH 16 0
BBX 12 26 3 -4
BITMAP
1080
0900
0600
FFF0
8000
8000
8000
8000
8000
8000
8000
8000
BF80
8000
8000
8000
8000
8000
8000
8000
8000
7FE0
0200
0100
0100
0F00
ENDCHAR
STARTCHAR 1E1D
ENCODING 7709
SWIDTH 560 0
DWIDTH 14 0
BBX 12 23 1 -5
BITMAP
1040
1080
0F00
0000
0000
0F80
3040
4020
8010
8010
8010
FFF0
8000
8000
4000
4000
2020
1CC0
0300
0200
0100
0100
0F00
ENDCHAR
STARTCHAR 1E20
ENCODING 7712
SWIDTH 760 0
DWIDTH 19 0
BBX 16 21 1 0
BITMAP
03F0
0000
0000
0040
071C
1802
2000
4000
4000
8000
8000
8000
8001
8001
8001
4001
4001
2001
1001
0802
07FC
ENDCHAR
STARTCHAR 1E21
ENCODING 7713
SWIDTH 640 0
DWIDTH 16 0
BBX 13 22 1 -5
BITMAP
1FC0
0000
0000
0000
0F80
3068
4018
8018
8008
8008
8008
8008
8008
4018
2038
1048
0E88
0008
0008
0010
2010
1FE0
ENDCHAR
STARTCHAR 1E24
ENCODING 7716
SWIDTH 800 0
DWIDTH 20 0
BBX 14 22 3 -4
BITMAP
8000
8004
8004
8004
8004
8004
8004
8004
8004
BFFC
8004
8004
8004
8004
8004
8004
8004
8004
0000
0000
0000
0100
ENDCHAR
STARTCHAR 1E25
ENCODING 7717
SWIDTH 640 0
DWIDTH 16 0
BBX 11 22 3 -3
BITMAP
8000
8000
8000
8000
8000
9F00
E0C0
8040
8020
8020
8020
8020
8020
8020
8020
8020
8020
8020
0000
0000
0000
0400
ENDCHAR
STARTCHAR 1E2A
ENCODING 7722
SWIDTH 800 0
DWIDTH 20 0
BBX 14 23 3 -5
BITMAP
8000
8004
8004
8004
8004
8004
8004
8004
8004
BFFC
8004
8004
8004
8004
8004
8004
8004
8004
0000
0000
0000
0840
0780
ENDCHAR
STARTCHAR 1E2B
ENCODING 7723
SWIDTH 640 0
DWIDTH 16 0
BBX 11 23 3 -4
BITMAP
8000
8000
8000
8000
8000
9F00
E0C0
8040
8020
8020
8020
8020
8020
8020
8020
8020
8020
8020
0000
0000
2080
2100
1E00
ENDCHAR
STARTCHAR 1E2E
ENCODING 7726
SWIDTH 280 0
DWIDTH 7 0
BBX 5 24 1 0
BITMAP
08
30
00
88
00
00
20
20
20
20
20
20
20
20
20
20
20
20
20
20
20
20
20
20
ENDCHAR
STARTCHAR 1E2F
ENCODING 7727
SWIDTH 240 0
DWIDTH 6 0
BBX 6 21 0 0
BITMAP
04
08
30
00
C4
00
00
00
00
20
20
20
20
20
20
20
20
20
20
20
20
ENDCHAR
STARTCHAR 1E36
ENCODING 7734
SWIDTH 560 0
DWIDTH 14 0
BBX 10 22 3 -4
BITMAP
8000
8000
8000
8000
8000
8000
8000
8000
8000
8000
8000
8000
8000
8000
8000
8000
8000
8000
7FC0
0000
0000
0600
ENDCHAR
STARTCHAR 1E37
ENCODING 7735
SWIDTH 240 0
DWIDTH 6 0
BBX 2 22 2 -3
BITMAP
80
80
80
80
80
80
80
80
80
80
80
80
80
80
80
80
80
80
00
00
00
40
ENDCHAR
STARTCHAR 1E3A
ENCODING 7738
SWIDTH 560 0
DWIDTH 14 0
BBX 10 22 3 -4
BITMAP
8000
8000
8000
8000
8000
8000
8000
8000
8000
8000
8000
8000
8000
8000
8000
8000
8000
8000
7FC0
0000
0000
1F80
ENDCHAR
STARTCHAR 1E3B
ENCODING 7739
SWIDTH 240 0
DWIDTH 6 0
BBX 7 22 0 -3
BITMAP
20
20
20
20
20
20
20
20
20
20
20
20
20
20
20
20
20
20
00
00
00
FE
ENDCHAR
STARTCHAR 1E42
ENCODING 7746
SWIDTH 920 0
DWIDTH 23 0
BBX 18 22 3 -4
BITMAP
800040
800040
C000C0
C00140
A00240
900240
900440
880440
880840
840840
841040
822040
812040
814040
80C040
800040
800040
800040
000000
000000
000000
00C000
ENDCHAR
STARTCHAR 1E43
ENCODING 7747
SWIDTH 1040 0
DWIDTH 26 0
BBX 21 17 3 -4
BITMAP
1F07C0
E08830
805010
806008
802008
802008
802008
802008
802008
802008
802008
802008
802008
000000
000000
000000
002000
ENDCHAR
STARTCHAR 1E44
ENCODING 7748
SWIDTH 800 0
DWIDTH 20 0
BBX 14 21 3 0
BITMAP
0100
0000
0000
8000
C004
C004
A004
9004
8804
8804
8404
8204
8104
8184
8084
8044
8024
8014
8014
800C
8004
ENDCHAR
STARTCHAR 1E45
ENCODING 7749
SWIDTH 640 0
DWIDTH 16 0
BBX 11 17 3 0
BITMAP
0400
0000
0000
0000
1F00
E0C0
8040
8020
8020
8020
8020
8020
8020
8020
8020
8020
8020
ENDCHAR
STARTCHAR 1E46
ENCODING 7750
SWIDTH 800 0
DWIDTH 20 0
BBX 14 22 3 -4
BITMAP
8000
C004
C004
A004
9004
8804
8804
8404
8204
8104
8184
8084
8044
8024
8014
8014
800C
8004
0000
0000
0000
0100
ENDCHAR
STARTCHAR 1E47
ENCODING 7751
SWIDTH 640 0
DWIDTH 16 0
BBX 11 17 3 -4
BITMAP
1F00
E0C0
8040
8020
8020
8020
8020
8020
8020
8020
8020
8020
8020
0000
0000
0000
0400
ENDCHAR
STARTCHAR 1E48
ENCODING 7752
SWIDTH 800 0
DWIDTH 20 0
BBX 14 22 3 -4
BITMAP
8000
C004
C004
A004
9004
8804
8804
8404
8204
8104
8184
8084
8044
8024
8014
8014
800C
8004
0000
0000
0000
0FE0
ENDCHAR
STARTCHAR 1E49
ENCODING 7753
SWIDTH 640 0
DWIDTH 16 0
BBX 11 17 3 -4
BITMAP
1F00
E0C0
8040
8020
8020
8020
8020
8020
8020
8020
8020
8020
8020
0000
0000
0000
3F80
ENDCHAR
STARTCHAR 1E4C
ENCODING 7756
SWIDTH 800 0
DWIDTH 20 0
BBX 18 24 1 0
BITMAP
003000
004000
000000
038800
027000
000000
004000
071C00
180200
200100
400080
400040
800040
800040
800040
800040
800040
800040
400040
400080
200080
100100
080200
07FC00
ENDCHAR
STARTCHAR 1E4D
ENCODING 7757
SWIDTH 600 0
DWIDTH 15 0
BBX 13 21 1 0
BITMAP
0040
0180
0200
0000
1E40
0180
0000
0000
0F80
3060
4010
4010
8008
8008
8008
8008
8008
4010
4010
2020
1FC0
ENDCHAR
STARTCHAR 1E4E
ENCODING 7758
SWIDTH 800 0
DWIDTH 20 0
BBX 18 24 1 0
BITMAP
011000
000000
000000
038800
027000
000000
004000
071C00
180200
200100
400080
400040
800040
800040
800040
800040
800040
800040
400040
400080
200080
100100
080200
07FC00
ENDCHAR
STARTCHAR 1E4F
ENCODING 7759
SWIDTH 600 0
DWIDTH 15 0
BBX 13 20 1 0
BITMAP
0880
0000
0000
1E40
0180
0000
0000
0F80
3060
4010
4010
8008
8008
8008
8008
8008
4010
4010
2020
1FC0
ENDCHAR
STARTCHAR 1E50
ENCODING 7760
SWIDTH 800 0
DWIDTH 20 0
BBX 18 24 1 0
BITMAP
010000
00C000
000000
000000
01F000
000000
004000
071C00
180200
200100
400080
400040
800040
800040
800040
800040
800040
800040
400040
400080
200080
100100
080200
07FC00
ENDCHAR
STARTCHAR 1E51
ENCODING 7761
SWIDTH 600 0
DWIDTH 15 0
BBX 13 21 1 0
BITMAP
0800
0400
0200
0000
0000
0FC0
0000
0000
0F80
3060
4010
4010
8008
8008
8008
8008
8008
4010
4010
2020
1FC0
ENDCHAR
STARTCHAR 1E52
ENCODING 7762
SWIDTH 800 0
DWIDTH 20 0
BBX 18 24 1 0
BITMAP
003000
004000
000000
000000
01F000
000000
004000
071C00
180200
200100
400080
400040
800040
800040
800040
800040
800040
800040
400040
400080
200080
100100
080200
07FC00
ENDCHAR
STARTCHAR 1E53
ENCODING 7763
SWIDTH 600 0
DWIDTH 15 0
BBX 13 21 1 0
BITMAP
0040
0180
0200
0000
0000
0FC0
0000
0000
0F80
3060
4010
4010
8008
8008
8008
8008
8008
4010
4010
2020
1FC0
ENDCHAR
STARTCHAR 1E5A
ENCODING 7770
SWIDTH 680 0
DWIDTH 17 0
BBX 13 22 3 -4
BITMAP
FC00
83E0
8010
8010
8008
8008
8008
8008
8008
8010
8020
81C0
FE80
8040
8020
8010
8010
8008
0000
0000
0000
0200
ENDCHAR
STARTCHAR 1E5B
ENCODING 7771
SWIDTH 360 0
DWIDTH 9 0
BBX 6 17 2 -4
BITMAP
0C
B0
C0
40
40
80
80
80
80
80
80
80
80
00
00
00
40
ENDCHAR
STARTCHAR 1E5E
ENCODING 7774
SWIDTH 680 0
DWIDTH 17 0
BBX 13 22 3 -4
BITMAP
FC00
83E0
8010
8010
8008
8008
8008
8008
8008
8010
8020
81C0
FE80
8040
8020
8010
8010
8008
0000
0000
0000
1FC0
ENDCHAR
STARTCHAR 1E5F
ENCODING 7775
SWIDTH 360 0
DWIDTH 9 0
BBX 8 17 0 -4
BITMAP
03
2C
30
10
10
20
20
20
20
20
20
20
20
00
00
00
FE
ENDCHAR
STARTCHAR 1E60
ENCODING 7776
SWIDTH 600 0
DWIDTH 15 0
BBX 13 21 1 0
BITMAP
0300
0000
0000
0200
1CE0
6000
4000
C000
8000
4000
2000
1800
0780
0060
0010
0010
0008
0008
0010
4020
3FC0
ENDCHAR
STARTCHAR 1E61
ENCODING 7777
SWIDTH 440 0
DWIDTH 11 0
BBX 10 17 1 0
BITMAP
0800
0000
0000
0000
3F00
4080
8000
8000
8000
4000
3C00
0380
0080
0040
0040
8080
7F00
ENDCHAR
STARTCHAR 1E62
ENCODING 7778
SWIDTH 600 0
DWIDTH 15 0
BBX 13 22 1 -4
BITMAP
0200
1CE0
6000
4000
C000
8000
4000
2000
1800
0780
0060
0010
0010
0008
0008
0010
4020
3CC0
0300
0000
0000
0300
ENDCHAR
STARTCHAR 1E63
ENCODING 7779
SWIDTH 440 0
DWIDTH 11 0
BBX 10 17 1 -4
BITMAP
3F00
4080
8000
8000
8000
4000
3C00
0380
0080
0040
0040
8080
7300
0C00
0000
0000
0800
ENDCHAR
STARTCHAR 1E64
ENCODING 7780
SWIDTH 600 0
DWIDTH 15 0
BBX 13 24 1 0
BITMAP
0300
0000
0000
0080
0300
0000
0200
1CE0
6000
4000
C000
8000
4000
2000
1800
0780
0060
0010
0010
0008
0008
0010
4020
3FC0
ENDCHAR
STARTCHAR 1E65
ENCODING 7781
SWIDTH 440 0
DWIDTH 11 0
BBX 10 20 1 0
BITMAP
0800
0000
0100
0600
0800
0000
0000
3F00
4080
8000
8000
8000
4000
3C00
0380
0080
0040
0040
8080
7F00
ENDCHAR
STARTCHAR 1E66
ENCODING 7782
SWIDTH 600 0
DWIDTH 15 0
BBX 13 23 1 0
BITMAP
0300
0000
0840
0780
0000
0200
1CE0
6000
4000
C000
8000
4000
2000
1800
0780
0060
0010
0010
0008
0008
0010
4020
3FC0
ENDCHAR
STARTCHAR 1E67
ENCODING 7783
SWIDTH 440 0
DWIDTH 11 0
BBX 10 19 1 1
BITMAP
0800
0000
2200
1C00
0000
0000
3F00
4080
8000
8000
8000
4000
3C00
0380
0080
0040
0040
8080
7F00
ENDCHAR
STARTCHAR 1E68
ENCODING 7784
SWIDTH 600 0
DWIDTH 15 0
BBX 13 25 1 -4
BITMAP
0300
0000
0000
0200
1CE0
6000
4000
C000
8000
4000
2000
1800
0780
0060
0010
0010
0008
0008
0010
4020
3CC0
0300
0000
0000
0300
ENDCHAR
STARTCHAR 1E69
ENCODING 7785
SWIDTH 440 0
DWIDTH 11 0
BBX 10 21 1 -4
BITMAP
0800
0000
0000
0000
3F00
4080
8000
8000
8000
4000
3C00
0380
0080
0040
0040
8080
7300
0C00
0000
0000
0800
ENDCHAR
STARTCHAR 1E6C
ENCODING 7788
SWIDTH 520 0
DWIDTH 13 0
BBX 14 22 0 -4
BITMAP
FFFC
0200
0200
0200
0200
0200
0200
0200
0200
0200
0200
0200
0200
0200
0200
0200
0200
0200
0000
0000
0000
0200
ENDCHAR
STARTCHAR 1E6D
ENCODING 7789
SWIDTH 360 0
DWIDTH 9 0
BBX 7 20 1 -4
BITMAP
20
20
20
FE
20
20
20
20
20
20
20
20
20
20
20
1A
04
00
00
0C
ENDCHAR
STARTCHAR 1E6E
ENCODING 7790
SWIDTH 520 0
DWIDTH 13 0
BBX 14 22 0 -4
BITMAP
FFFC
0200
0200
0200
0200
0200
0200
0200
0200
0200
0200
0200
0200
0200
0200
0200
0200
0200
0000
0000
0000
1FC0
ENDCHAR
STARTCHAR 1E6F
ENCODING 7791
SWIDTH 360 0
DWIDTH 9 0
BBX 8 20 1 -4
BITMAP
20
20
20
FE
20
20
20
20
20
20
20
20
20
20
20
1A
04
00
00
3F
ENDCHAR
STARTCHAR 1E78
ENCODING 7800
SWIDTH 760 0
DWIDTH 19 0
BBX 14 24 3 0
BITMAP
0080
0100
0200
0E40
0180
0000
8004
8004
8004
8004
8004
8004
8004
8004
8004
8004
8004
8004
8004
8008
8008
4010
2010
1FE0
ENDCHAR
STARTCHAR 1E79
ENCODING 7801
SWIDTH 640 0
DWIDTH 16 0
BBX 11 21 3 0
BITMAP
0100
0200
0400
0000
3D00
0200
0000
0000
0020
8020
8020
8020
8020
8020
8020
8020
8020
8020
8060
40A0
3F20
ENDCHAR
STARTCHAR 1E7A
ENCODING 7802
SWIDTH 760 0
DWIDTH 19 0
BBX 14 24 3 0
BITMAP
08C0
0000
0000
0000
0FC0
0000
8004
8004
8004
8004
8004
8004
8004
8004
8004
8004
8004
8004
8004
8008
8008
4010
2010
1FE0
ENDCHAR
STARTCHAR 1E7B
ENCODING 7803
SWIDTH 640 0
DWIDTH 16 0
BBX 11 20 3 0
BITMAP
1100
0000
0000
0000
3F00
0000
0000
0020
8020
8020
8020
8020
8020
8020
8020
8020
8020
8060
40A0
3F20
ENDCHAR
STARTCHAR 1E80
ENCODING 7808
SWIDTH 1080 0
DWIDTH 27 0
BBX 25 22 1 0
BITMAP
00400000
00300000
00080000
00000000
80080080
80180080
80180100
40140100
40240100
40220200
20220200
20420400
20410400
10410400
10810800
10808800
08808800
09009000
09005000
05005000
06006000
02002000
ENDCHAR
STARTCHAR 1E81
ENCODING 7809
SWIDTH 800 0
DWIDTH 20 0
BBX 21 18 0 0
BITMAP
008000
004000
002000
000000
000000
802008
806010
405010
409020
409020
208820
210840
110440
120480
120480
0A0280
0C0300
040100
ENDCHAR
STARTCHAR 1E82
ENCODING 7810
SWIDTH 1080 0
DWIDTH 27 0
BBX 25 22 1 0
BITMAP
00010000
00060000
00080000
00000000
80080080
80180080
80180100
40140100
40240100
40220200
20220200
20420400
20410400
10410400
10810800
10808800
08808800
09009000
09005000
05005000
06006000
02002000
ENDCHAR
STARTCHAR 1E83
ENCODING 7811
SWIDTH 800 0
DWIDTH 20 0
BBX 21 18 0 0
BITMAP
000800
001000
002000
000000
000000
802008
806010
405010
409020
409020
208820
210840
110440
120480
120480
0A0280
0C0300
040100
ENDCHAR
STARTCHAR 1E84
ENCODING 7812
SWIDTH 1080 0
DWIDTH 27 0
BBX 25 21 1 0
BITMAP
00220000
00000000
00000000
80080080
80180080
80180100
40140100
40240100
40220200
20220200
20420400
20410400
10410400
10810800
10808800
08808800
09009000
09005000
05005000
06006000
02002000
ENDCHAR
STARTCHAR 1E85
ENCODING 7813
SWIDTH 800 0
DWIDTH 20 0
BBX 21 17 0 0
BITMAP
008800
000000
000000
000000
802008
806010
405010
409020
409020
208820
210840
110440
120480
120480
0A0280
0C0300
040100
ENDCHAR
STARTCHAR 1E8E
ENCODING 7822
SWIDTH 600 0
DWIDTH 15 0
BBX 15 21 0 0
BITMAP
0100
0000
0000
8002
8004
4004
2008
2008
1010
0820
0820
0440
0480
0280
0100
0100
0100
0100
0100
0100
0100
ENDCHAR
STARTCHAR 1E8F
ENCODING 7823
SWIDTH 480 0
DWIDTH 12 0
BBX 13 22 -1 -5
BITMAP
0300
0000
0000
0000
4000
4008
2010
2010
1010
1020
0820
0840
0440
0480
0480
0300
0100
0200
0200
0400
8400
7800
ENDCHAR
STARTCHAR 1E92
ENCODING 7826
SWIDTH 600 0
DWIDTH 15 0
BBX 14 22 1 -4
BITMAP
FFFC
0008
0008
0010
0020
0040
0080
0080
0100
0200
0400
0400
0800
1000
2000
2000
4000
8000
7FF8
0000
0000
0100
ENDCHAR
STARTCHAR 1E93
ENCODING 7827
SWIDTH 480 0
DWIDTH 12 0
BBX 10 17 1 -4
BITMAP
FFC0
0080
0100
0100
0200
0400
0800
0800
1000
2000
4000
4000
8000
7F80
0000
0000
0400
ENDCHAR
STARTCHAR 1E97
ENCODING 7831
SWIDTH 360 0
DWIDTH 9 0
BBX 7 20 1 0
BITMAP
88
00
00
00
20
20
20
FE
20
20
20
20
20
20
20
20
20
20
20
1E
ENDCHAR
STARTCHAR 1E9E
ENCODING 7838
SWIDTH 720 0
DWIDTH 18 0
BBX 14 18 3 0
BITMAP
0300
1CE0
6010
4010
8020
8040
8080
8100
83C0
8030
8008
8004
8004
8004
8004
8008
8008
87F0
ENDCHAR
STARTCHAR 1EA0
ENCODING 7840
SWIDTH 680 0
DWIDTH 17 0
BBX 17 22 0 -4
BITMAP
008000
018000
014000
014000
022000
022000
041000
041000
080800
080800
100800
100400
1FFC00
200200
400200
400100
400100
800080
000000
000000
000000
008000
ENDCHAR
STARTCHAR 1EA1
ENCODING 7841
SWIDTH 560 0
DWIDTH 14 0
BBX 10 17 2 -4
BITMAP
3E00
C180
0080
0040
0040
0040
7F40
8040
8040
8040
80C0
8140
6640
1800
0000
0000
0400
ENDCHAR
STARTCHAR 1EA2
ENCODING 7842
SWIDTH 680 0
DWIDTH 17 0
BBX 17 23 0 0
BITMAP
01C000
004000
004000
004000
000000
008000
018000
014000
014000
022000
022000
041000
041000
080800
080800
100800
100400
1FFC00
200200
400200
400100
400100
800080
ENDCHAR
STARTCHAR 1EA3
ENCODING 7843
SWIDTH 560 0
DWIDTH 14 0
BBX 10 19 2 0
BITMAP
1C00
0200
0200
0400
0000
0000
3E00
C180
0080
0040
0040
0040
7F40
8040
8040
8040
80C0
8140
7E40
ENDCHAR
STARTCHAR 1EA4
ENCODING 7844
SWIDTH 680 0
DWIDTH 17 0
BBX 17 23 0 0
BITMAP
000400
001800
00C000
032000
000000
008000
018000
014000
014000
022000
022000
041000
041000
080800
080800
100800
100400
1FFC00
200200
400200
400100
400100
800080
ENDCHAR
STARTCHAR 1EA5
ENCODING 7845
SWIDTH 560 0
DWIDTH 14 0
BBX 11 20 2 0
BITMAP
0020
00C0
0100
1C00
2300
0000
0000
3E00
C180
0080
0040
0040
0040
7F40
8040
8040
8040
80C0
8140
7E40
ENDCHAR
STARTCHAR 1EA6
ENCODING 7846
SWIDTH 680 0
DWIDTH 17 0
BBX 17 23 0 0
BITMAP
006000
001000
00C000
032000
000000
008000
018000
014000
014000
022000
022000
041000
041000
080800
080800
100800
100400
1FFC00
200200
400200
400100
400100
800080
ENDCHAR
STARTCHAR 1EA7
ENCODING 7847
SWIDTH 560 0
DWIDTH 14 0
BBX 10 20 2 0
BITMAP
0400
0200
0100
1C00
2300
0000
0000
3E00
C180
0080
0040
0040
0040
7F40
8040
8040
8040
80C0
8140
7E40
ENDCHAR
STARTCHAR 1EA8
ENCODING 7848
SWIDTH 680 0
DWIDTH 17 0
BBX 17 24 0 0
BITMAP
002000
001000
001000
00C000
032000
000000
008000
018000
014000
014000
022000
022000
041000
041000
080800
080800
100800
100400
1FFC00
200200
400200
400100
400100
800080
ENDCHAR
STARTCHAR 1EA9
ENCODING 7849
SWIDTH 560 0
DWIDTH 14 0
BBX 10 20 2 0
BITMAP
0300
0080
0100
1C00
2300
0000
0000
3E00
C180
0080
0040
0040
0040
7F40
8040
8040
8040
80C0
8140
7E40
ENDCHAR
STARTCHAR 1EAA
ENCODING 7850
SWIDTH 680 0
DWIDTH 17 0
BBX 17 24 0 0
BITMAP
020000
049000
006000
00C000
032000
000000
008000
018000
014000
014000
022000
022000
041000
041000
080800
080800
100800
100400
1FFC00
200200
400200
400100
400100
800080
ENDCHAR
STARTCHAR 1EAB
ENCODING 7851
SWIDTH 560 0
DWIDTH 14 0
BBX 10 20 2 0
BITMAP
3000
0F00
0000
1C00
2300
0000
0000
3E00
C180
0080
0040
0040
0040
7F40
8040
8040
8040
80C0
8140
7E40
ENDCHAR
STARTCHAR 1EAC
ENCODING 7852
SWIDTH 680 0
DWIDTH 17 0
BBX 17 26 0 -4
BITMAP
008000
014000
022000
001000
008000
018000
014000
014000
022000
022000
041000
041000
080800
080800
100800
100400
1FFC00
200200
400200
400100
400100
800080
000000
000000
000000
008000
ENDCHAR
STARTCHAR 1EAD
ENCODING 7853
SWIDTH 560 0
DWIDTH 14 0
BBX 10 22 2 -4
BITMAP
0C00
1200
2100
0000
0000
3E00
C180
0080
0040
0040
0040
7F40
8040
8040
8040
80C0
8140
6640
1800
0000
0000
0400
ENDCHAR
STARTCHAR 1EAE
ENCODING 7854
SWIDTH 680 0
DWIDTH 17 0
BBX 17 24 0 0
BITMAP
002000
004000
008000
041000
036000
008000
008000
018000
014000
014000
022000
022000
041000
041000
080800
080800
100800
100400
1FFC00
200200
400200
400100
400100
800080
ENDCHAR
STARTCHAR 1EAF
ENCODING 7855
SWIDTH 560 0
DWIDTH 14 0
BBX 10 20 2 0
BITMAP
0200
0400
0800
4100
3E00
0000
0000
3E00
C180
0080
0040
0040
0040
7F40
8040
8040
8040
80C0
8140
7E40
ENDCHAR
STARTCHAR 1EB0
ENCODING 7856
SWIDTH 680 0
DWIDTH 17 0
BBX 17 24 0 0
BITMAP
020000
010000
008000
041000
036000
008000
008000
018000
014000
014000
022000
022000
041000
041000
080800
080800
100800
100400
1FFC00
200200
400200
400100
400100
800080
ENDCHAR
STARTCHAR 1EB1
ENCODING 7857
SWIDTH 560 0
DWIDTH 14 0
BBX 10 20 2 0
BITMAP
2000
1800
0000
4100
3E00
0000
0000
3E00
C180
0080
0040
0040
0040
7F40
8040
8040
8040
80C0
8140
7E40
ENDCHAR
STARTCHAR 1EB2
ENCODING 7858
SWIDTH 680 0
DWIDTH 17 0
BBX 17 24 0 0
BITMAP
018000
004000
004000
041000
036000
008000
008000
018000
014000
014000
022000
022000
041000
041000
080800
080800
100800
100400
1FFC00
200200
400200
400100
400100
800080
ENDCHAR
STARTCHAR 1EB3
ENCODING 7859
SWIDTH 560 0
DWIDTH 14 0
BBX 10 20 2 0
BITMAP
0C00
0400
0400
4100
3E00
0000
0000
3E00
C180
0080
0040
0040
0040
7F40
8040
8040
8040
80C0
8140
7E40
ENDCHAR
STARTCHAR 1EB4
ENCODING 7860
SWIDTH 680 0
DWIDTH 17 0
BBX 17 23 0 0
BITMAP
079000
006000
041000
036000
008000
008000
018000
014000
014000
022000
022000
041000
041000
080800
080800
100800
100400
1FFC00
200200
400200
400100
400100
800080
ENDCHAR
STARTCHAR 1EB5
ENCODING 7861
SWIDTH 560 0
DWIDTH 14 0
BBX 10 20 2 0
BITMAP
1000
4D00
0200
4100
3E00
0000
0000
3E00
C180
0080
0040
0040
0040
7F40
8040
8040
8040
80C0
8140
7E40
ENDCHAR
STARTCHAR 1EB6
ENCODING 7862
SWIDTH 680 0
DWIDTH 17 0
BBX 17 26 0 -4
BITMAP
041000
041000
032000
00C000
008000
018000
014000
014000
022000
022000
041000
041000
080800
080800
100800
100400
1FFC00
200200
400200
400100
400100
800080
000000
000000
000000
008000
ENDCHAR
STARTCHAR 1EB7
ENCODING 7863
SWIDTH 560 0
DWIDTH 14 0
BBX 10 21 2 -3
BITMAP
2100
1E00
0000
0000
3E00
C180
0080
0040
0040
0040
7F40
8040
8040
8040
80C0
8140
6640
1800
0000
0000
0400
ENDCHAR
STARTCHAR 1EB8
ENCODING 7864
SWIDTH 640 0
DWIDTH 16 0
BBX 12 22 3 -4
BITMAP
FFF0
8000
8000
8000
8000
8000
8000
8000
8000
BF80
8000
8000
8000
8000
8000
8000
8000
8000
7FE0
0000
0000
0200
ENDCHAR
STARTCHAR 1EB9
ENCODING 7865
SWIDTH 560 0
DWIDTH 14 0
BBX 12 17 1 -4
BITMAP
0F80
3040
4020
8010
8010
8010
FFF0
8000
8000
4000
4000
2020
1CC0
0300
0000
0000
0200
ENDCHAR
STARTCHAR 1EBA
ENCODING 7866
SWIDTH 640 0
DWIDTH 16 0
BBX 12 23 3 0
BITMAP
0E00
0100
0100
0200
0000
FFF0
8000
8000
8000
8000
8000
8000
8000
8000
BF80
8000
8000
8000
8000
8000
8000
8000
FFE0
ENDCHAR
STARTCHAR 1EBB
ENCODING 7867
SWIDTH 560 0
DWIDTH 14 0
BBX 12 19 1 0
BITMAP
0300
0100
0100
0200
0000
0000
0F80
3040
4020
8010
8010
8010
FFF0
8000
8000
4000
4000
2020
1FC0
ENDCHAR
STARTCHAR 1EBC
ENCODING 7868
SWIDTH 640 0
DWIDTH 16 0
BBX 12 21 3 0
BITMAP
3C80
0380
0000
FFF0
8000
8000
8000
8000
8000
8000
8000
8000
BF80
8000
8000
8000
8000
8000
8000
8000
FFE0
ENDCHAR
STARTCHAR 1EBD
ENCODING 7869
SWIDTH 560 0
DWIDTH 14 0
BBX 12 18 1 0
BITMAP
0C40
1240
0180
0000
0000
0F80
3040
4020
8010
8010
8010
FFF0
8000
8000
4000
4000
2020
1FC0
ENDCHAR
STARTCHAR 1EBE
ENCODING 7870
SWIDTH 640 0
DWIDTH 16 0
BBX 12 23 3 0
BITMAP
0020
0040
0680
1980
0000
FFF0
8000
8000
8000
8000
8000
8000
8000
8000
BF80
8000
8000
8000
8000
8000
8000
8000
FFE0
ENDCHAR
STARTCHAR 1EBF
ENCODING 7871
SWIDTH 560 0
DWIDTH 14 0
BBX 12 20 1 0
BITMAP
0010
0020
0040
0700
1880
0000
0000
0F80
3040
4020
8010
8010
8010
FFF0
8000
8000
4000
4000
2020
1FC0
ENDCHAR
STARTCHAR 1EC0
ENCODING 7872
SWIDTH 640 0
DWIDTH 16 0
BBX 12 23 3 0
BITMAP
0100
0080
0600
1980
0000
FFF0
8000
8000
8000
8000
8000
8000
8000
8000
BF80
8000
8000
8000
8000
8000
8000
8000
FFE0
ENDCHAR
STARTCHAR 1EC1
ENCODING 7873
SWIDTH 560 0
DWIDTH 14 0
BBX 12 20 1 0
BITMAP
0200
0180
0040
0700
1880
0000
0000
0F80
3040
4020
8010
8010
8010
FFF0
8000
8000
4000
4000
2020
1FC0
ENDCHAR
STARTCHAR 1EC2
ENCODING 7874
SWIDTH 640 0
DWIDTH 16 0
BBX 12 24 3 0
BITMAP
0080
0040
0040
0600
1980
0000
FFF0
8000
8000
8000
8000
8000
8000
8000
8000
BF80
8000
8000
8000
8000
8000
8000
8000
FFE0
ENDCHAR
STARTCHAR 1EC3
ENCODING 7875
SWIDTH 560 0
DWIDTH 14 0
BBX 12 20 1 0
BITMAP
00C0
0040
0040
0700
1880
0000
0000
0F80
3040
4020
8010
8010
8010
FFF0
8000
8000
4000
4000
2020
1FC0
ENDCHAR
STARTCHAR 1EC4
ENCODING 7876
SWIDTH 640 0
DWIDTH 16 0
BBX 12 24 3 0
BITMAP
0800
3680
0100
0600
1980
0000
FFF0
8000
8000
8000
8000
8000
8000
8000
8000
BF80
8000
8000
8000
8000
8000
8000
8000
FFE0
ENDCHAR
STARTCHAR 1EC5
ENCODING 7877
SWIDTH 560 0
DWIDTH 14 0
BBX 12 20 1 0
BITMAP
0C40
1380
0000
0700
1880
0000
0000
0F80
3040
4020
8010
8010
8010
FFF0
8000
8000
4000
4000
2020
1FC0
ENDCHAR
STARTCHAR 1EC6
ENCODING 7878
SWIDTH 640 0
DWIDTH 16 0
BBX 12 26 3 -4
BITMAP
0600
0900
1080
0000
FFF0
8000
8000
8000
8000
8000
8000
8000
8000
BF80
8000
8000
8000
8000
8000
8000
8000
8000
7FE0
0000
0000
0200
ENDCHAR
STARTCHAR 1EC7
ENCODING 7879
SWIDTH 560 0
DWIDTH 14 0
BBX 12 22 1 -4
BITMAP
0600
0900
1080
0000
0000
0F80
3040
4020
8010
8010
8010
FFF0
8000
8000
4000
4000
2020
1CC0
0300
0000
0000
0200
ENDCHAR
STARTCHAR 1EC8
ENCODING 7880
SWIDTH 280 0
DWIDTH 7 0
BBX 3 23 2 0
BITMAP
E0
20
20
20
00
40
40
40
40
40
40
40
40
40
40
40
40
40
40
40
40
40
40
ENDCHAR
STARTCHAR 1EC9
ENCODING 7881
SWIDTH 240 0
DWIDTH 6 0
BBX 4 19 1 0
BITMAP
F0
10
10
20
00
00
00
40
40
40
40
40
40
40
40
40
40
40
40
ENDCHAR
STARTCHAR 1ECA
ENCODING 7882
SWIDTH 280 0
DWIDTH 7 0
BBX 1 22 3 -4
BITMAP
80
80
80
80
80
80
80
80
80
80
80
80
80
80
80
80
80
80
00
00
00
80
ENDCHAR
STARTCHAR 1ECB
ENCODING 7883
SWIDTH 240 0
DWIDTH 6 0
BBX 2 22 2 -4
BITMAP
40
00
00
00
00
00
80
80
80
80
80
80
80
80
80
80
80
80
00
00
00
40
ENDCHAR
STARTCHAR 1ECC
ENCODING 7884
SWIDTH 800 0
DWIDTH 20 0
BBX 18 22 1 -4
BITMAP
004000
071C00
180200
200100
400080
400040
800040
800040
800040
800040
800040
800040
400040
400080
200080
100100
080200
073C00
00C000
000000
000000
004000
ENDCHAR
STARTCHAR 1ECD
ENCODING 7885
SWIDTH 600 0
DWIDTH 15 0
BBX 13 17 1 -4
BITMAP
0F80
3060
4010
4010
8008
8008
8008
8008
8008
4010
4010
2020
1DC0
0200
0000
0000
0200
ENDCHAR
STARTCHAR 1ECE
ENCODING 7886
SWIDTH 800 0
DWIDTH 20 0
BBX 18 23 1 0
BITMAP
00E000
002000
002000
002000
000000
004000
071C00
180200
200100
400080
400040
800040
800040
800040
800040
800040
800040
400040
400080
200080
100100
080200
07FC00
ENDCHAR
STARTCHAR 1ECF
ENCODING 7887
SWIDTH 600 0
DWIDTH 15 0
BBX 13 19 1 0
BITMAP
0700
0100
0100
0200
0000
0000
0F80
3060
4010
4010
8008
8008
8008
8008
8008
4010
4010
2020
1FC0
ENDCHAR
STARTCHAR 1ED0
ENCODING 7888
SWIDTH 800 0
DWIDTH 20 0
BBX 18 23 1 0
BITMAP
000600
000800
00C000
013000
000000
004000
071C00
180200
200100
400080
400040
800040
800040
800040
800040
800040
800040
400040
400080
200080
100100
080200
07FC00
ENDCHAR
STARTCHAR 1ED1
ENCODING 7889
SWIDTH 600 0
DWIDTH 15 0
BBX 13 20 1 0
BITMAP
0008
0030
0040
0700
08C0
0000
0000
0F80
3060
4010
4010
8008
8008
8008
8008
8008
4010
4010
2020
1FC0
ENDCHAR
STARTCHAR 1ED2
ENCODING 7890
SWIDTH 800 0
DWIDTH 20 0
BBX 18 23 1 0
BITMAP
002000
001800
00C000
013000
000000
004000
071C00
180200
200100
400080
400040
800040
800040
800040
800040
800040
800040
400040
400080
200080
100100
080200
07FC00
ENDCHAR
STARTCHAR 1ED3
ENCODING 7891
SWIDTH 600 0
DWIDTH 15 0
BBX 13 20 1 0
BITMAP
0100
0080
0040
0700
08C0
0000
0000
0F80
3060
4010
4010
8008
8008
8008
8008
8008
4010
4010
2020
1FC0
ENDCHAR
STARTCHAR 1ED4
ENCODING 7892
SWIDTH 800 0
DWIDTH 20 0
BBX 18 24 1 0
BITMAP
001800
000800
000800
00C000
013000
000000
004000
071C00
180200
200100
400080
400040
800040
800040
800040
800040
800040
800040
400040
400080
200080
100100
080200
07FC00
ENDCHAR
STARTCHAR 1ED5
ENCODING 7893
SWIDTH 600 0
DWIDTH 15 0
BBX 13 20 1 0
BITMAP
00C0
0020
0040
0700
08C0
0000
0000
0F80
3060
4010
4010
8008
8008
8008
8008
8008
4010
4010
2020
1FC0
ENDCHAR
STARTCHAR 1ED6
ENCODING 7894
SWIDTH 800 0
DWIDTH 20 0
BBX 18 24 1 0
BITMAP
008000
024800
003000
00C000
013000
000000
004000
071C00
180200
200100
400080
400040
800040
800040
800040
800040
800040
800040
400040
400080
200080
100100
080200
07FC00
ENDCHAR
STARTCHAR 1ED7
ENCODING 7895
SWIDTH 600 0
DWIDTH 15 0
BBX 13 20 1 0
BITMAP
0C40
1380
0000
0700
08C0
0000
0000
0F80
3060
4010
4010
8008
8008
8008
8008
8008
4010
4010
2020
1FC0
ENDCHAR
STARTCHAR 1ED8
ENCODING 7896
SWIDTH 800 0
DWIDTH 20 0
BBX 18 26 1 -4
BITMAP
004000
00A000
031000
000000
004000
071C00
180200
200100
400080
400040
800040
800040
800040
800040
800040
800040
400040
400080
200080
100100
080200
073C00
00C000
000000
000000
004000
ENDCHAR
STARTCHAR 1ED9
ENCODING 7897
SWIDTH 600 0
DWIDTH 15 0
BBX 13 22 1 -4
BITMAP
0300
0C80
0040
0000
0000
0F80
3060
4010
4010
8008
8008
8008
8008
8008
4010
4010
2020
1DC0
0200
0000
0000
0200
ENDCHAR
STARTCHAR 1EDA
ENCODING 7898
SWIDTH 800 0
DWIDTH 20 0
BBX 18 22 1 0
BITMAP
000800
003040
004040
000040
006080
071F00
180200
200100
400080
400040
800040
800040
800040
800040
800040
800040
400040
400080
200080
100100
080200
07FC00
ENDCHAR
STARTCHAR 1EDB
ENCODING 7899
SWIDTH 600 0
DWIDTH 15 0
BBX 13 18 1 0
BITMAP
0080
0100
0208
0008
0010
0FC0
3020
4010
4010
8008
8008
8008
8008
8008
4010
4010
2020
1FC0
ENDCHAR
STARTCHAR 1EDC
ENCODING 7900
SWIDTH 800 0
DWIDTH 20 0
BBX 18 22 1 0
BITMAP
020000
018040
004040
000040
006080
071F00
180200
200100
400080
400040
800040
800040
800040
800040
800040
800040
400040
400080
200080
100100
080200
07FC00
ENDCHAR
STARTCHAR 1EDD
ENCODING 7901
SWIDTH 600 0
DWIDTH 15 0
BBX 13 18 1 0
BITMAP
0800
0400
0208
0008
0010
0FC0
3020
4010
4010
8008
8008
8008
8008
8008
4010
4010
2020
1FC0
ENDCHAR
STARTCHAR 1EDE
ENCODING 7902
SWIDTH 800 0
DWIDTH 20 0
BBX 18 23 1 0
BITMAP
00E000
002000
002040
002040
000040
006080
071F00
180200
200100
400080
400040
800040
800040
800040
800040
800040
800040
400040
400080
200080
100100
080200
07FC00
ENDCHAR
STARTCHAR 1EDF
ENCODING 7903
SWIDTH 600 0
DWIDTH 15 0
BBX 13 19 1 0
BITMAP
0700
0100
0100
0208
0008
0010
0FC0
3020
4010
4010
8008
8008
8008
8008
8008
4010
4010
2020
1FC0
ENDCHAR
STARTCHAR 1EE0
ENCODING 7904
SWIDTH 800 0
DWIDTH 20 0
BBX 18 21 1 0
BITMAP
03C840
023040
000040
006080
071F00
180200
200100
400080
400040
800040
800040
800040
800040
800040
800040
400040
400080
200080
100100
080200
07FC00
ENDCHAR
STARTCHAR 1EE1
ENCODING 7905
SWIDTH 600 0
DWIDTH 15 0
BBX 13 18 1 0
BITMAP
0C00
1240
0188
0008
0010
0FC0
3020
4010
4010
8008
8008
8008
8008
8008
4010
4010
2020
1FC0
ENDCHAR
STARTCHAR 1EE2
ENCODING 7906
SWIDTH 800 0
DWIDTH 20 0
BBX 18 25 1 -4
BITMAP
000040
000040
000040
006080
071F00
180200
200100
400080
400040
800040
800040
800040
800040
800040
800040
400040
400080
200080
100100
080200
073C00
00C000
000000
000000
004000
ENDCHAR
STARTCHAR 1EE3
ENCODING 7907
SWIDTH 600 0
DWIDTH 15 0
BBX 13 20 1 -3
BITMAP
0008
0008
0010
0FC0
3020
4010
4010
8008
8008
8008
8008
8008
4010
4010
2020
1DC0
0200
0000
0000
0200
ENDCHAR
STARTCHAR 1EE4
ENCODING 7908
SWIDTH 760 0
DWIDTH 19 0
BBX 14 22 3 -4
BITMAP
8004
8004
8004
8004
8004
8004
8004
8004
8004
8004
8004
8004
8004
8008
8008
4010
2010
1DE0
0200
0000
0000
0200
ENDCHAR
STARTCHAR 1EE5
ENCODING 7909
SWIDTH 640 0
DWIDTH 16 0
BBX 11 17 3 -4
BITMAP
0020
8020
8020
8020
8020
8020
8020
8020
8020
8020
8060
40A0
3320
0C00
0000
0000
0400
ENDCHAR
STARTCHAR 1EE6
ENCODING 7910
SWIDTH 760 0
DWIDTH 19 0
BBX 14 23 3 0
BITMAP
0700
0080
0080
0100
0000
8004
8004
8004
8004
8004
8004
8004
8004
8004
8004
8004
8004
8004
8008
8008
4010
2010
1FE0
ENDCHAR
STARTCHAR 1EE7
ENCODING 7911
SWIDTH 640 0
DWIDTH 16 0
BBX 11 19 3 0
BITMAP
1E00
0200
0200
0400
0000
0000
0020
8020
8020
8020
8020
8020
8020
8020
8020
8020
8060
40A0
3F20
ENDCHAR
STARTCHAR 1EE8
ENCODING 7912
SWIDTH 760 0
DWIDTH 19 0
BBX 16 22 3 0
BITMAP
0040
0081
0301
0001
8006
8004
8004
8004
8004
8004
8004
8004
8004
8004
8004
8004
8004
8008
8008
4010
2010
1FE0
ENDCHAR
STARTCHAR 1EE9
ENCODING 7913
SWIDTH 640 0
DWIDTH 16 0
BBX 13 18 3 0
BITMAP
0100
0200
0408
0008
0010
0020
8020
8020
8020
8020
8020
8020
8020
8020
8020
8060
40A0
3F20
ENDCHAR
STARTCHAR 1EEA
ENCODING 7914
SWIDTH 760 0
DWIDTH 19 0
BBX 16 22 3 0
BITMAP
0800
0401
0201
0001
8006
8004
8004
8004
8004
8004
8004
8004
8004
8004
8004
8004
8004
8008
8008
4010
2010
1FE0
ENDCHAR
STARTCHAR 1EEB
ENCODING 7915
SWIDTH 640 0
DWIDTH 16 0
BBX 13 18 3 0
BITMAP
2000
1800
0408
0008
0010
0020
8020
8020
8020
8020
8020
8020
8020
8020
8020
8060
40A0
3F20
ENDCHAR
STARTCHAR 1EEC
ENCODING 7916
SWIDTH 760 0
DWIDTH 19 0
BBX 16 23 3 0
BITMAP
0700
0080
0081
0101
0001
8006
8004
8004
8004
8004
8004
8004
8004
8004
8004
8004
8004
8004
8008
8008
4010
2010
1FE0
ENDCHAR
STARTCHAR 1EED
ENCODING 7917
SWIDTH 640 0
DWIDTH 16 0
BBX 13 19 3 0
BITMAP
1E00
0200
0200
0408
0008
0010
0020
8020
8020
8020
8020
8020
8020
8020
8020
8020
8060
40A0
3F20
ENDCHAR
STARTCHAR 1EEE
ENCODING 7918
SWIDTH 760 0
DWIDTH 19 0
BBX 16 21 3 0
BITMAP
1E41
0181
0001
8006
8004
8004
8004
8004
8004
8004
8004
8004
8004
8004
8004
8004
8008
8008
4010
2010
1FE0
ENDCHAR
STARTCHAR 1EEF
ENCODING 7919
SWIDTH 640 0
DWIDTH 16 0
BBX 13 18 3 0
BITMAP
1080
2D00
0008
0008
0010
0020
8020
8020
8020
8020
8020
8020
8020
8020
8020
8060
40A0
3F20
ENDCHAR
STARTCHAR 1EF0
ENCODING 7920
SWIDTH 760 0
DWIDTH 19 0
BBX 16 25 3 -4
BITMAP
0001
0001
0001
8006
8004
8004
8004
8004
8004
8004
8004
8004
8004
8004
8004
8004
8008
8008
4010
2010
1DE0
0200
0000
0000
0200
ENDCHAR
STARTCHAR 1EF1
ENCODING 7921
SWIDTH 640 0
DWIDTH 16 0
BBX 13 20 3 -3
BITMAP
0008
0008
0010
0020
8020
8020
8020
8020
8020
8020
8020
8020
8020
8060
40A0
3320
0C00
0000
0000
0400
ENDCHAR
STARTCHAR 1EF2
ENCODING 7922
SWIDTH 600 0
DWIDTH 15 0
BBX 15 22 0 0
BITMAP
0800
0600
0100
0000
8002
8004
4004
2008
2008
1010
0820
0820
0440
0480
0280
0100
0100
0100
0100
0100
0100
0100
ENDCHAR
STARTCHAR 1EF3
ENCODING 7923
SWIDTH 480 0
DWIDTH 12 0
BBX 13 23 -1 -5
BITMAP
0800
0400
0300
0000
0000
4000
4008
2010
2010
1010
1020
0820
0840
0440
0480
0480
0300
0100
0200
0200
0400
8400
7800
ENDCHAR
STARTCHAR 1EF4
ENCODING 7924
SWIDTH 600 0
DWIDTH 15 0
BBX 15 22 0 -4
BITMAP
8002
8004
4004
2008
2008
1010
0820
0820
0440
0480
0280
0100
0100
0100
0100
0100
0100
0100
0000
0000
0000
0100
ENDCHAR
STARTCHAR 1EF5
ENCODING 7925
SWIDTH 480 0
DWIDTH 12 0
BBX 13 18 -1 -5
BITMAP
4000
4008
2010
2010
1010
1020
0820
0840
0440
0480
0480
0300
0100
0200
0200
0400
8440
7800
ENDCHAR
STARTCHAR 1EF6
ENCODING 7926
SWIDTH 600 0
DWIDTH 15 0
BBX 15 23 0 0
BITMAP
0380
0080
0080
0080
0000
8002
8004
4004
2008
2008
1010
0820
0820
0440
0480
0280
0100
0100
0100
0100
0100
0100
0100
ENDCHAR
STARTCHAR 1EF7
ENCODING 7927
SWIDTH 480 0
DWIDTH 12 0
BBX 13 24 -1 -5
BITMAP
0780
0080
0080
0100
0000
0000
4000
4008
2010
2010
1010
1020
0820
0840
0440
0480
0480
0300
0100
0200
0200
0400
8400
7800
ENDCHAR
STARTCHAR 1EF8
ENCODING 7928
SWIDTH 600 0
DWIDTH 15 0
BBX 15 21 0 0
BITMAP
0F20
08C0
0000
8002
8004
4004
2008
2008
1010
0820
0820
0440
0480
0280
0100
0100
0100
0100
0100
0100
0100
ENDCHAR
STARTCHAR 1EF9
ENCODING 7929
SWIDTH 480 0
DWIDTH 12 0
BBX 13 23 -1 -5
BITMAP
0400
1A40
0180
0000
0000
4000
4008
2010
2010
1010
1020
0820
0840
0440
0480
0480
0300
0100
0200
0200
0400
8400
7800
ENDCHAR
STARTCHAR 2007
ENCODING 8199
SWIDTH 680 0
DWIDTH 17 0
BBX 0 0 0 0
BITMAP
ENDCHAR
STARTCHAR 2008
ENCODING 8200
SWIDTH 160 0
DWIDTH 4 0
BBX 0 0 0 0
BITMAP
ENDCHAR
STARTCHAR 2009
ENCODING 8201
SWIDTH 120 0
DWIDTH 3 0
BBX 0 0 0 0
BITMAP
ENDCHAR
STARTCHAR 200A
ENCODING 8202
SWIDTH 80 0
DWIDTH 2 0
BBX 0 0 0 0
BITMAP
ENDCHAR
STARTCHAR 200B
ENCODING 8203
SWIDTH 0 0
DWIDTH 0 0
BBX 0 0 0 0
BITMAP
ENDCHAR
STARTCHAR 2010
ENCODING 8208
SWIDTH 360 0
DWIDTH 9 0
BBX 6 1 2 6
BITMAP
FC
ENDCHAR
STARTCHAR 2012
ENCODING 8210
SWIDTH 680 0
DWIDTH 17 0
BBX 13 1 2 8
BITMAP
FFF8
ENDCHAR
STARTCHAR 2013
ENCODING 8211
SWIDTH 480 0
DWIDTH 12 0
BBX 13 1 0 6
BITMAP
FFF8
ENDCHAR
STARTCHAR 2014
ENCODING 8212
SWIDTH 1000 0
DWIDTH 25 0
BBX 25 1 0 6
BITMAP
FFFFFF80
ENDCHAR
STARTCHAR 2015
ENCODING 8213
SWIDTH 1000 0
DWIDTH 25 0
BBX 25 1 0 6
BITMAP
FFFFFF80
ENDCHAR
STARTCHAR 2018
ENCODING 8216
SWIDTH 160 0
DWIDTH 4 0
BBX 1 4 2 15
BITMAP
80
80
80
80
ENDCHAR
STARTCHAR 2019
ENCODING 8217
SWIDTH 160 0
DWIDTH 4 0
BBX 1 4 2 14
BITMAP
80
80
80
80
ENDCHAR
STARTCHAR 201A
ENCODING 8218
SWIDTH 160 0
DWIDTH 4 0
BBX 1 4 2 -4
BITMAP
80
80
80
80
ENDCHAR
STARTCHAR 201C
ENCODING 8220
SWIDTH 280 0
DWIDTH 7 0
BBX 4 4 2 15
BITMAP
90
90
90
90
ENDCHAR
STARTCHAR 201D
ENCODING 8221
SWIDTH 280 0
DWIDTH 7 0
BBX 4 4 2 14
BITMAP
90
90
90
90
ENDCHAR
STARTCHAR 201E
ENCODING 8222
SWIDTH 280 0
DWIDTH 7 0
BBX 4 4 2 -4
BITMAP
90
90
90
90
ENDCHAR
STARTCHAR 2020
ENCODING 8224
SWIDTH 520 0
DWIDTH 13 0
BBX 11 23 1 -5
BITMAP
0400
0400
0400
0400
0400
0400
0400
FFE0
0400
0400
0400
0400
0400
0400
0400
0400
0400
0400
0400
0400
0400
0400
0400
ENDCHAR
STARTCHAR 2021
ENCODING 8225
SWIDTH 520 0
DWIDTH 13 0
BBX 11 23 1 -5
BITMAP
0400
0400
0400
0400
0400
0400
0400
FFE0
0400
0400
0400
0400
0400
0400
0400
0400
7FC0
0400
0400
0400
0400
0400
0400
ENDCHAR
STARTCHAR 2022
ENCODING 8226
SWIDTH 240 0
DWIDTH 6 0
BBX 2 2 2 6
BITMAP
C0
C0
ENDCHAR
STARTCHAR 2026
ENCODING 8230
SWIDTH 520 0
DWIDTH 13 0
BBX 10 1 2 0
BITMAP
8C40
ENDCHAR
STARTCHAR 2030
ENCODING 8240
SWIDTH 1120 0
DWIDTH 28 0
BBX 26 18 1 0
BITMAP
18000000
64020000
82040000
81080000
81080000
81100000
81200000
82400000
42400000
1C8F0F80
01109040
01209040
02205040
04205040
04205040
08209040
10109040
100F0F80
ENDCHAR
STARTCHAR 2032
ENCODING 8242
SWIDTH 160 0
DWIDTH 4 0
BBX 1 7 2 11
BITMAP
80
80
80
80
80
80
80
ENDCHAR
STARTCHAR 2033
ENCODING 8243
SWIDTH 320 0
DWIDTH 8 0
BBX 4 7 2 11
BITMAP
80
90
90
90
90
90
80
ENDCHAR
STARTCHAR 2039
ENCODING 8249
SWIDTH 240 0
DWIDTH 6 0
BBX 4 9 1 2
BITMAP
10
20
20
40
80
40
20
20
10
ENDCHAR
STARTCHAR 203A
ENCODING 8250
SWIDTH 240 0
DWIDTH 6 0
BBX 4 9 1 2
BITMAP
80
40
20
10
10
10
20
40
80
ENDCHAR
STARTCHAR 2044
ENCODING 8260
SWIDTH 160 0
DWIDTH 4 0
BBX 12 17 -4 1
BITMAP
0010
0020
0040
0040
0080
0100
0200
0200
0400
0800
0800
1000
2000
2000
4000
8000
8000
ENDCHAR
STARTCHAR 2052
ENCODING 8274
SWIDTH 440 0
DWIDTH 11 0
BBX 7 17 2 1
BITMAP
42
04
04
04
08
08
08
10
10
10
20
20
20
40
40
40
82
ENDCHAR
STARTCHAR 2070
ENCODING 8304
SWIDTH 400 0
DWIDTH 10 0
BBX 9 11 1 8
BITMAP
1800
6600
8100
8100
8080
8080
8080
8080
8100
4200
3C00
ENDCHAR
STARTCHAR 2074
ENCODING 8308
SWIDTH 400 0
DWIDTH 10 0
BBX 9 10 1 8
BITMAP
0400
0800
1000
1000
2000
4000
8400
FF80
0400
0400
ENDCHAR
STARTCHAR 2075
ENCODING 8309
SWIDTH 400 0
DWIDTH 10 0
BBX 8 11 1 8
BITMAP
3F
40
40
40
40
7C
03
01
01
81
7E
ENDCHAR
STARTCHAR 2076
ENCODING 8310
SWIDTH 400 0
DWIDTH 10 0
BBX 9 11 1 8
BITMAP
0600
3000
4000
8000
8000
BE00
C100
8080
8080
4100
3E00
ENDCHAR
STARTCHAR 2077
ENCODING 8311
SWIDTH 400 0
DWIDTH 10 0
BBX 9 11 1 8
BITMAP
FF80
8100
8100
0200
0200
0400
0400
0800
0800
1000
1000
ENDCHAR
STARTCHAR 2078
ENCODING 8312
SWIDTH 400 0
DWIDTH 10 0
BBX 9 11 1 8
BITMAP
1800
6300
8100
8100
4100
3E00
C300
8080
8080
8100
7E00
ENDCHAR
STARTCHAR 2079
ENCODING 8313
SWIDTH 400 0
DWIDTH 10 0
BBX 8 11 1 8
BITMAP
10
66
81
81
81
43
2D
01
01
02
7C
ENDCHAR
STARTCHAR 2080
ENCODING 8320
SWIDTH 400 0
DWIDTH 10 0
BBX 9 11 1 -3
BITMAP
3C00
4300
8100
8080
8080
8080
8080
8100
8100
4200
3C00
ENDCHAR
STARTCHAR 2081
ENCODING 8321
SWIDTH 400 0
DWIDTH 10 0
BBX 7 11 2 -3
BITMAP
F0
10
10
10
10
10
10
10
10
10
FE
ENDCHAR
STARTCHAR 2082
ENCODING 8322
SWIDTH 400 0
DWIDTH 10 0
BBX 8 11 1 -3
BITMAP
7C
82
01
01
02
04
08
10
20
40
FF
ENDCHAR
STARTCHAR 2083
ENCODING 8323
SWIDTH 400 0
DWIDTH 10 0
BBX 8 11 1 -3
BITMAP
FF
02
04
08
10
0E
01
01
01
82
64
ENDCHAR
STARTCHAR 2084
ENCODING 8324
SWIDTH 400 0
DWIDTH 10 0
BBX 9 10 1 -3
BITMAP
0400
0800
1000
2000
2000
4400
8400
FF80
0400
0400
ENDCHAR
STARTCHAR 2085
ENCODING 8325
SWIDTH 400 0
DWIDTH 10 0
BBX 7 11 2 -3
BITMAP
7E
80
80
80
80
7C
02
02
02
84
58
ENDCHAR
STARTCHAR 2086
ENCODING 8326
SWIDTH 400 0
DWIDTH 10 0
BBX 9 11 1 -3
BITMAP
1F00
6000
C000
8000
8800
F300
C100
8080
4100
2100
1200
ENDCHAR
STARTCHAR 2087
ENCODING 8327
SWIDTH 400 0
DWIDTH 10 0
BBX 9 10 1 -3
BITMAP
FF80
8100
8100
0200
0200
0400
0400
0800
0800
1000
ENDCHAR
STARTCHAR 2088
ENCODING 8328
SWIDTH 400 0
DWIDTH 10 0
BBX 9 11 1 -3
BITMAP
3E00
C100
8100
8100
4200
7E00
8100
8080
8080
4100
2E00
ENDCHAR
STARTCHAR 2089
ENCODING 8329
SWIDTH 400 0
DWIDTH 10 0
BBX 8 11 1 -3
BITMAP
3C
C2
81
81
83
43
3D
01
01
02
3C
ENDCHAR
STARTCHAR 20A1
ENCODING 8353
SWIDTH 680 0
DWIDTH 17 0
BBX 15 23 1 -2
BITMAP
0044
0044
0048
079C
188A
2090
4090
4110
8110
8120
8120
8220
8220
8240
4240
4440
2440
1480
0C82
0BBC
08C0
0900
0900
ENDCHAR
STARTCHAR 20A3
ENCODING 8355
SWIDTH 600 0
DWIDTH 15 0
BBX 13 18 2 0
BITMAP
7FF8
4000
4000
4000
4000
4000
4000
4000
4000
7FF0
4000
4000
4000
4000
FE00
4000
4000
4000
ENDCHAR
STARTCHAR 20A4
ENCODING 8356
SWIDTH 600 0
DWIDTH 15 0
BBX 14 18 1 0
BITMAP
0080
0738
1804
1000
2000
2000
2000
FFE0
2000
2000
2000
7FC0
2000
2000
2000
2000
2000
7FF8
ENDCHAR
STARTCHAR 20A6
ENCODING 8358
SWIDTH 840 0
DWIDTH 21 0
BBX 20 18 1 0
BITMAP
000080
100080
280080
2C0080
240080
220080
210080
FFFFF0
208080
204080
202080
7FDFE0
201080
200880
200480
200280
200180
200080
ENDCHAR
STARTCHAR 20A7
ENCODING 8359
SWIDTH 1560 0
DWIDTH 39 0
BBX 35 18 3 0
BITMAP
FC00000000
83E0000000
8010000000
8010400000
8008400000
8009FE0F80
8008403060
8008402000
8008404000
8010402000
8020401000
81C0400F00
FE004000C0
8000400020
8000400020
8000400020
8000204020
80001E3FC0
ENDCHAR
STARTCHAR 20A9
ENCODING 8361
SWIDTH 1120 0
DWIDTH 28 0
BBX 26 18 1 0
BITMAP
80000040
800C0040
800C0080
40140080
40120080
20120100
20210100
FFFFFFC0
10410200
10408200
10408400
6FBFFF80
08804400
08804800
05004800
05002800
05003000
02001000
ENDCHAR
STARTCHAR 20AB
ENCODING 8363
SWIDTH 640 0
DWIDTH 16 0
BBX 15 22 1 -3
BITMAP
0008
0008
0008
01FE
0008
0008
0F88
3068
4018
4008
8008
8008
8008
8008
8008
4008
4018
2028
1DC8
0200
0000
3FF0
ENDCHAR
STARTCHAR 20AC
ENCODING 8364
SWIDTH 760 0
DWIDTH 19 0
BBX 17 18 1 0
BITMAP
001000
01C700
060080
080000
100000
100000
200000
FFF800
200000
200000
200000
7FF000
100000
100000
080000
040000
020080
01FF00
ENDCHAR
STARTCHAR 20AD
ENCODING 8365
SWIDTH 560 0
DWIDTH 14 0
BBX 12 18 2 0
BITMAP
4010
4020
4040
4080
4100
4200
4400
4800
5000
EF80
5000
4800
4400
4200
4100
4080
4040
4020
ENDCHAR
STARTCHAR 20AE
ENCODING 8366
SWIDTH 640 0
DWIDTH 16 0
BBX 14 18 1 0
BITMAP
FFFC
0200
0200
0200
0200
0210
0260
0180
0600
1A30
22C0
0300
0E00
3200
0200
0200
0200
0200
ENDCHAR
STARTCHAR 20B1
ENCODING 8369
SWIDTH 800 0
DWIDTH 20 0
BBX 19 18 1 0
BITMAP
1F8000
207800
200400
200200
FFFFE0
200100
200100
200200
7FFFC0
200200
200400
207800
2F8000
200000
200000
200000
200000
200000
ENDCHAR
STARTCHAR 20B2
ENCODING 8370
SWIDTH 760 0
DWIDTH 19 0
BBX 16 22 1 -2
BITMAP
0080
0080
0040
079C
1882
2080
4080
4080
8080
8080
8080
8081
8081
8081
4081
4081
2081
1081
0882
079C
00E0
0080
ENDCHAR
STARTCHAR 20B4
ENCODING 8372
SWIDTH 800 0
DWIDTH 20 0
BBX 15 18 3 0
BITMAP
0180
1C60
0010
0008
0008
0008
0008
FFFE
0000
0000
0000
7FFC
4000
4000
4000
4000
2018
1FE0
ENDCHAR
STARTCHAR 20B5
ENCODING 8373
SWIDTH 680 0
DWIDTH 17 0
BBX 15 22 1 -2
BITMAP
0080
0080
0040
079C
1882
2080
4080
4080
8080
8080
8080
8080
8080
8080
4080
4080
2080
1080
0882
07BC
00C0
0080
ENDCHAR
STARTCHAR 20B8
ENCODING 8376
SWIDTH 680 0
DWIDTH 17 0
BBX 14 18 2 0
BITMAP
FFFC
0000
0000
0000
7FF8
0200
0200
0200
0200
0200
0200
0200
0200
0200
0200
0200
0200
0200
ENDCHAR
STARTCHAR 20B9
ENCODING 8377
SWIDTH 680 0
DWIDTH 17 0
BBX 17 18 0 0
BITMAP
FFFF80
002000
001000
000800
7FFF00
000400
000400
000800
000800
001000
002000
1FC000
004000
002000
001000
001000
000800
000400
ENDCHAR
STARTCHAR 20BA
ENCODING 8378
SWIDTH 640 0
DWIDTH 16 0
BBX 14 17 1 0
BITMAP
2000
2000
2040
2180
2600
1820
60C0
2300
2C00
3004
E004
2004
2004
2008
2010
2020
3FC0
ENDCHAR
STARTCHAR 20BC
ENCODING 8380
SWIDTH 920 0
DWIDTH 23 0
BBX 17 21 3 0
BITMAP
008000
008000
008000
018000
0EB800
108400
208200
408100
408100
808100
808080
808080
808080
808080
808080
808080
808080
808080
800080
800080
800080
ENDCHAR
STARTCHAR 20BD
ENCODING 8381
SWIDTH 680 0
DWIDTH 17 0
BBX 14 18 2 0
BITMAP
7F00
40F0
4008
4004
4004
4004
4004
4004
4004
4008
4010
40E0
7F00
4000
FE00
4000
4000
4000
ENDCHAR
STARTCHAR 2113
ENCODING 8467
SWIDTH 440 0
DWIDTH 11 0
BBX 8 17 2 0
BITMAP
0F
11
21
21
21
22
22
24
48
50
60
40
C0
40
40
43
3C
ENDCHAR
STARTCHAR 2116
ENCODING 8470
SWIDTH 1160 0
DWIDTH 29 0
BBX 25 18 3 0
BITMAP
80000C00
C0043300
C0044080
A0044080
90048080
88044080
88044100
84043300
82040C00
81040000
81840000
80843F00
80440000
80240000
80140000
80140000
800C0000
80040000
ENDCHAR
STARTCHAR 2122
ENCODING 8482
SWIDTH 1000 0
DWIDTH 25 0
BBX 22 11 0 7
BITMAP
FF8004
081004
08300C
082814
082424
082424
082244
082244
082184
082004
080004
ENDCHAR
STARTCHAR 2126
ENCODING 8486
SWIDTH 880 0
DWIDTH 22 0
BBX 23 18 0 0
BITMAP
001000
01C700
060080
080040
100020
100010
200010
200010
200010
200010
200010
200010
100010
100020
080020
080040
060080
FF01FE
ENDCHAR
STARTCHAR 212A
ENCODING 8490
SWIDTH 680 0
DWIDTH 17 0
BBX 13 18 3 0
BITMAP
8000
8018
8020
8040
8080
8080
8100
8200
8400
8C00
9200
A100
C080
8040
8020
8010
8008
8008
ENDCHAR
STARTCHAR 212B
ENCODING 8491
SWIDTH 680 0
DWIDTH 17 0
BBX 17 24 0 0
BITMAP
01C000
022000
022000
024000
018000
000000
008000
018000
014000
014000
022000
022000
041000
041000
080800
080800
100800
100400
1FFC00
200200
400200
400100
400100
800080
ENDCHAR
STARTCHAR 212E
ENCODING 8494
SWIDTH 880 0
DWIDTH 22 0
BBX 20 18 1 0
BITMAP
006000
038E00
0C0180
1000C0
300060
700060
700070
700070
F00070
FFFF80
700000
700000
700000
300000
300000
1800C0
040300
03FC00
ENDCHAR
STARTCHAR 2153
ENCODING 8531
SWIDTH 1000 0
DWIDTH 25 0
BBX 22 18 2 0
BITMAP
F00080
100100
100100
100200
100400
100400
100800
101000
1011F8
102010
FE4020
004040
008070
010008
020004
020004
040008
0803F0
ENDCHAR
STARTCHAR 2154
ENCODING 8532
SWIDTH 1000 0
DWIDTH 25 0
BBX 23 18 1 0
BITMAP
100040
E60080
010080
010100
020200
020200
0C0400
100800
2008FC
401008
FF2010
002020
004038
008004
010002
010002
020004
0401F8
ENDCHAR
STARTCHAR 215B
ENCODING 8539
SWIDTH 1000 0
DWIDTH 25 0
BBX 23 18 2 0
BITMAP
F00080
100100
100100
100200
100400
100400
100800
101000
1011F8
102204
FE4204
004204
0081F8
01030C
020404
020402
040204
0801F8
ENDCHAR
STARTCHAR 215C
ENCODING 8540
SWIDTH 1000 0
DWIDTH 25 0
BBX 24 18 1 0
BITMAP
FF0040
020080
040080
080100
100200
1C0200
030400
010800
0108FC
811102
7E2102
002102
0040FC
008186
010202
010201
020102
0400FC
ENDCHAR
STARTCHAR 215D
ENCODING 8541
SWIDTH 1000 0
DWIDTH 25 0
BBX 24 18 1 0
BITMAP
3F0040
400080
400080
400100
400200
7C0200
030400
010800
0108FC
811102
7E2102
002102
0040FC
008186
010202
010201
020102
0400FC
ENDCHAR
STARTCHAR 215E
ENCODING 8542
SWIDTH 1000 0
DWIDTH 25 0
BBX 24 18 1 0
BITMAP
FF8040
810080
810080
020100
020200
040200
040400
080800
0808FC
101102
102102
002102
0040FC
008186
010202
010201
020102
0400FC
ENDCHAR
STARTCHAR 2190
ENCODING 8592
SWIDTH 600 0
DWIDTH 15 0
BBX 10 9 3 2
BITMAP
2000
2000
4000
8000
FFC0
4000
4000
2000
1000
ENDCHAR
STARTCHAR 2191
ENCODING 8593
SWIDTH 600 0
DWIDTH 15 0
BBX 9 10 3 2
BITMAP
0800
1C00
6B00
8880
0800
0800
0800
0800
0800
0800
ENDCHAR
STARTCHAR 2192
ENCODING 8594
SWIDTH 600 0
DWIDTH 15 0
BBX 10 9 2 2
BITMAP
0200
0100
0080
0080
FFC0
0080
0100
0100
0200
ENDCHAR
STARTCHAR 2193
ENCODING 8595
SWIDTH 600 0
DWIDTH 15 0
BBX 9 9 3 3
BITMAP
0800
0800
0800
0800
0800
8800
4880
3B00
0C00
ENDCHAR
STARTCHAR 2194
ENCODING 8596
SWIDTH 600 0
DWIDTH 15 0
BBX 13 9 1 2
BITMAP
1040
2020
4010
4010
FFF8
4010
2020
2040
1040
ENDCHAR
STARTCHAR 2195
ENCODING 8597
SWIDTH 600 0
DWIDTH 15 0
BBX 9 13 3 2
BITMAP
0800
3E00
4900
8880
0800
0800
0800
0800
0800
0800
C900
2A00
1C00
ENDCHAR
STARTCHAR 2196
ENCODING 8598
SWIDTH 600 0
DWIDTH 15 0
BBX 8 7 3 3
BITMAP
3E
60
50
88
84
82
01
ENDCHAR
STARTCHAR 2197
ENCODING 8599
SWIDTH 600 0
DWIDTH 15 0
BBX 8 8 4 3
BITMAP
3C
02
06
0A
11
21
40
80
ENDCHAR
STARTCHAR 2198
ENCODING 8600
SWIDTH 600 0
DWIDTH 15 0
BBX 8 8 4 3
BITMAP
80
40
21
11
0A
06
02
3C
ENDCHAR
STARTCHAR 2199
ENCODING 8601
SWIDTH 600 0
DWIDTH 15 0
BBX 8 8 3 3
BITMAP
01
02
84
88
50
60
40
3E
ENDCHAR
STARTCHAR 2202
ENCODING 8706
SWIDTH 680 0
DWIDTH 17 0
BBX 13 18 2 0
BITMAP
0C00
11C0
0020
0010
0010
0008
0008
0F08
30C8
4028
8018
8008
8008
8010
8010
4030
2020
1FC0
ENDCHAR
STARTCHAR 2205
ENCODING 8709
SWIDTH 560 0
DWIDTH 14 0
BBX 10 10 2 3
BITMAP
1E40
6180
8180
8240
8440
8840
9040
A080
4100
BE00
ENDCHAR
STARTCHAR 2206
ENCODING 8710
SWIDTH 680 0
DWIDTH 17 0
BBX 17 18 0 0
BITMAP
008000
018000
014000
014000
022000
022000
041000
041000
080800
080800
100800
100400
200400
200200
400200
400100
800100
FFFF80
ENDCHAR
STARTCHAR 220F
ENCODING 8719
SWIDTH 800 0
DWIDTH 20 0
BBX 14 23 3 -5
BITMAP
FFFC
8004
8004
8004
8004
8004
8004
8004
8004
8004
8004
8004
8004
8004
8004
8004
8004
8004
8004
8004
8004
8004
8000
ENDCHAR
STARTCHAR 2211
ENCODING 8721
SWIDTH 600 0
DWIDTH 15 0
BBX 14 23 1 -5
BITMAP
FFFC
4000
4000
2000
1000
0800
0400
0400
0200
0100
0080
0040
0080
0100
0200
0200
0400
0800
1000
2000
2000
4000
FFFC
ENDCHAR
STARTCHAR 2212
ENCODING 8722
SWIDTH 560 0
DWIDTH 14 0
BBX 10 1 2 8
BITMAP
FFC0
ENDCHAR
STARTCHAR 2215
ENCODING 8725
SWIDTH 280 0
DWIDTH 7 0
BBX 9 24 -1 -3
BITMAP
0080
0080
0100
0100
0100
0200
0200
0200
0400
0400
0400
0800
0800
0800
1000
1000
2000
2000
2000
4000
4000
4000
8000
8000
ENDCHAR
STARTCHAR 2219
ENCODING 8729
SWIDTH 240 0
DWIDTH 6 0
BBX 2 1 2 8
BITMAP
C0
ENDCHAR
STARTCHAR 221A
ENCODING 8730
SWIDTH 760 0
DWIDTH 19 0
BBX 17 23 2 -4
BITMAP
000080
000080
000100
000100
000200
000200
000200
000400
000400
F00400
100800
100800
080800
081000
041000
041000
042000
022000
024000
014000
014000
018000
008000
ENDCHAR
STARTCHAR 221E
ENCODING 8734
SWIDTH 880 0
DWIDTH 22 0
BBX 21 9 1 4
BITMAP
3F07C0
408830
805010
806010
802008
806010
409010
210820
1E05C0
ENDCHAR
STARTCHAR 222B
ENCODING 8747
SWIDTH 320 0
DWIDTH 8 0
BBX 10 24 0 -5
BITMAP
0300
0CC0
0800
0800
0800
0800
0800
0800
0800
0800
0800
0800
0800
0800
0800
0800
0800
0800
0800
0800
0800
0800
1000
E000
ENDCHAR
STARTCHAR 2248
ENCODING 8776
SWIDTH 560 0
DWIDTH 14 0
BBX 10 9 2 4
BITMAP
7000
8840
0680
0100
0000
2000
D840
8440
0380
ENDCHAR
STARTCHAR 2260
ENCODING 8800
SWIDTH 560 0
DWIDTH 14 0
BBX 10 13 2 2
BITMAP
0080
0100
0200
FFC0
0400
0400
0800
0800
1000
6F80
2000
4000
4000
ENDCHAR
STARTCHAR 2264
ENCODING 8804
SWIDTH 560 0
DWIDTH 14 0
BBX 10 13 2 0
BITMAP
00C0
0300
1C00
6000
8000
6000
1C00
0300
00C0
0000
0000
0000
7F80
ENDCHAR
STARTCHAR 2265
ENCODING 8805
SWIDTH 560 0
DWIDTH 14 0
BBX 10 13 2 0
BITMAP
C000
3000
0E00
0180
0040
0180
0E00
3000
C000
0000
0000
0000
7F80
ENDCHAR
STARTCHAR 25A0
ENCODING 9632
SWIDTH 600 0
DWIDTH 15 0
BBX 9 9 3 2
BITMAP
FF80
FF80
FF80
FF80
FF80
FF80
FF80
FF80
FF80
ENDCHAR
STARTCHAR 25A1
ENCODING 9633
SWIDTH 600 0
DWIDTH 15 0
BBX 9 9 3 2
BITMAP
FF80
8080
8080
8080
8080
8080
8080
8080
FF80
ENDCHAR
STARTCHAR 25B2
ENCODING 9650
SWIDTH 600 0
DWIDTH 15 0
BBX 11 11 2 1
BITMAP
0400
0400
0E00
0E00
1F00
1F00
3F80
3F80
7FC0
7FC0
FFE0
ENDCHAR
STARTCHAR 25B3
ENCODING 9651
SWIDTH 600 0
DWIDTH 15 0
BBX 11 11 2 1
BITMAP
0400
0C00
0A00
1200
1100
2100
2080
4080
4040
8040
FFE0
ENDCHAR
STARTCHAR 25B6
ENCODING 9654
SWIDTH 600 0
DWIDTH 15 0
BBX 10 10 3 1
BITMAP
8000
E000
F800
FE00
FF80
FFC0
FF00
FC00
F000
C000
ENDCHAR
STARTCHAR 25B7
ENCODING 9655
SWIDTH 600 0
DWIDTH 15 0
BBX 10 10 3 1
BITMAP
8000
E000
9800
8600
8180
8040
8180
8600
9800
E000
ENDCHAR
STARTCHAR 25BC
ENCODING 9660
SWIDTH 600 0
DWIDTH 15 0
BBX 11 11 2 1
BITMAP
FFE0
7FC0
7FC0
3F80
3F80
1F00
1F00
0E00
0E00
0400
0400
ENDCHAR
STARTCHAR 25BD
ENCODING 9661
SWIDTH 600 0
DWIDTH 15 0
BBX 11 11 2 1
BITMAP
FFE0
8040
4040
4080
2080
2100
1100
1200
0A00
0C00
0400
ENDCHAR
STARTCHAR 25C0
ENCODING 9664
SWIDTH 600 0
DWIDTH 15 0
BBX 10 10 2 1
BITMAP
0040
01C0
07C0
1FC0
7FC0
FFC0
3FC0
0FC0
03C0
00C0
ENDCHAR
STARTCHAR 25C1
ENCODING 9665
SWIDTH 600 0
DWIDTH 15 0
BBX 10 10 2 1
BITMAP
0040
01C0
0640
1840
6040
8040
6040
1840
0640
01C0
ENDCHAR
STARTCHAR 25C6
ENCODING 9670
SWIDTH 600 0
DWIDTH 15 0
BBX 13 14 1 0
BITMAP
0200
0700
0F80
1FC0
3FC0
7FE0
FFF0
FFF8
7FF0
3FE0
1FC0
0F80
0700
0200
ENDCHAR
STARTCHAR 25C7
ENCODING 9671
SWIDTH 600 0
DWIDTH 15 0
BBX 13 14 1 0
BITMAP
0200
0700
0980
10C0
2040
4020
8010
8008
8010
4020
2040
1080
0900
0600
ENDCHAR
STARTCHAR 25CA
ENCODING 9674
SWIDTH 480 0
DWIDTH 12 0
BBX 10 14 1 2
BITMAP
0400
0A00
1200
2100
4080
4080
8040
8040
4080
2100
2100
1200
0C00
0400
ENDCHAR
STARTCHAR 27E8
ENCODING 10216
SWIDTH 280 0
DWIDTH 7 0
BBX 5 24 1 -5
BITMAP
08
08
10
10
10
20
20
20
40
40
40
80
80
80
40
40
40
20
20
20
10
10
10
08
ENDCHAR
STARTCHAR 27E9
ENCODING 10217
SWIDTH 280 0
DWIDTH 7 0
BBX 4 22 2 -4
BITMAP
80
80
80
80
40
40
20
20
20
10
10
10
10
20
20
20
40
40
40
80
80
80
ENDCHAR
STARTCHAR A78B
ENCODING 42891
SWIDTH 200 0
DWIDTH 5 0
BBX 1 11 2 7
BITMAP
80
80
80
80
80
80
80
80
80
80
80
ENDCHAR
STARTCHAR A78C
ENCODING 42892
SWIDTH 200 0
DWIDTH 5 0
BBX 1 9 2 7
BITMAP
80
80
80
80
80
80
80
80
80
ENDCHAR
STARTCHAR FB01
ENCODING 64257
SWIDTH 560 0
DWIDTH 14 0
BBX 10 19 1 0
BITMAP
0C00
3340
2000
2000
2000
2000
FE00
2040
2040
2040
2040
2040
2040
2040
2040
2040
2040
2040
2040
ENDCHAR
STARTCHAR FB02
ENCODING 64258
SWIDTH 560 0
DWIDTH 14 0
BBX 10 19 1 0
BITMAP
0C00
3340
2040
2040
2040
2040
FE40
2040
2040
2040
2040
2040
2040
2040
2040
2040
2040
2040
2040
ENDCHAR
ENDFONT
